<svg width="16" height="16" viewBox="0 0 16 16" fill="none" xmlns="http://www.w3.org/2000/svg">
<path d="M5.6 7.20001H4V8.80001H5.6V7.20001Z" fill="#588F8E"/>
<path d="M8.80001 7.20001H7.20001V8.80001H8.80001V7.20001Z" fill="#588F8E"/>
<path d="M12 7.20001H10.4V8.80001H12V7.20001Z" fill="#588F8E"/>
<path d="M5.6 10.4H4V12H5.6V10.4Z" fill="#588F8E"/>
<path d="M8.80001 10.4H7.20001V12H8.80001V10.4Z" fill="#588F8E"/>
<path d="M12 10.4H10.4V12H12V10.4Z" fill="#588F8E"/>
<path d="M15.2 1.6H13.6V0.8C13.6 0.32 13.28 0 12.8 0C12.32 0 12 0.32 12 0.8V1.6H4V0.8C4 0.32 3.68 0 3.2 0C2.72 0 2.4 0.32 2.4 0.8V1.6H0.8C0.32 1.6 0 1.92 0 2.4V15.2C0 15.68 0.32 16 0.8 16H15.2C15.6 16 16 15.68 16 15.2V2.4C16 1.92 15.6 1.6 15.2 1.6ZM14.4 14.4H1.6V4.8H14.4V14.4Z" fill="#588F8E"/>
</svg>
