<svg width="11" height="12" viewBox="0 0 11 12" fill="none" xmlns="http://www.w3.org/2000/svg">
<path d="M0.53412 1.48351L1.97516 0L4.96783 3.08639L3.80766 4.32415C4.00209 4.68072 4.42396 5.36373 5.14293 6.10643C5.86198 6.84926 6.528 7.29003 6.87645 7.49408L8.05112 6.29608L10.9971 9.32122L9.5639 10.8116C9.01607 11.3775 8.1825 11.5242 7.48968 11.1766C6.43243 10.6461 4.83686 9.66738 3.23927 8.01701C1.64172 6.3667 0.694286 4.7184 0.180769 3.62624C0.0591031 3.36746 -1.92043e-07 3.0897 -1.92043e-07 2.81374C-1.92043e-07 2.32645 0.184356 1.8448 0.53412 1.48351ZM0.953193 3.23865C1.43792 4.26962 2.33334 5.82665 3.84648 7.38977C5.35966 8.95295 6.86689 9.87791 7.86486 10.3786C8.22869 10.5612 8.66751 10.4831 8.95572 10.1854L9.78291 9.32514L8.049 7.54473L7.04828 8.56529L6.78054 8.44212C6.73704 8.4221 5.70154 7.93807 4.53567 6.7337C3.36904 5.52852 2.91022 4.46788 2.89127 4.42329L2.77517 4.15041L3.76263 3.09694L1.97455 1.25285L1.14088 2.11106C0.852023 2.4099 0.776549 2.86299 0.953193 3.23865Z" fill="white"/>
</svg>
