<svg width="39" height="42" viewBox="0 0 39 42" fill="none" xmlns="http://www.w3.org/2000/svg">
<path d="M37.6036 8.29686C36.3471 4.87498 32.9497 2.99998 29.9712 1.26561C26.8996 -0.515641 22.8506 -0.0468912 19.4533 0.468734C16.242 0.937484 13.3566 2.20311 11.0762 4.54686C8.79574 6.89061 7.07378 10.2656 7.30648 13.6406C7.35302 14.1094 7.95803 14.0625 8.00457 13.6406C8.00457 13.5937 8.00457 13.5469 8.00457 13.5C8.05111 13.5 8.09765 13.5 8.09765 13.4531C8.84228 10.0312 14.5201 10.0781 17.1728 10.1719C20.5702 10.3125 23.9676 10.8281 27.3184 11.5312C28.9473 11.9062 30.5762 12.3281 32.1585 12.7969C33.6478 13.2656 35.4628 13.6875 36.6263 14.8125C37.0917 15.2812 37.464 16.0312 37.3709 16.7344C37.3244 16.8281 37.2313 16.875 37.1382 16.9687C37.0451 17.0625 37.1382 17.2031 37.2313 17.2031C37.1848 17.2969 37.1382 17.3437 37.0917 17.4375C36.6263 18.1875 35.6955 18.2812 34.9043 18.3281C33.4151 18.375 31.9258 18 30.39 17.9531C30.0177 17.9531 29.9246 18.5156 30.2969 18.6094C32.3912 18.9844 37.7432 20.1562 37.9759 16.6406C37.9759 16.5 37.9759 16.3125 37.9759 16.1719C38.4413 15.3281 38.7206 14.2969 38.8136 13.4062C39.1394 11.7187 38.2086 9.84373 37.6036 8.29686ZM38.0225 15.8437C37.7898 14.7656 36.9521 13.8281 35.9747 13.3125C34.1597 12.2812 32.0189 11.7656 30.0177 11.25C25.7361 10.0781 21.2218 9.37498 16.8005 9.37498C14.8459 9.37498 12.8912 9.56248 11.0762 10.3594C9.91269 10.875 8.70266 11.5312 8.14419 12.7031C8.65612 9.51561 9.86615 6.56248 12.3327 4.35936C15.3578 1.64061 19.1275 1.17186 23.0368 1.12498C25.2241 1.07811 27.2719 1.03123 29.2265 2.20311C30.9019 3.23436 32.5308 4.40623 34.1132 5.57811C35.8351 6.84373 36.9055 9.04686 37.6502 11.0156C37.9759 11.9062 38.2086 12.8906 38.3482 13.8281C38.4413 14.5781 38.3482 15.2344 38.0225 15.8437Z" fill="#588F8E"/>
<path d="M12.5654 5.67189C11.5881 6.65626 10.7038 8.06251 10.5642 9.46876C10.5642 9.56251 10.6573 9.56251 10.7038 9.46876C11.1227 8.06251 11.5881 6.84376 12.6585 5.71876C12.705 5.67189 12.6119 5.57814 12.5654 5.67189Z" fill="#588F8E"/>
<path d="M12.1001 8.06248C11.914 8.43748 11.6347 9.09373 11.9605 9.42185C12.007 9.46873 12.1001 9.46873 12.1001 9.42185C12.1932 9.28123 12.1932 9.04685 12.1932 8.90623C12.2397 8.67185 12.2863 8.48435 12.4259 8.24998C12.519 8.0156 12.1932 7.82811 12.1001 8.06248Z" fill="#588F8E"/>
<path d="M31.3675 17.4843C30.9486 17.0625 30.4367 16.4531 30.7625 15.8437C30.9021 15.5625 30.5298 15.2343 30.2971 15.4687C29.9247 15.9375 29.8317 16.4531 30.0644 17.0156C30.2505 17.5312 30.7159 17.9531 31.2744 17.8125C31.414 17.8125 31.4605 17.625 31.3675 17.4843Z" fill="#588F8E"/>
<path d="M17.5452 25.0781C17.3591 25.125 17.2195 25.2187 17.0333 25.2656C16.9868 25.2656 16.8937 25.2656 16.8471 25.2656C16.8937 25.125 16.8937 24.9375 16.8471 24.7969C15.9164 23.0625 13.124 23.7656 11.5882 24.0469C8.98198 24.6094 6.65501 25.875 4.00227 26.2969C3.86265 26.2969 3.90919 26.5781 4.04881 26.5781C5.95692 26.4375 7.95812 26.1094 9.81969 25.6406C11.3555 25.2656 14.7529 24.0469 16.0094 25.4531C16.149 25.6406 16.3352 25.6406 16.5214 25.5937C16.8937 25.7812 17.4987 25.6406 17.7314 25.2656C17.7314 25.1719 17.6383 25.0312 17.5452 25.0781Z" fill="#588F8E"/>
<path d="M4.60738 27.4687C4.32815 27.3281 4.00237 27.375 3.6766 27.3281C3.30428 27.2343 2.9785 27.1406 2.65273 26.9062C2.55965 26.8593 2.46657 27 2.51311 27.0468C2.79235 27.3281 3.11812 27.6094 3.49044 27.7031C3.81621 27.7969 4.28161 27.9375 4.60738 27.7031C4.70046 27.7031 4.70046 27.5625 4.60738 27.4687Z" fill="#588F8E"/>
<path d="M6.37582 27.1406C6.09659 27 5.67773 27.1406 5.3985 27.1875C5.11926 27.2344 5.21234 27.7031 5.53811 27.6562C5.81735 27.6094 6.2362 27.6094 6.42236 27.375C6.4689 27.2812 6.4689 27.1875 6.37582 27.1406Z" fill="#588F8E"/>
<path d="M3.6765 21.4219C3.72304 21.375 3.62996 21.2813 3.58342 21.375C3.11802 21.9375 2.65263 22.9688 3.02494 23.7188C3.11802 23.8125 3.25764 23.7188 3.25764 23.625C3.30418 23.25 3.2111 22.9219 3.25764 22.5469C3.30418 22.125 3.4438 21.75 3.6765 21.4219Z" fill="#588F8E"/>
<path d="M4.37462 22.2187C4.14192 22.3125 4.0023 22.5468 4.0023 22.7812C3.95576 22.9687 4.0023 23.2968 4.235 23.3437C4.28154 23.3437 4.32808 23.2968 4.32808 23.25C4.28154 23.1093 4.18846 22.9687 4.18846 22.8281C4.18846 22.6406 4.28154 22.5 4.46769 22.4062C4.60731 22.3593 4.46769 22.1718 4.37462 22.2187Z" fill="#588F8E"/>
<path d="M5.91028 20.1093C5.30527 20.8593 4.83987 22.2656 5.63104 23.0625C5.72412 23.1562 5.86374 23.0625 5.86374 22.9687C5.86374 22.5468 5.72412 22.125 5.77066 21.7031C5.77066 21.1875 5.91028 20.6718 6.14298 20.25C6.14298 20.1562 6.00336 20.0156 5.91028 20.1093Z" fill="#588F8E"/>
<path d="M16.2422 19.4531C15.7768 19.125 15.1253 18.9844 14.5202 19.0312C14.4272 19.0312 14.4272 19.2188 14.5202 19.2188C15.1253 19.1719 15.5907 19.3594 16.0095 19.7813C16.3818 20.1094 16.4749 20.5313 16.7541 20.8594C16.8007 20.9062 16.9403 20.9063 16.9403 20.8125C17.1265 20.2969 16.6611 19.7344 16.2422 19.4531Z" fill="#588F8E"/>
<path d="M15.6371 20.9531C15.544 20.7656 15.4044 20.6719 15.2648 20.5313C15.1252 20.3906 14.9855 20.25 14.7994 20.1563C14.5667 19.9688 14.2409 20.2969 14.4736 20.4844L14.939 20.9063C15.0786 21.0469 15.2182 21.1406 15.4509 21.2344C15.5906 21.2344 15.6836 21.0938 15.6371 20.9531Z" fill="#588F8E"/>
<path d="M34.6253 9.56247C34.4857 9.5156 34.3926 9.65622 34.5322 9.74997C34.8114 9.98435 34.9976 10.2187 35.1838 10.5C35.3234 10.7343 35.463 11.0156 35.6957 11.1562C35.7888 11.2031 35.8353 11.1562 35.8818 11.0625C36.068 10.4062 35.1372 9.79685 34.6253 9.56247Z" fill="#588F8E"/>
<path d="M34.0667 10.2188C33.9737 10.125 33.8806 10.0781 33.741 10.125C33.6479 10.1719 33.6014 10.3594 33.6479 10.4531C33.741 10.5469 33.7875 10.6875 33.8341 10.8281C33.8806 10.9688 33.9271 11.0625 34.0202 11.1563C34.0667 11.2031 34.1598 11.2031 34.2064 11.1563C34.4391 10.875 34.2529 10.4531 34.0667 10.2188Z" fill="#588F8E"/>
<path d="M31.9724 8.76562L32.019 9.14062C32.019 9.375 32.3447 9.375 32.3913 9.14062L32.4378 8.76562C32.4378 8.48438 31.9724 8.48438 31.9724 8.76562Z" fill="#588F8E"/>
<path d="M28.2494 33.4688C28.2028 33.2344 27.9236 33.2344 27.9236 33.4688C27.9236 34.125 27.8305 34.7812 27.6443 35.4375C27.5047 35.9531 27.2255 36.4219 27.179 36.9844C27.179 37.1719 27.3651 37.2187 27.5047 37.125C28.389 36.2812 28.389 34.5938 28.2494 33.4688Z" fill="#588F8E"/>
<path d="M26.3411 35.2031C26.5273 34.7812 25.9688 34.5468 25.7826 34.9687C25.4569 35.7656 25.4103 36.9843 26.155 37.5C26.248 37.5937 26.4342 37.5 26.3877 37.3593C26.2946 36.6093 26.0153 36 26.3411 35.2031Z" fill="#588F8E"/>
<path d="M17.964 38.7656C17.8244 38.9531 17.6848 39.0469 17.4521 39.0938C17.1263 39.2813 16.9867 39.1875 16.9867 38.7656C16.8936 38.6719 16.8936 38.4844 16.8005 38.3906C16.6144 38.1094 16.3817 37.875 16.0559 37.8281C15.3578 37.6875 14.7528 38.4844 14.3339 39.1406C14.1943 38.5781 14.1478 37.875 13.3101 38.0156C12.7516 38.1094 12.7516 38.4844 12.5189 37.6406C12.2862 36.75 12.3327 35.6719 12.3327 34.7344C12.3327 34.4063 11.8208 34.3125 11.7743 34.6406C11.5416 35.7188 11.4019 36.75 11.3554 37.8281L11.1692 37.4531C11.0762 37.3125 10.89 37.2656 10.7969 37.3594C10.6573 37.4531 10.6573 37.6406 10.7504 37.7344C10.89 37.875 11.0296 38.0156 11.1692 38.1563C11.2158 38.2031 11.2623 38.2031 11.3089 38.2031C11.3089 38.4375 11.3089 38.6719 11.3089 38.9063C11.0296 38.7656 10.7969 38.5781 10.5177 38.2969C10.4712 38.25 10.4246 38.25 10.3781 38.2031C10.2385 38.1094 10.0988 38.0156 10.0523 37.875C9.95922 37.6406 10.0523 37.3594 10.0988 37.125C10.1454 36.8438 9.72653 36.7031 9.67999 36.9844C9.58691 37.3594 9.49383 37.8281 9.67999 38.2031C9.72653 38.2969 9.81961 38.4375 9.91268 38.5313C9.86615 38.625 9.91269 38.7656 10.0058 38.8594C10.5177 39.3281 10.9831 39.6563 11.6346 39.8906C11.8673 39.9844 12.1 39.75 12.1 39.5156C12.1 39.3281 12.1466 39.0938 12.1466 38.9063C12.1931 38.9531 12.1931 38.9531 12.2397 39C12.6585 39.2813 12.7516 38.9063 13.1239 38.9531C13.5428 39 13.5893 39.8906 13.9151 40.2188C14.0547 40.3594 14.3805 40.4063 14.5666 40.2188C14.8459 39.8906 15.1251 39.4688 15.4509 39.1406C15.9628 38.625 15.8232 38.625 16.149 39.2344C16.3351 39.6094 16.4282 39.9844 16.8471 40.1719C17.6848 40.5469 18.3363 39.7969 18.6155 39.0938C18.7086 38.7656 18.1967 38.5313 17.964 38.7656Z" fill="#588F8E"/>
<path d="M15.4044 32.7656C15.3113 32.625 15.0321 32.7656 15.1252 32.9062C15.5906 33.6093 15.8233 34.4062 15.7767 35.25C15.7302 36.0468 15.3113 36.6093 15.1252 37.3593C15.1252 37.4531 15.2183 37.5 15.2648 37.4531C16.661 36.5156 16.1956 33.9843 15.4044 32.7656Z" fill="#588F8E"/>
<path d="M14.6598 36.4687C14.6133 36.2344 14.2875 36.2344 14.2409 36.4687C14.1479 36.9844 14.1013 37.5469 14.1013 38.1094C14.1013 38.25 14.1944 38.4375 14.334 38.4375C14.3806 38.4375 14.4736 38.4375 14.5202 38.4375C14.6598 38.3906 14.7529 38.25 14.7529 38.1094C14.7994 37.5469 14.7063 36.9844 14.6598 36.4687Z" fill="#588F8E"/>
<path d="M9.91289 39.0938C9.81981 39 9.68019 39.0469 9.68019 39.1875C9.68019 39.0938 7.53938 39.0469 7.39976 39.0469C7.39976 39 7.39976 38.9063 7.39976 38.8594C7.07399 37.7344 4.97971 37.5938 5.07279 36.375C5.07279 36.1406 4.8401 36.0938 4.70048 36.2344C4.70048 35.9531 4.70048 35.7188 4.6074 35.4375C4.42124 34.6406 3.90931 33.75 4.18854 32.9531C4.23508 32.8594 4.09547 32.8125 4.00239 32.8594C3.58353 33.4688 3.58353 33.8906 3.72315 34.6406C3.86277 35.2969 4.04893 35.9063 4.04893 36.5625C4.04893 36.75 3.90931 37.3594 3.95585 37.6406C4.18854 38.7656 5.95704 39.8438 7.02745 39.6563C7.07399 39.6563 7.12053 39.6094 7.16706 39.5625C7.2136 39.5625 7.2136 39.6094 7.26014 39.6094C7.95823 39.75 8.79594 40.0313 9.49403 39.8906C9.91289 39.8438 10.2852 39.375 9.91289 39.0938Z" fill="#588F8E"/>
<path d="M36.8591 31.9218C37.0452 31.6875 36.7195 31.3594 36.5333 31.5937C35.4164 32.8125 34.5321 33.7969 34.5321 35.5312C34.5321 36.7969 34.5321 37.6875 33.6013 38.6718C33.229 39.0468 32.8567 39.4218 32.5309 39.8437C32.4844 39.5625 32.3913 39.3281 32.3448 39.0469C34.439 36.0937 34.346 31.7812 33.1359 28.5469C32.2982 26.2031 31.1813 24.0468 30.6228 21.6093C30.3436 20.2969 30.1109 19.0312 29.9713 17.6719C29.8782 16.5937 29.8782 15.375 29.3197 14.4375C29.2732 14.3437 29.1335 14.3437 29.087 14.4375C28.2958 16.1719 29.1801 18.75 29.5059 20.4844C29.9713 22.7812 30.4832 25.0781 31.1813 27.2812C31.8328 29.3906 32.5309 31.4531 32.4378 33.7031C32.3913 34.875 32.1121 36 31.7397 37.0781C31.3674 36.0468 31.0417 35.0156 30.7624 33.9843C30.6693 33.6562 30.297 33.6093 30.1109 33.75C30.2039 31.3594 29.1335 28.5 29.2266 26.5781C29.2266 26.4375 28.9939 26.4375 28.9939 26.5781C28.8078 28.2656 29.1801 29.8593 29.4128 31.5C29.692 33.375 29.5059 34.8281 28.7147 36.5156C28.6682 36.6562 28.8078 36.7969 28.9474 36.7031C29.5059 36.1875 29.8316 35.5312 30.0178 34.8281C30.0178 35.8125 30.0178 36.75 29.9713 37.7343C29.9713 38.0156 29.9247 38.3437 29.9247 38.625C29.8782 38.625 29.8316 38.6718 29.8316 38.7187C29.5989 38.9062 29.3662 39.1406 29.1335 39.3281C29.0405 38.9531 28.9008 38.625 28.5751 38.4375C28.0166 38.1093 26.3412 38.9531 26.8997 39.5156C26.7135 39.3281 26.4343 39.375 26.2946 39.6093C26.2481 39.6562 26.2481 39.7031 26.2016 39.75C26.1085 39.8906 26.1085 40.125 26.2016 40.2656L26.2481 40.3125L26.2016 40.3593C25.8292 39.8906 25.2708 39.6093 25.1777 38.9062C25.1312 38.625 24.7588 38.5312 24.5727 38.6718C23.8746 39.0937 24.34 36.8906 24.34 36.7031C24.4331 36.2812 24.5727 35.9062 24.6658 35.4843C24.8519 34.6406 24.9915 33.8437 24.8985 32.9531C24.8519 32.4375 24.1538 32.2968 23.9677 32.8125C23.5023 34.2656 23.13 35.7187 22.8042 37.2187C22.7111 37.5937 22.6646 37.9687 22.6646 38.25L22.618 38.2031C22.4784 38.1562 22.3388 38.2031 22.2457 38.3437C22.1526 38.5312 22.1526 38.7656 22.1992 38.9531C22.1992 38.9531 22.1992 38.9531 22.1526 38.9531C20.9892 38.2968 20.2911 37.0781 20.3376 35.7187C20.3376 35.2968 20.5703 34.9218 20.5703 34.5468C20.6168 34.0312 20.2445 33.5625 20.3376 33.0468C20.3376 33 20.2445 32.9531 20.2445 33C20.1049 33.6562 20.198 34.3593 20.1049 35.0156C20.0118 35.5312 19.9187 36 20.0118 36.5156C20.1514 37.4062 20.5703 38.1562 21.1753 38.7656C20.9426 38.7187 20.7565 38.6719 20.5238 38.625C19.9653 38.4375 19.593 38.2031 19.2207 37.8281C19.2672 37.7812 19.3137 37.6406 19.3137 37.5468C19.1276 36.7031 18.7087 35.9062 18.4295 35.0625C18.1503 34.125 18.0572 33.1406 18.0572 32.1562C18.0572 30 18.5691 27.9375 18.8018 25.8281C19.0345 23.7656 19.081 21.6562 18.8483 19.5469C18.6622 17.8125 17.6849 15.6562 18.2899 13.9219C18.3364 13.8281 18.1968 13.7812 18.1503 13.8281C17.4056 14.3906 17.4522 15.4219 17.6383 16.4062C17.4987 16.4531 17.3591 16.5 17.2195 16.5469C16.9868 16.6406 16.661 16.5937 16.4283 16.5469C16.2421 16.5 16.1025 16.7343 16.1025 16.9218C15.8698 16.875 15.6837 16.7812 15.4975 16.7344C14.3806 16.3125 13.2636 15.8437 12.1467 15.5625C11.6813 15.4219 11.1693 15.375 10.704 15.375C11.0763 15.0937 11.402 14.8125 11.7744 14.4844C12.9378 13.5 14.5202 13.7812 15.9629 13.6875C18.6622 13.5469 21.3149 13.2656 24.0142 13.3594C25.4104 13.4062 26.8066 13.5937 28.2028 13.875C28.8078 13.9687 29.4128 14.0625 30.0178 14.25C30.8555 14.5312 31.0882 15.0469 31.4605 15.75C31.3674 15.7031 31.2744 15.6094 31.1813 15.5625C31.0882 15.5156 30.9486 15.6094 30.9951 15.7031C31.2278 16.6406 32.624 17.2969 33.4617 16.8281C33.6013 16.7344 33.5548 16.5937 33.4152 16.5469C33.0429 16.4062 32.5775 16.3594 32.2051 16.1719C32.0655 16.125 31.9259 16.0312 31.7863 15.9375C31.8794 15.9375 31.9724 15.8906 32.0655 15.8437C32.1121 15.7969 32.1586 15.75 32.2051 15.7031C32.9963 16.125 33.8806 16.2187 34.6717 15.8437C34.8113 15.75 34.7183 15.5625 34.5787 15.5625C33.7875 15.5156 33.0894 15.5156 32.3913 15.2344C32.5775 14.1562 30.9951 13.2187 30.0178 13.0312C27.5512 12.5156 24.945 12.5625 22.4319 12.5156C19.8257 12.5156 17.2195 12.4687 14.6133 12.75C14.2875 12.7969 13.9617 12.8437 13.6825 12.9375C13.5894 12.8906 13.5429 12.8906 13.4963 12.8437C13.3102 12.7031 13.1705 12.4687 13.124 12.2344C13.0775 12 12.7051 12.0469 12.7517 12.2812C12.7982 12.6094 12.9378 12.8906 13.2171 13.125C12.8913 13.2656 12.5655 13.4062 12.2397 13.5937C12.1467 13.6406 12.0536 13.7344 11.9605 13.7812C11.8674 13.7812 11.7744 13.7812 11.6347 13.7812C11.309 13.7344 10.9366 13.5469 10.9832 13.1719C11.0297 12.8906 10.6109 12.7969 10.5643 13.0781C10.4713 13.6875 10.9366 14.1094 11.4486 14.2031C11.402 14.25 11.402 14.25 11.3555 14.2969C11.2624 14.3906 11.1228 14.4844 11.0297 14.5781C10.7505 14.5312 10.5178 14.5312 10.2386 14.4375C9.91278 14.3437 9.58701 14.2031 9.26123 13.9687C9.12161 13.875 9.02853 14.1094 9.12161 14.2031C9.49393 14.4844 10.0989 14.8125 10.6574 14.8594C10.6109 14.9062 10.6109 14.9062 10.5643 14.9531C10.4247 15.0937 10.2386 15.1875 10.0059 15.2344C9.35431 15.6094 8.84238 15.2344 8.5166 14.1094C8.60968 13.9219 8.2839 13.7812 8.19082 13.9687C7.77197 14.6719 8.14428 15.375 8.7493 15.7031C7.86505 15.9844 6.9808 16.4062 6.14309 16.9218C3.07149 18.7968 0.325669 21.7969 0.139512 25.5469C0.139512 25.6875 0.372209 25.7343 0.418748 25.5937C1.11684 22.0312 3.62996 19.2656 6.70156 17.5312C8.79584 16.3594 10.704 16.0312 12.9844 16.8281C13.9617 17.1562 14.939 17.5312 15.9164 17.9062C16.661 18.1875 17.3591 18.5625 18.1503 18.4687C18.3364 19.9687 18.3829 21.4687 18.2899 22.9219C18.2433 22.875 18.1968 22.8281 18.1037 22.7344C16.8937 21.8906 15.544 21.9843 14.1479 22.0781C12.3328 22.2187 10.4713 22.4531 8.70276 22.875C6.84118 23.2969 4.97961 23.7187 3.11803 24.2344C2.04763 24.5156 1.11684 24.9844 0.511827 25.875C0.465287 25.7812 0.372209 25.7812 0.27913 25.8281C-0.558579 26.9531 1.44261 27.9375 2.18724 28.2656C3.58343 28.875 5.39846 29.2031 6.79464 28.3594C6.7481 28.875 6.70156 29.3906 6.65502 29.8594C6.51541 31.125 6.28271 32.3906 6.23617 33.6562C6.14309 35.2031 6.42233 37.3593 7.91159 38.25C8.09775 38.3437 8.23736 38.2031 8.2839 38.0625C8.56314 38.3906 8.88892 38.5781 9.30777 38.5312C9.44739 38.5312 9.49393 38.3906 9.40085 38.2968C8.84238 37.7812 8.37698 37.4062 8.19082 36.6093C7.91159 35.7187 7.95813 34.7812 8.19082 33.8906C8.23736 33.6562 7.91159 33.5625 7.81851 33.7968C7.49273 34.8281 7.35312 35.9531 7.67889 36.9844C7.39965 36.5625 7.16696 36.1875 7.02734 35.6718C6.70156 34.6875 6.70156 33.6093 6.7481 32.5781C6.84118 30.6094 7.39966 28.7344 7.53927 26.8125C7.53927 26.5312 7.12042 26.4843 7.02734 26.7656C6.93426 27.0937 6.88772 27.4687 6.84118 27.7968C6.79464 27.7968 6.7481 27.7968 6.70156 27.7968C4.88653 28.4062 1.53569 28.3594 0.604905 26.2031C1.48915 25.0781 3.07149 24.6094 4.37459 24.2344C5.86385 23.8125 7.39965 23.5312 8.98199 23.3437C10.3782 23.1562 11.8209 23.0156 13.2171 22.9219C14.5667 22.8281 16.3352 22.5937 17.4987 23.5312C17.7779 23.7656 18.0572 23.6718 18.1968 23.4843C18.1037 24.2812 18.0106 25.0312 17.871 25.8281C17.8245 25.8281 17.8245 25.7812 17.7779 25.7812C17.5452 25.7344 17.4522 25.875 17.266 25.9687C17.0333 26.1094 16.7541 26.25 16.4748 26.3437C16.056 26.4844 15.544 26.3437 15.1717 26.5312C15.0787 26.1562 15.0787 25.7812 15.0321 25.4062C15.0321 25.3125 14.8925 25.2187 14.7994 25.3593C14.334 26.25 14.5202 27.3281 14.9856 28.2187C15.3579 28.9219 16.2421 30.0937 17.1264 29.8125C16.9402 30.8906 16.8471 32.0156 16.9402 33.0937C17.0333 34.3593 17.266 36.0468 18.1037 37.0781C18.0106 37.9218 18.476 38.625 19.1741 39.0937C19.1276 39.1406 19.0345 39.1406 18.9414 39.1875C18.7087 39.2812 18.8949 39.6094 19.081 39.5625C19.593 39.4219 20.0584 40.0312 20.5703 40.125C20.7099 40.125 20.8495 40.0312 20.803 39.8906C20.803 39.8437 20.7565 39.7969 20.7565 39.75C21.5942 39.9375 22.4319 39.8906 23.0369 39.6562C23.0834 39.75 23.13 39.8437 23.1765 39.8906C23.3161 40.125 23.6419 39.9375 23.5488 39.6562C23.4557 39.4218 23.4092 39.1406 23.4092 38.8125C23.6419 39.1875 23.9677 39.4218 24.3865 39.375C24.5727 40.0781 25.1312 40.6875 25.8292 40.875C25.7827 41.25 26.3877 41.3906 26.5273 40.9687C26.5739 40.8281 26.667 40.6875 26.76 40.5937C26.8066 40.5468 26.8066 40.5469 26.8531 40.5C26.8997 40.5 26.9462 40.5 26.9462 40.4531C27.272 40.3125 27.5977 40.2187 27.7839 39.8437C27.8304 39.7031 27.7839 39.0937 27.8304 39.5156C27.877 39.7969 27.877 40.125 27.9235 40.4062C27.9701 40.9687 28.5751 41.25 28.9939 40.875C29.1801 40.6875 29.4128 40.5 29.5989 40.3125C29.5989 40.5937 29.5989 40.8281 29.5989 41.1093C29.5989 41.4843 29.9713 41.8593 30.3901 41.7187C31.2278 41.3906 31.6932 40.6875 31.5071 39.8437C31.6001 39.75 31.6932 39.6562 31.7863 39.5625C31.9259 39.75 32.019 39.9375 32.1586 40.0781L32.2051 40.125C31.9724 40.5468 32.3913 40.9687 32.7636 40.875C32.624 41.1093 33.0429 41.3437 33.229 41.1093C34.0667 39.9375 35.1371 39.4219 36.3471 38.8125C36.4402 38.7656 36.3937 38.5781 36.3006 38.5781C35.2302 38.625 34.2529 39.2344 33.5082 39.9844C34.2063 39.0469 35.1837 38.2968 35.3698 37.0781C35.5094 36.3281 35.2767 35.625 35.3233 34.875C35.3698 33.8906 36.1144 32.8593 36.8591 31.9218ZM17.3591 17.5312C17.5452 17.4844 17.6849 17.4375 17.7779 17.3437C17.8245 17.5312 17.871 17.7187 17.9176 17.8593C17.7314 17.7187 17.5452 17.625 17.3591 17.5312ZM17.0798 29.5781C16.9402 29.3437 16.7541 29.25 16.5679 29.1093C16.1956 28.8281 15.8698 28.5 15.5906 28.0781C15.4044 27.8437 15.3113 27.5625 15.2183 27.2812C15.6371 27.4687 16.2887 27.3281 16.661 27.1875C16.9402 27.0937 17.4056 26.8594 17.6849 26.5781C17.4987 27.5625 17.266 28.5468 17.0798 29.5781ZM31.0417 38.9062C30.9951 38.8125 30.9486 38.6719 30.9486 38.5781C30.902 38.4375 30.902 38.25 30.902 38.1094C30.9951 38.2969 31.0417 38.4843 31.1347 38.7187C31.0882 38.7656 31.0417 38.8125 31.0417 38.9062Z" fill="#588F8E"/>
<path d="M13.0776 39.7969C12.7518 39.6562 12.5656 40.0781 12.3795 40.3125C12.2399 40.5 12.3795 40.7812 12.5656 40.875C12.7983 40.9687 13.031 40.8281 13.0776 40.6406C13.1241 40.5469 13.1706 40.4062 13.2172 40.2656C13.2637 40.0781 13.2172 39.8906 13.0776 39.7969Z" fill="#588F8E"/>
<path d="M16.1956 41.2969C15.6837 41.1094 15.5906 40.5469 15.451 40.125C15.4044 39.9844 15.2648 39.9375 15.1717 40.0313C14.5202 40.7344 15.3114 41.7188 16.056 41.9531C16.4283 42.0938 16.6145 41.4375 16.1956 41.2969Z" fill="#588F8E"/>
<path d="M19.7327 40.4531C19.5 40.4531 19.3604 40.5937 19.1743 40.7344C19.0346 40.875 18.8485 41.0156 18.7554 41.25C18.6158 41.5312 18.895 41.7656 19.1743 41.6719C19.3604 41.5781 19.5466 41.3906 19.6862 41.25C19.8258 41.0625 19.9654 40.9219 19.9654 40.6875C19.9189 40.5469 19.8258 40.4531 19.7327 40.4531Z" fill="#588F8E"/>
<path d="M21.827 38.2969C21.7804 38.1562 21.7804 38.0625 21.7339 37.9219C21.6873 37.7813 21.5477 37.7344 21.4547 37.7812C21.315 37.8281 21.315 37.9687 21.3616 38.0625C21.4081 38.1562 21.4547 38.2969 21.5012 38.3906C21.5943 38.625 21.8735 38.4844 21.827 38.2969Z" fill="#588F8E"/>
<path d="M21.5477 30.0469C21.315 31.2656 20.9892 32.625 21.1288 33.8437C21.1288 33.9375 21.2684 33.9844 21.315 33.8437C21.6408 32.625 21.5477 31.2656 21.6873 30.0469C21.6408 30 21.5477 29.9531 21.5477 30.0469Z" fill="#588F8E"/>
<path d="M19.2207 31.0781C19.1276 31.5468 18.9414 32.2031 19.1741 32.625C19.2207 32.7187 19.3603 32.6718 19.3603 32.5781C19.4068 32.3906 19.4068 32.1562 19.4068 31.9218C19.4068 31.6406 19.4534 31.4062 19.5464 31.125C19.593 30.9843 19.2672 30.8906 19.2207 31.0781Z" fill="#588F8E"/>
<path d="M30.7624 32.6719C30.7158 32.2969 30.6693 31.875 30.5762 31.5C30.5297 31.3125 30.2504 31.4063 30.297 31.5938C30.3435 31.9688 30.39 32.3438 30.4831 32.7188C30.5297 33.0469 30.5297 33.375 30.6693 33.6563C30.7158 33.7032 30.8089 33.7032 30.8089 33.6563C30.902 33.2813 30.8089 33 30.7624 32.6719Z" fill="#588F8E"/>
<path d="M15.5441 14.4844C15.2649 14.3906 14.9391 14.4844 14.6598 14.4844C14.3806 14.4844 14.1014 14.4375 13.7756 14.4844C13.6825 14.4844 13.6825 14.625 13.7291 14.6719C14.1479 15.0469 15.1252 15.1406 15.5906 14.8125C15.6837 14.6719 15.6837 14.4844 15.5441 14.4844Z" fill="#588F8E"/>
<path d="M17.1265 14.9531C16.8938 14.9062 16.7076 15.0468 16.5214 15.0937C16.2887 15.1875 16.0095 15.2343 15.7768 15.2343C15.4976 15.2343 15.4976 15.6562 15.7768 15.6562C16.056 15.6562 16.3353 15.6093 16.6145 15.5156C16.8472 15.4687 17.1265 15.375 17.2195 15.1406C17.2661 15.0937 17.2195 14.9531 17.1265 14.9531Z" fill="#588F8E"/>
</svg>
