<svg width="35" height="12" viewBox="0 0 35 12" fill="none" xmlns="http://www.w3.org/2000/svg">
<path d="M34.6407 5.09319L26.268 0.0995659C25.9242 -0.105418 25.4847 0.016266 25.2862 0.371294C25.0877 0.726396 25.2056 1.18039 25.5493 1.38545L31.6016 4.99512H0.718686C0.321756 4.99512 0 5.32758 0 5.73755C0 6.14744 0.321756 6.47997 0.718686 6.47997H31.5967L25.5493 10.0869C25.2055 10.292 25.0877 10.7459 25.2862 11.101C25.4194 11.3392 25.6609 11.4724 25.9093 11.4724C26.0312 11.4724 26.1548 11.4402 26.268 11.3728L34.6407 6.37907C34.863 6.24648 35 6.00133 35 5.73613C35 5.47094 34.863 5.22579 34.6407 5.09319Z" fill="white"/>
</svg>
