<svg width="18" height="18" viewBox="0 0 18 18" fill="none" xmlns="http://www.w3.org/2000/svg">
<path d="M15.364 2.63603C13.6641 0.936175 11.4039 1.99393e-06 9 1.57361e-06C6.59592 1.15327e-06 4.33589 0.936173 2.63603 2.63603C0.936172 4.33589 -1.15327e-06 6.59592 -1.57361e-06 9C-1.99393e-06 11.4039 0.93617 13.6641 2.63603 15.364C4.33589 17.0638 6.59591 18 9 18C11.4039 18 13.6641 17.0638 15.364 15.364C17.0638 13.6641 18 11.4039 18 9C18 6.59592 17.0638 4.33589 15.364 2.63603ZM4.51194 15.5527C4.88836 13.3853 6.76648 11.7867 9 11.7867C11.2337 11.7867 13.1116 13.3853 13.488 15.5527C12.2102 16.4306 10.6642 16.9453 9 16.9453C7.33584 16.9453 5.78979 16.4306 4.51194 15.5527ZM6.13833 7.87033C6.13834 6.29228 7.42209 5.00867 9 5.00867C10.5779 5.00867 11.8617 6.29242 11.8617 7.87033C11.8617 9.44824 10.5779 10.732 9 10.732C7.42209 10.732 6.13833 9.44824 6.13833 7.87033ZM14.4016 14.8211C14.1177 13.8122 13.554 12.8967 12.7638 12.1816C12.279 11.7429 11.7272 11.3967 11.134 11.1526C12.2062 10.4532 12.9165 9.24321 12.9165 7.87033C12.9165 5.71083 11.1595 3.95398 9 3.95398C6.8405 3.95398 5.08365 5.71083 5.08365 7.87033C5.08365 9.24321 5.79391 10.4532 6.86604 11.1526C6.27292 11.3967 5.72099 11.7427 5.23622 12.1815C4.44616 12.8966 3.88229 13.812 3.59843 14.821C2.03494 13.369 1.05469 11.297 1.05469 9C1.05469 4.61893 4.61893 1.05469 9 1.05469C13.3811 1.05469 16.9453 4.61893 16.9453 9C16.9453 11.2971 15.9651 13.3691 14.4016 14.8211Z" fill="#588F8E"/>
</svg>
