<svg width="14" height="15" viewBox="0 0 14 15" fill="none" xmlns="http://www.w3.org/2000/svg">
<path d="M13.095 5.91551L8.1245 0.944981C7.61066 0.431115 6.77447 0.431085 6.26057 0.944981C5.79862 1.4069 5.75884 2.11141 6.09997 2.61446L6.09306 2.64906C5.7347 4.441 4.86227 6.07119 3.57001 7.36342L1.29016 9.64327C0.775067 10.1584 0.77498 10.9921 1.29016 11.5072L2.53276 12.7498C3.04783 13.2649 3.88156 13.2649 4.39668 12.7498L4.70735 12.4391L6.88193 14.6137C7.39703 15.1288 8.2307 15.1289 8.74582 14.6137C9.25972 14.0998 9.25972 13.2637 8.74582 12.7498L7.81386 11.8179L8.12453 11.5072C8.63962 10.9921 8.63968 10.1585 8.12453 9.6433L7.91341 9.43216C8.95196 8.70504 10.1314 8.19882 11.391 7.9469L11.426 7.93989C11.9403 8.28709 12.6431 8.23128 13.095 7.77938H13.0951C13.6089 7.26554 13.6089 6.42941 13.095 5.91551ZM3.77538 12.1285C3.6037 12.3001 3.32574 12.3002 3.15406 12.1285L1.91146 10.8859C1.73975 10.7141 1.73975 10.4363 1.91146 10.2646L4.08602 8.08998L5.94994 9.9539C5.73719 10.1667 3.99338 11.9105 3.77538 12.1285ZM8.1245 13.3711C8.29577 13.5424 8.29577 13.8211 8.1245 13.9924C7.95323 14.1637 7.67447 14.1637 7.5032 13.9924L5.32861 11.8178L5.94994 11.1965L8.1245 13.3711ZM6.57124 10.5752C6.70331 10.4431 6.901 10.2408 7.21301 9.97435L7.5032 10.2646C7.67491 10.4363 7.67491 10.7141 7.5032 10.8859L7.19254 11.1965L6.57124 10.5752ZM6.5899 9.3513L4.6886 7.44999C5.70751 6.27346 6.43718 4.88464 6.82756 3.37586L10.664 7.21234C9.15525 7.60269 7.76646 8.33235 6.5899 9.3513ZM12.4736 7.15805C12.3019 7.32973 12.024 7.32973 11.8523 7.15805L6.88187 2.18758C6.71016 2.01584 6.71016 1.73799 6.88187 1.56628C7.05358 1.39457 7.33149 1.39457 7.5032 1.56628L12.4736 6.53672C12.6449 6.70802 12.6449 6.98672 12.4736 7.15805Z" fill="#588F8E"/>
</svg>
