<svg width="15" height="15" viewBox="0 0 15 15" fill="none" xmlns="http://www.w3.org/2000/svg">
<g clip-path="url(#clip0_416_7009)">
<path d="M13.095 5.91551L8.12448 0.944981C7.61064 0.431115 6.77445 0.431085 6.26056 0.944981C5.79861 1.4069 5.75882 2.11141 6.09995 2.61446L6.09304 2.64906C5.73468 4.441 4.86225 6.07119 3.57 7.36342L1.29015 9.64327C0.775052 10.1584 0.774964 10.9921 1.29015 11.5072L2.53274 12.7498C3.04781 13.2649 3.88154 13.2649 4.39667 12.7498L4.70733 12.4391L6.88192 14.6137C7.39701 15.1288 8.23068 15.1289 8.74581 14.6137C9.2597 14.0998 9.2597 13.2637 8.74581 12.7498L7.81385 11.8179L8.12451 11.5072C8.63961 10.9921 8.63967 10.1585 8.12451 9.6433L7.9134 9.43216C8.95194 8.70504 10.1314 8.19882 11.391 7.9469L11.426 7.93989C11.9402 8.28709 12.6431 8.23128 13.095 7.77938H13.095C13.6088 7.26554 13.6088 6.42941 13.095 5.91551ZM3.77537 12.1285C3.60369 12.3001 3.32572 12.3002 3.15404 12.1285L1.91145 10.8859C1.73974 10.7141 1.73974 10.4363 1.91145 10.2646L4.086 8.08998L5.94992 9.9539C5.73717 10.1667 3.99337 11.9105 3.77537 12.1285ZM8.12448 13.3711C8.29575 13.5424 8.29575 13.8211 8.12448 13.9924C7.95321 14.1637 7.67445 14.1637 7.50318 13.9924L5.3286 11.8178L5.94992 11.1965L8.12448 13.3711ZM6.57122 10.5752C6.70329 10.4431 6.90099 10.2408 7.213 9.97435L7.50318 10.2646C7.67489 10.4363 7.67489 10.7141 7.50318 10.8859L7.19252 11.1965L6.57122 10.5752ZM6.58988 9.3513L4.68858 7.44999C5.70749 6.27346 6.43716 4.88464 6.82754 3.37586L10.664 7.21234C9.15523 7.60269 7.76644 8.33235 6.58988 9.3513ZM12.4736 7.15805C12.3019 7.32973 12.024 7.32973 11.8523 7.15805L6.88186 2.18758C6.71015 2.01584 6.71015 1.73799 6.88186 1.56628C7.05357 1.39457 7.33148 1.39457 7.50318 1.56628L12.4736 6.53672C12.6449 6.70802 12.6449 6.98672 12.4736 7.15805Z" fill="white"/>
<path d="M4.39663 9.64308C4.2251 9.47151 3.94689 9.47151 3.77533 9.64308L3.15403 10.2644C2.98247 10.4359 2.98247 10.7141 3.15403 10.8857C3.32557 11.0572 3.6038 11.0572 3.77533 10.8857L4.39663 10.2644C4.56819 10.0928 4.56819 9.81464 4.39663 9.64308Z" fill="white"/>
<path d="M10.1423 0C9.89963 0 9.70293 0.196699 9.70293 0.439335V1.31801C9.70293 1.56064 9.89963 1.75734 10.1423 1.75734C10.3849 1.75734 10.5816 1.56064 10.5816 1.31801V0.439335C10.5816 0.196699 10.3849 0 10.1423 0Z" fill="white"/>
<path d="M13.6569 3.51465H12.7782C12.5356 3.51465 12.3389 3.71135 12.3389 3.95398C12.3389 4.19662 12.5356 4.39332 12.7782 4.39332H13.6569C13.8996 4.39332 14.0963 4.19662 14.0963 3.95398C14.0963 3.71135 13.8995 3.51465 13.6569 3.51465Z" fill="white"/>
<path d="M13.0889 1.00733C12.9174 0.835772 12.6392 0.835772 12.4676 1.00733L11.589 1.886C11.4174 2.05757 11.4174 2.33574 11.589 2.5073C11.7605 2.67886 12.0387 2.67889 12.2103 2.5073L13.0889 1.62863C13.2605 1.45707 13.2605 1.17893 13.0889 1.00733Z" fill="white"/>
</g>
<defs>
<clipPath id="clip0_416_7009">
<rect width="15" height="15" fill="white"/>
</clipPath>
</defs>
</svg>
