<svg width="35" height="38" viewBox="0 0 35 38" fill="none" xmlns="http://www.w3.org/2000/svg">
<g clip-path="url(#clip0_416_5196)">
<path d="M27.867 0.656276C27.8066 0.71593 27.9274 0.775585 27.9879 0.71593C28.0483 0.596621 28.0483 0.477312 28.0483 0.358002C27.9879 0.238693 27.867 0.298348 27.9275 0.417657C27.9275 0.477312 27.9274 0.536966 27.867 0.656276Z" fill="white"/>
<path d="M27.7461 33.9435C27.9275 33.7049 27.7461 33.2873 27.5043 33.2277C26.7789 33.1084 25.9326 32.9891 25.2073 33.168C25.5699 32.9294 25.9326 32.5118 26.0535 32.1539C27.5043 32.3925 29.8618 31.617 29.4991 30.1853C29.2573 29.2905 28.1088 29.2905 27.3834 29.1712C26.5976 29.1115 25.6908 28.8729 24.8446 28.8729C24.9655 28.8132 25.0864 28.8132 25.1468 28.7536C26.4162 28.336 27.7461 28.157 29.076 28.157C29.1969 28.157 29.3178 28.0974 29.3782 27.9781C29.6805 27.2026 31.6753 26.6657 31.0104 25.5919C30.4059 24.6374 27.9275 25.234 27.0812 25.4726C27.0207 25.4726 27.0207 25.5322 26.9603 25.5322C26.8998 25.4726 26.8998 25.4726 26.8394 25.4129C28.1088 25.234 30.285 24.6971 29.9223 23.3847C30.285 23.3847 30.8895 23.5636 31.1917 23.4443C31.6149 23.2654 31.8566 22.8478 32.038 22.4302C32.2193 21.953 32.0984 21.595 32.2193 21.0581C32.2798 20.7002 32.4611 20.5809 32.2798 20.223C31.7962 19.4475 29.9827 19.865 29.2573 19.9247C29.076 19.9247 28.8342 19.9844 28.6528 19.9844C28.8946 19.865 29.1969 19.7457 29.4991 19.6264C29.9223 19.5071 30.3454 19.4475 30.829 19.3282C31.6753 19.0895 32.4611 18.7913 33.1261 18.1351C33.5492 17.7175 34.3955 16.584 33.9119 16.0471C34.0328 16.0471 34.1537 15.9875 34.2746 15.9875C34.3351 15.9875 34.3955 15.8085 34.2746 15.8085C33.5492 15.6296 32.7634 15.7489 32.038 15.8085C31.3731 15.8682 30.7081 15.9278 29.9827 16.0471C29.5596 15.8085 29.076 15.6296 28.532 15.4506C29.4387 15.1523 30.3454 14.8541 31.1917 14.4365C32.038 14.0785 32.4007 13.4223 32.6425 12.5872C32.7029 12.4679 32.6425 12.3486 32.582 12.2293C31.3126 10.9765 29.8618 10.7379 28.2902 10.7379C28.4111 10.6186 28.4715 10.4993 28.5924 10.38C28.7133 10.2606 28.7737 10.1413 28.8946 10.022C28.9551 10.1413 29.076 10.2606 29.2573 10.201C29.8618 10.022 30.5268 10.201 31.1313 10.3203C31.7962 10.4396 32.4611 10.4993 33.1261 10.5589C33.4283 10.6186 33.7306 10.6186 34.0328 10.6782C34.5769 10.7379 34.6373 10.5589 34.1537 10.7975C33.6701 11.0362 33.0052 11.3941 32.582 11.752C32.2798 12.0503 32.6425 12.4679 33.0052 12.3486C33.791 12.0503 34.7582 11.6924 35.1813 10.8572C35.3627 10.4993 35.3022 10.1413 34.9395 9.96238C34.6373 9.84307 34.2142 9.90272 33.9119 9.90272C33.3074 9.90272 32.7029 9.90272 32.0984 9.84307C31.2522 9.72376 30.1641 9.36583 29.3178 9.60445C29.4387 9.42548 29.62 9.24652 29.7409 9.12721C29.9223 9.0079 30.0432 8.82894 30.2245 8.70963C31.1313 8.82894 32.3402 8.47101 32.8238 7.87446C33.3074 7.27792 34.2746 6.02517 33.9724 5.19001C33.9119 5.13035 33.8515 5.0707 33.7306 5.0707C33.3074 5.0707 32.9447 5.36897 32.6425 5.54793C32.038 5.90586 31.4335 6.14448 30.7686 6.32344C30.6477 6.3831 30.6477 6.56206 30.7686 6.62172C31.7962 6.68137 32.582 5.84621 33.5492 5.66724C33.6701 6.44275 32.3402 7.81481 31.7962 7.99377C31.4335 8.11308 31.0104 8.11308 30.6477 8.17274C30.8895 7.57619 30.6477 6.91999 30.285 6.3831C30.4059 6.26379 30.5268 6.20414 30.6477 6.08483C31.0104 5.84621 31.4335 5.60759 31.7962 5.36897C32.0984 5.24966 31.8566 4.77242 31.5544 4.95139C31.1313 5.19001 30.7081 5.42863 30.285 5.66724C30.1641 5.7269 30.0432 5.84621 29.9223 5.90586C29.8014 5.78655 29.6805 5.66724 29.5596 5.54793L29.4991 5.48828C29.8014 4.89173 30.3454 4.4145 30.8895 4.05657C30.829 3.63899 31.1313 3.40037 31.4335 3.40037C32.038 3.40037 31.7962 4.05657 31.7962 4.35484C31.7962 4.4145 31.8566 4.4145 31.9171 4.4145C32.5216 3.81795 32.4007 2.68451 31.3731 2.86348C30.829 2.92313 30.3454 3.28106 29.9223 3.63899C30.2245 2.68451 30.2245 1.67038 29.1969 1.13349C28.4715 0.775565 27.8066 1.13349 27.323 1.67038C27.4439 1.43177 27.6252 1.19315 27.8066 0.954529C27.2625 1.55107 26.658 2.14762 26.1744 2.80382C26.2349 2.38624 26.2953 2.02831 26.4767 1.67038C26.4767 1.61073 26.4767 1.55107 26.4767 1.49142C26.5371 1.2528 26.5976 0.954529 26.7185 0.71591C26.9603 0.298328 27.4439 0.357982 27.867 0.298328C27.9879 0.298328 27.9879 0.119364 27.9275 0.119364C27.5043 -0.119255 26.9603 0.0597092 26.5976 0.357982C26.2349 0.596601 26.0535 0.894874 25.9931 1.2528C25.8722 0.954528 25.6908 0.775565 25.2677 0.656255C24.3005 0.417637 23.5147 1.49142 23.0311 2.26693C22.9706 2.02831 22.8497 1.84935 22.7893 1.67038C22.1848 0.298328 20.3713 1.2528 20.3109 2.50555C20.3109 2.5652 20.3109 2.5652 20.3109 2.62486C19.2832 2.5652 19.1019 3.7583 18.9206 4.53381C18.8601 4.83208 18.7997 5.13035 18.7392 5.48828C18.6183 5.13035 18.437 4.77242 18.1952 4.53381C18.0138 4.35484 17.8929 4.17588 17.8325 3.87761C17.772 3.7583 17.772 3.57933 17.7116 3.40037C17.6511 3.28106 17.5907 3.16175 17.4698 3.04244C17.4698 2.92313 17.4093 2.80382 17.4093 2.68451C17.4093 2.62486 17.2884 2.62486 17.2884 2.68451C17.2884 2.74417 17.2884 2.80382 17.2884 2.92313C17.2884 2.92313 17.228 2.92313 17.228 2.86348C17.1675 2.86348 17.1071 2.92313 17.1675 2.92313C17.228 2.98279 17.2884 3.1021 17.2884 3.16175C17.2884 3.63899 17.3489 4.11622 17.4093 4.65312C16.8653 4.65312 16.563 5.13035 16.0794 5.36897C16.0794 5.19001 16.0794 5.01104 16.1399 4.89173C16.2003 4.59346 16.2608 4.23553 16.3212 3.93726C16.3817 3.69864 16.8048 2.44589 17.1071 2.5652C17.2884 2.62486 17.3489 2.38624 17.228 2.32658C16.2608 1.67038 15.5959 4.23553 15.5354 4.77242C15.5354 4.95139 15.4145 5.30932 15.4145 5.60759C15.1123 5.60759 14.6891 5.60759 14.3869 5.7269C14.2055 5.48828 14.1451 5.19001 14.0242 4.95139C13.8428 4.59346 13.2383 4.23553 12.8152 4.17588C12.8152 4.17588 12.7547 4.17588 12.6943 4.17588C12.5734 4.17588 12.513 4.29519 12.513 4.35484C12.6339 4.89173 13.2988 4.89173 13.5406 5.42863C13.6615 5.7269 13.7824 5.90586 13.9033 6.08483C13.7219 6.3831 13.8428 6.80068 13.8428 7.15861C13.8428 7.75516 13.601 8.29205 13.7219 8.88859C13.7824 9.18687 13.7824 9.36583 13.7824 9.6641C13.7824 9.72376 13.7824 9.78341 13.7824 9.78341C13.7824 9.72376 13.7219 9.6641 13.7219 9.60445C13.7219 9.42548 13.6615 9.24652 13.601 9.0079C13.4801 8.53067 13.2383 6.97965 12.5734 6.68137C12.513 6.02517 12.2107 5.36897 12.5734 4.71277C12.6943 4.4145 12.513 4.17588 12.2712 4.29519C11.5458 4.71277 11.304 5.66724 11.5458 6.44275C10.7599 6.68137 10.6995 7.57619 10.639 8.29205C10.5786 9.12721 10.6995 10.0817 11.1831 10.7975C10.8204 10.7975 10.3972 10.9169 10.0345 11.0362C9.91364 11.0362 9.79275 11.1555 9.7323 11.2748C9.67185 11.2748 9.67185 11.2748 9.6114 11.3344C9.4905 11.4537 9.3696 11.752 9.2487 12.1696C9.18826 12.1099 9.12781 12.0503 9.12781 11.9906C9.06736 11.931 9.00691 11.8713 8.94646 11.752C8.82556 11.1555 8.88601 10.6186 9.00691 9.84307C9.18826 8.76928 8.03972 8.05343 7.31434 7.45688C7.19344 7.39723 7.01209 7.39723 6.89119 7.51654C6.10535 8.41136 5.68221 9.6641 5.98446 10.7975C4.83592 10.7379 4.11054 11.9906 4.17098 13.0048C4.17098 13.7206 4.47323 14.3768 4.65458 15.033C4.71503 15.212 4.77547 15.3313 4.83592 15.5103C4.41278 14.7944 3.68739 13.9592 2.962 13.7206H2.90155C2.84111 13.5417 2.65976 13.482 2.47841 13.6013C1.87392 14.0189 1.57167 14.5558 1.63212 15.3313V15.3909C1.26943 15.5699 1.02763 16.2261 1.20898 16.7033C1.26943 16.942 1.45078 17.1806 1.57167 17.4192C1.75302 17.7771 1.93437 18.1947 2.05527 18.5526C2.11572 18.7316 2.17617 18.9106 2.17617 19.0895C1.99482 18.8509 1.81347 18.5526 1.63212 18.4333V18.3737L1.57167 18.2544C1.51123 18.1351 1.39033 18.0754 1.20898 18.0754C0.362694 18.314 -0.120899 19.2088 0.120898 20.044C0.181347 20.2826 0.362694 20.4616 0.423143 20.7002C0.544041 20.9985 0.60449 21.2968 0.725388 21.5354C0.906735 21.953 1.20898 22.3705 1.51123 22.7285C1.75302 22.9671 2.17617 22.8478 2.23661 22.5495C2.35751 22.1916 2.23661 22.0126 2.05527 21.774C1.75302 21.4161 1.57167 21.2371 1.39033 20.7599C1.26943 20.4019 0.967184 20.1037 0.846286 19.7457C0.785837 19.3878 0.906735 19.1492 1.08808 18.9106C1.20898 19.0895 1.39033 19.3282 1.57167 19.5071C1.87392 19.865 2.11572 20.223 2.35751 20.6406C2.59931 20.9985 2.962 21.2371 3.0829 21.6547C3.2038 22.0723 3.14335 22.5495 3.14335 22.9671C3.14335 23.0267 3.14335 23.0864 3.2038 23.0864C3.14335 23.0864 3.14335 23.146 3.0829 23.2057C2.72021 22.9671 2.35751 22.9074 1.99482 22.9671C1.99482 22.9074 1.87392 22.8478 1.81347 22.9074C1.39033 23.2654 1.20898 23.8619 1.32988 24.3988C1.20898 24.4585 1.20898 24.5181 1.20898 24.5181C1.14853 25.234 1.32988 25.8902 1.63212 26.4867C1.81347 26.9043 2.11572 27.5605 2.53886 27.8588C2.35751 28.3957 2.59931 28.9922 3.0829 29.4694C3.56649 29.9467 4.53368 30.6625 5.31952 30.8415C5.25907 30.9012 5.19862 31.0801 5.25907 31.1398C5.62176 31.617 6.0449 32.0942 6.46805 32.5715C6.5285 32.6311 7.19344 33.7646 7.49568 33.9435C8.10017 34.3015 8.88601 34.3611 9.55095 34.719C10.3368 35.1366 11.2435 35.7928 12.0898 35.7332C12.2712 36.2104 12.9361 36.5683 13.3592 36.5683C13.4197 36.5683 13.5406 36.5087 13.601 36.5087C13.8428 36.6876 14.0242 36.807 14.266 36.9859C14.5682 37.2245 14.9309 37.4035 15.1727 37.6421C15.2936 37.7614 15.3541 37.8807 15.475 37.9404C16.0794 38.2983 16.6235 37.9404 17.1071 37.4632C17.1675 37.5228 17.228 37.5825 17.2884 37.5825C17.9534 37.7018 18.7392 37.9404 19.4041 37.8807C20.0086 37.8211 20.7945 37.2842 21.0363 36.7473C21.0967 36.5683 21.0363 36.3894 20.9758 36.2701C21.3385 36.2701 21.7012 36.2701 22.0639 36.2701C22.7893 36.2701 23.4542 36.1508 23.9378 35.6139C23.9983 35.5542 23.9983 35.3752 23.9378 35.3156C25.5699 35.3752 26.7789 35.077 27.7461 33.9435ZM27.5043 30.0063C27.8066 30.066 28.8946 30.066 28.2297 30.8415C28.1088 31.0205 27.5043 31.0801 27.2625 31.1398C26.658 31.3187 26.114 31.2591 25.5699 31.2591C25.5699 31.2591 25.5699 31.2591 25.5095 31.2591C25.5095 31.2591 25.5095 31.1994 25.449 31.1994C24.7237 30.6029 23.8169 29.887 22.9102 29.4694C23.0311 29.4694 23.0915 29.4098 23.2124 29.4098C23.2124 29.4694 23.2729 29.4694 23.3333 29.4694C24.6632 29.5291 26.114 29.8274 27.5043 30.0063ZM7.67703 27.5008C7.61658 27.5605 7.55613 27.6201 7.49568 27.6798C7.49568 27.6798 7.43523 27.7395 7.37478 27.8588C7.37478 27.9184 7.31434 27.9184 7.31434 27.9781C7.19344 27.9184 7.07254 27.8588 6.95164 27.7991C6.46805 27.5605 5.68221 27.2026 5.07772 27.2622C5.25907 26.6657 4.77547 25.9498 4.53368 25.1743C4.35233 24.7567 4.05009 24.1602 3.62694 23.6829C4.23143 23.504 4.83592 23.7426 5.37996 24.1602C5.74266 24.4585 6.10535 24.9953 6.5285 25.2936C6.6494 25.7709 6.95164 26.2481 7.25389 26.606C7.43523 26.785 7.67703 27.0236 7.91883 27.1429C7.85838 27.2026 7.85838 27.2622 7.79793 27.3219C7.91883 27.2622 7.67703 27.4412 7.67703 27.5008ZM14.8705 11.6327C14.81 11.8117 14.6891 11.9906 14.6287 12.2293C14.4473 12.0503 14.3264 11.931 14.1451 11.8117C14.2055 11.752 14.2055 11.752 14.2055 11.6924C14.3264 11.3344 14.1451 10.9169 14.0846 10.5589C14.0242 10.38 13.9637 10.1413 13.9033 9.96238C13.9637 10.022 14.1451 10.0817 14.2055 10.022C14.5078 9.96238 14.81 9.90272 15.0518 9.78341C15.0518 9.84307 15.0518 9.90272 15.0518 9.96238C15.0518 10.2606 15.1123 10.5589 15.3541 10.7975C15.1123 11.0362 14.9309 11.3941 14.8705 11.6327ZM13.8428 12.7661C14.2055 13.1241 14.81 13.7206 14.9309 14.2575C15.1123 14.9734 14.6287 14.7347 14.0242 14.7944C13.7219 14.7944 13.3592 14.9734 13.057 14.9137C12.7547 15.0927 12.513 15.033 12.2712 14.7347C12.1503 14.4365 12.0294 14.1979 11.848 13.8996C11.4853 13.1837 11.1831 12.4082 10.7599 11.6924C11.9085 11.6327 12.9361 11.931 13.8428 12.7661ZM19.4041 6.68137C19.8877 6.62172 20.3109 6.56206 20.7945 6.50241C21.2176 6.44275 21.5803 6.50241 22.0035 6.50241C22.0035 7.0393 21.943 7.51654 21.943 7.99377C21.7012 7.99377 21.5199 8.05343 21.3385 8.05343C20.5527 8.29205 19.8273 9.0079 19.2832 9.72376C19.3437 9.24652 19.1623 8.76928 18.9206 8.29205C19.0415 7.87446 19.1019 7.45688 19.1623 7.0393C19.1623 6.86034 19.2228 6.74103 19.2228 6.56206C19.2832 6.68137 19.3437 6.68137 19.4041 6.68137ZM19.3437 6.20414C19.4041 5.96552 19.4041 5.7269 19.4646 5.48828C19.525 5.0707 19.525 4.35484 19.7064 3.99691C20.19 3.2214 20.6736 3.40037 21.2176 3.87761C21.7012 4.29519 21.8826 4.59346 21.943 5.24966C21.943 5.36897 21.943 5.54793 21.943 5.66724C21.0967 5.48828 20.0691 5.84621 19.3437 6.20414ZM12.9965 17.7771C12.9361 17.8964 12.8756 18.0157 12.8152 18.0754C12.8152 17.8964 12.8152 17.7175 12.8152 17.5385C12.8152 17.1209 12.2712 17.0613 12.1503 17.4192C12.1503 17.4789 12.0898 17.4789 12.0898 17.5385C12.0294 17.4192 12.0294 17.2999 11.9689 17.1806C11.9689 16.8227 12.0898 16.4647 12.2107 16.1068C12.2712 16.1068 12.3316 16.1068 12.3316 16.1068C13.1779 15.8085 13.9637 15.6892 14.81 15.6892C14.9309 15.6892 14.9914 15.6892 15.1123 15.6892C15.1123 15.8682 15.1123 16.1068 15.1123 16.2858C15.1123 16.4647 15.1727 16.6437 15.2332 16.8227C14.4473 16.7033 13.7219 16.8227 12.9965 17.2999C12.8756 17.3595 12.8756 17.6578 12.9965 17.7771ZM18.4974 18.0754C18.2556 17.8964 18.0138 17.7771 17.7116 17.5982H17.772C18.0138 17.6578 18.3765 17.4789 18.6183 17.4192C18.7392 17.3595 18.8601 17.3595 18.981 17.2999C18.981 17.6578 19.1019 18.0158 19.1623 18.314C19.2228 18.4333 19.2832 18.6123 19.4041 18.7316C19.0414 18.493 18.6788 18.2544 18.4974 18.0754ZM19.4646 20.223C20.0691 20.6406 20.1295 21.1774 19.6459 21.8933C19.2832 21.8933 18.981 21.8933 18.6183 21.8933C17.8325 21.8933 17.2884 22.0126 16.6839 21.4757C16.1399 20.9985 15.6563 20.223 15.2936 19.6264C14.8705 19.0299 14.5682 18.314 14.2055 17.7175C15.4145 17.4789 16.7444 18.1351 17.772 18.7913C18.2556 19.1492 19.1019 19.6264 19.4646 20.223ZM19.1623 16.763C19.1019 16.763 19.1019 16.763 19.0415 16.763C18.8601 16.763 18.6788 16.8823 18.4974 16.8823C18.3161 16.942 18.0138 16.942 17.8325 17.0613V17.0016C17.8325 16.763 17.8325 16.5244 17.8929 16.2261C17.8929 16.1665 17.8325 16.1665 17.8325 16.2261C17.772 16.4647 17.7116 16.7033 17.6511 16.942C17.6511 17.0613 17.6511 17.1209 17.6511 17.2402C17.6511 17.2402 17.6511 17.2402 17.6511 17.2999C17.6511 17.2999 17.6511 17.2999 17.6511 17.3595C17.3489 17.0613 16.8653 16.942 16.6235 16.584C16.4421 16.4051 16.3212 16.1665 16.1399 16.1068C16.1399 15.8682 16.1399 15.5699 16.0794 15.3313C16.5026 14.6751 15.8377 13.7206 15.5354 13.2434C15.4145 13.1241 15.3541 12.9451 15.2332 12.8258C15.2936 12.6468 15.3541 12.4679 15.4145 12.2889C15.5354 13.1837 16.4421 14.0189 16.9257 14.9137C17.228 15.3909 17.4093 16.2261 18.1347 16.2858C18.3161 16.2858 18.437 16.1665 18.6183 16.1068C18.9206 15.9278 19.1623 15.6892 19.525 15.5699C20.0691 15.3909 20.5527 15.5699 21.0363 15.5103C21.1572 15.5103 21.2781 15.5103 21.399 15.4506V15.5103C21.399 15.7489 21.3385 15.9278 21.2176 16.1068C21.1572 16.2261 21.0363 16.4647 20.9758 16.7033C20.3109 16.5244 19.4646 16.4051 19.1623 16.763ZM13.4801 17.8964C13.5406 17.8964 13.5406 17.8368 13.601 17.8368C13.8428 18.672 14.3264 19.4475 14.7496 20.1633C15.1727 20.8792 15.8377 22.1319 16.563 22.4898C17.228 22.8478 18.0743 22.7285 18.8601 22.6092C18.7997 22.7285 18.7997 22.9074 18.8601 23.0267C17.9534 23.325 17.0466 23.7426 16.2608 24.3391C16.2608 24.2795 16.2608 24.2198 16.2608 24.2198C16.2608 24.0409 16.3212 23.8619 16.3212 23.6233C16.3212 23.3847 16.2003 23.2057 16.0794 22.9671C15.7772 22.4898 15.4145 22.0126 15.1123 21.5354C14.8705 21.1178 14.4473 20.8195 14.1451 20.4616C13.7824 20.044 13.6615 19.6264 13.1779 19.4475C13.2383 18.9106 13.2988 18.4333 13.4801 17.8964ZM18.3161 24.1602C18.5579 24.0409 18.7392 23.9812 18.981 23.9216C19.5855 24.9357 20.0691 25.9498 20.6736 26.9639C19.5855 25.9498 18.0138 25.2936 16.4421 24.876C17.1071 24.6971 17.6511 24.4585 18.3161 24.1602ZM20.9154 28.5746C19.5855 28.8729 16.8653 29.1712 16.0794 28.5746C15.475 28.0974 15.2936 27.1429 14.8705 26.5464C14.5682 26.0691 14.2055 25.6515 13.8428 25.234C16.3212 25.7112 19.525 26.606 20.9154 28.5746ZM21.399 26.606C20.6131 25.7112 20.4318 24.5778 19.525 23.8023C20.4318 23.5636 21.2781 23.6233 22.3661 23.9216C23.3333 24.2198 24.4214 24.5181 25.2073 25.1147C25.5699 25.4129 25.8117 25.6515 26.114 25.8305C25.8722 26.4271 24.5423 26.3674 23.9983 26.4867C23.0915 26.785 22.3057 27.6201 21.399 26.606ZM21.2781 19.8054C20.7945 19.3282 20.2504 19.0299 19.9482 18.3737C19.8877 18.1351 19.7668 17.8964 19.7064 17.6578C20.1295 17.5982 20.5527 17.5385 20.9758 17.4192C21.2781 17.4192 21.5803 17.5982 21.8826 17.6578C22.6079 17.8368 23.3938 17.9561 24.0587 18.1351C24.9655 18.4333 25.2677 18.5526 25.6908 19.4475C26.1744 20.5212 26.2953 20.223 25.6304 20.4019C24.4819 20.7599 23.152 20.5809 21.943 20.9388C21.943 20.5212 21.7012 20.1633 21.2781 19.8054ZM24.5423 17.7771C23.5751 17.3595 22.5475 17.0016 21.5199 16.8227C21.5803 16.6437 21.5803 16.5244 21.6408 16.4051C21.6408 16.3454 21.7012 16.2261 21.7012 16.1665C22.9102 16.0471 24.1192 15.8085 25.3282 15.7489C24.9655 16.584 24.7841 17.4789 25.2073 18.1351C24.9655 18.0158 24.7841 17.8964 24.5423 17.7771ZM23.9983 14.7944C23.152 14.9137 22.3661 15.0927 21.7012 15.5103C21.7012 15.3909 21.6408 15.3313 21.6408 15.212C22.1848 14.7347 21.943 13.661 21.4594 12.8855C21.0363 12.2889 20.3109 11.4537 19.7064 11.0958C19.525 11.0362 19.3437 10.9168 19.1623 10.9168C19.525 10.6186 19.8273 10.2606 20.19 9.90272C20.19 10.2606 20.19 10.6782 20.3713 11.0362C20.734 11.2748 20.9758 11.6327 21.1572 12.0503C21.1572 12.1696 21.2176 12.2889 21.2176 12.4082C21.3385 12.6468 21.2781 12.6468 21.5199 12.8855C22.4266 13.661 24.1192 13.2434 25.2677 13.0048C24.9655 13.6013 24.4819 14.1382 24.1192 14.6751C23.9983 14.6751 23.9983 14.7347 23.9983 14.7944ZM21.5803 11.8713C21.4594 11.6327 21.3385 11.3941 21.2176 11.1555C20.9758 10.8572 20.734 10.6186 20.6131 10.2606C20.5527 10.0817 20.4922 9.84307 20.4318 9.60445C20.4922 9.54479 20.6131 9.48514 20.6736 9.42549C21.6408 8.64998 23.152 8.82894 24.2401 9.42549C25.0864 9.90272 25.5095 11.0958 25.449 12.0503C25.449 12.1696 25.449 12.2889 25.3886 12.4082C24.1192 12.2293 22.4266 13.2434 21.5803 11.8713ZM20.2504 12.5872C20.5527 12.9451 20.9758 13.4223 21.1572 13.8996C21.399 14.5558 21.1572 14.6751 20.4922 14.7347C20.1295 14.7347 19.8273 14.6751 19.4646 14.7944C19.1019 14.9137 18.7392 15.212 18.3765 15.3313C17.8929 15.4506 18.0138 15.4506 17.7116 15.033C17.5302 14.7944 17.4093 14.4961 17.228 14.1979C16.9862 13.7803 16.7444 13.4223 16.4421 13.0644C15.8377 12.2293 15.8981 11.9906 15.9585 11.2151C17.5907 11.2748 19.1019 11.2151 20.2504 12.5872ZM12.0898 20.223C12.4525 20.5809 12.9965 20.9388 13.4801 21.3564C13.5406 21.4757 13.6615 21.5354 13.7219 21.6547C13.9033 21.8336 14.0242 22.1319 14.1451 22.3705C13.057 22.6092 11.6667 23.325 10.9413 23.0864C9.91364 22.7881 7.91883 19.865 7.97927 18.493C9.43005 17.5385 11.1831 19.3282 12.0898 20.223ZM7.31434 23.146C7.37478 23.0864 7.37478 23.0267 7.43523 22.9671C7.49568 22.9671 7.49568 22.9671 7.55613 22.9074C7.67703 22.7881 7.73748 22.7285 7.91883 22.7285C7.91883 22.8478 7.97927 22.9671 7.97927 23.146C8.03972 23.504 8.03972 23.8022 8.10017 24.0409C8.03972 24.1005 7.97927 24.1602 7.85838 24.1602C7.73748 23.9812 7.49568 23.9216 7.25389 23.9216C7.19344 23.7426 7.19344 23.504 7.13299 23.325C7.19344 23.325 7.25389 23.2057 7.31434 23.146ZM8.22107 25.1147C8.22107 25.1147 8.22107 25.055 8.16062 25.055C9.43005 24.2198 11.6667 26.4271 12.4525 27.2622C12.6339 27.4412 13.2383 28.0377 13.1779 28.2763C13.1779 28.3957 12.6339 28.5746 12.2712 28.6939C11.7271 28.2763 11.0017 28.0377 10.3972 28.2167C9.97409 27.5605 9.55095 26.8446 9.06736 26.2481C9.06736 26.1288 9.00691 26.0095 8.94646 25.8902C8.76511 25.5919 8.40242 25.4129 8.22107 25.1147ZM9.91364 29.4098C10.095 29.4098 10.3972 29.4694 10.639 29.4098C11.0017 29.6484 11.4249 29.887 11.848 30.066C12.5734 30.3643 12.9965 30.4836 13.4197 31.1994C13.6615 31.617 13.7824 32.0346 13.9033 32.5118C12.9361 31.7363 10.8808 31.5574 9.67185 31.617C9.4905 30.8415 9.18826 30.066 8.76511 29.3501C9.12781 29.4694 9.55095 29.4098 9.91364 29.4098ZM14.1451 30.7818C14.3869 30.7818 14.7496 30.8415 14.9914 30.9011C15.5354 30.9608 16.1399 30.9012 16.6235 30.9608C17.5302 31.0801 18.0743 31.6767 18.3765 32.3925C18.3765 32.7504 18.437 33.0487 18.437 33.4066C18.437 33.4663 18.437 33.4663 18.437 33.526C17.8929 33.4066 17.2884 33.347 16.6839 33.2873C16.1399 33.2277 15.3541 32.9891 14.7496 33.0487C14.7496 32.9891 14.7496 32.9294 14.7496 32.8698C14.7496 32.0942 14.5078 31.3784 14.1451 30.7818ZM20.19 30.6625C20.734 30.6625 21.2781 30.6625 21.7617 30.6625C22.3661 30.6625 22.8497 30.6029 23.3938 30.7818C23.8169 30.9011 24.2401 31.1398 24.6632 31.3187C24.6028 31.3784 24.6028 31.438 24.6028 31.5574C24.6632 32.0346 25.1468 31.9749 24.8446 32.5118C24.361 33.2873 23.4542 33.4066 22.6079 33.347C22.0035 33.2873 21.399 33.2873 20.8549 33.347C20.9154 32.5118 20.8549 31.7363 20.4318 31.0205C20.4318 30.8415 20.3109 30.7222 20.19 30.6625ZM26.1744 26.8446C26.5371 26.6657 26.7185 26.4271 26.7789 26.1288C26.8998 26.1288 27.0207 26.0095 27.0207 25.8902C27.5648 25.8305 29.1364 25.3533 29.62 25.6515C31.494 26.9043 29.7409 26.5464 29.4991 26.785C28.9551 27.3815 28.4715 27.5008 27.6857 27.5008C27.0207 27.5605 26.1744 27.6201 25.3886 27.7991C25.3886 27.7395 25.449 27.6798 25.449 27.6201C25.449 27.5605 25.449 27.4412 25.3886 27.4412C24.9655 27.0833 24.3005 27.3219 23.7565 27.5008C24.6028 27.2026 25.5095 27.2026 26.1744 26.8446ZM26.2349 24.5778C26.114 24.5778 26.0535 24.5778 25.9931 24.6374C25.0259 23.7426 23.8169 23.146 22.5475 22.9074C23.9983 23.0864 25.4491 22.8478 26.8394 22.8478C27.2021 22.8478 27.6252 22.8478 27.9879 22.9074C28.532 23.0267 28.8946 23.504 28.532 24.0409C28.2902 24.5778 26.8394 24.6374 26.2349 24.5778ZM28.7133 20.5809C29.1364 20.5212 29.5596 20.5212 29.9827 20.5212C30.5872 20.5212 31.1917 20.223 31.3126 20.9985C31.3126 21.0581 31.2522 21.2968 31.2522 21.4161C31.1917 22.3109 30.8895 22.4898 30.1641 22.4898C29.8014 22.4898 29.5596 22.4898 29.2573 22.6092C28.7133 22.1319 27.8066 22.0723 27.1416 22.0723C26.5976 22.0723 26.0535 22.0723 25.5095 22.0723C25.7513 21.953 25.8117 21.7143 25.6908 21.5354C26.1744 21.4757 26.5371 21.4161 26.7185 20.8792C27.323 20.7599 27.9879 20.6406 28.7133 20.5809ZM31.9171 16.1665C32.3402 16.1068 32.8238 16.1068 33.247 16.1068C33.3679 16.4051 33.0052 17.0613 32.8238 17.2402C32.4611 17.8368 31.8566 18.2544 31.2522 18.493C30.5872 18.7913 29.9223 18.7913 29.1969 18.9106C29.6805 18.672 30.1036 18.314 30.3454 17.8368C30.6477 17.1209 30.5268 16.6437 30.1036 16.2858C30.7686 16.2858 31.3126 16.2261 31.9171 16.1665ZM27.1416 20.3423C27.1416 20.3423 27.2021 20.3423 27.1416 20.3423C27.0207 20.4019 26.8394 20.4616 26.7185 20.5212C26.7789 19.865 26.658 19.3878 26.3558 19.0299C26.9603 19.2685 27.6857 19.3282 28.3506 19.2088C27.8066 19.3878 27.3834 19.7457 27.1416 20.3423ZM29.1364 16.6437C29.6805 17.2999 29.1969 18.1351 28.4111 18.3737C27.0812 18.7913 25.9326 18.1947 25.7513 16.763C25.7513 16.5244 25.8722 15.9875 25.8722 15.7489C26.4162 15.7489 26.9603 15.8085 27.5648 15.9875C28.0484 16.1068 28.8342 16.2858 29.1364 16.6437ZM28.4715 11.2151C29.3178 11.2748 30.9499 11.5134 31.494 12.3486C31.7357 12.7661 31.4335 13.1241 30.9499 13.482C30.2245 13.303 29.3178 13.661 28.532 13.5417C28.4715 12.8258 28.7737 12.0503 28.532 11.3941C28.532 11.3344 28.4715 11.2748 28.4111 11.2151C28.4111 11.2151 28.4715 11.2151 28.4715 11.2151ZM28.2297 11.2151C28.1693 11.2151 28.1088 11.2748 28.0484 11.3941C27.867 11.8117 27.867 12.2889 27.867 12.7065C27.867 13.1241 27.7461 13.5417 27.867 13.9592C27.867 14.0785 27.9879 14.1979 28.1088 14.1979C28.532 14.3172 29.0155 14.3172 29.4387 14.3172C28.532 14.6751 27.6252 14.9137 27.323 15.033C26.5976 14.8541 25.8117 14.7347 25.0259 14.7347C25.6908 13.8399 26.658 12.8258 26.4767 11.6924C26.4767 11.5731 26.4162 11.3941 26.4162 11.2748C26.5976 11.2748 26.7789 11.2748 26.9603 11.2748C27.0207 11.2748 27.0207 11.2748 27.0812 11.2748C27.0812 11.2748 27.0812 11.2748 27.1416 11.2748C27.4439 11.2151 27.867 11.2151 28.2297 11.2151ZM29.3782 6.74103C29.4991 7.15861 29.4387 7.51654 29.2573 7.81481C28.9551 7.81481 28.6528 7.87446 28.2902 7.93412C27.9275 7.99377 26.8394 8.3517 26.5976 8.23239C26.1744 7.99377 26.2349 6.80068 26.1744 6.44275C26.1744 6.08483 26.1744 5.90586 25.8722 5.60759C25.8117 5.54793 25.6908 5.48828 25.6304 5.54793C26.1744 5.30932 26.7789 5.19001 27.5648 5.36897C28.1693 5.54793 29.1969 6.02517 29.3782 6.74103ZM28.8946 1.78969C29.62 2.08797 29.4387 2.98279 29.1364 3.57933C28.8946 4.05657 28.5924 4.35484 28.2297 4.71277C27.7461 4.53381 27.2021 4.4145 26.7185 4.4145C26.7789 4.35484 26.7789 4.35484 26.7789 4.23553C27.0812 3.46002 27.5648 1.2528 28.8946 1.78969ZM26.114 4.17588C26.114 4.29519 26.1744 4.4145 26.2953 4.47415C26.1744 4.47415 26.114 4.47415 25.9931 4.53381C26.0535 4.35484 26.114 4.11622 26.1744 3.93726C26.1744 3.93726 26.114 4.05657 26.114 4.17588ZM24.5423 6.32344C24.7237 6.14448 24.905 6.02517 25.0864 5.90586C25.2073 5.90586 25.3282 5.90586 25.449 5.78655C25.0864 6.68137 25.5095 8.3517 26.114 8.94825C26.5371 9.36583 27.0207 9.18687 27.5043 9.0079C27.8066 8.94825 28.1088 8.82894 28.4111 8.70963C27.9275 9.36583 27.5648 10.1413 26.8394 10.5589C26.7789 10.6186 26.7185 10.6782 26.7185 10.6782C26.5976 10.6782 26.4162 10.6782 26.2953 10.7379C26.0535 9.90272 25.6304 9.0079 25.0259 8.64997C24.4819 8.3517 23.5751 8.05343 22.7288 7.99377C22.7288 7.93412 22.7288 7.93412 22.7288 7.87446C23.3938 7.57619 23.9378 6.91999 24.5423 6.32344ZM23.152 2.74417C23.5751 2.32658 24.1192 1.78969 24.6632 1.49142C25.5095 1.07384 24.9655 2.86348 24.905 3.16175C24.8446 3.40037 24.7237 3.87761 24.905 4.17588C24.7841 4.47415 24.7237 4.77242 24.5423 5.01104C24.4819 5.0707 24.4819 5.19001 24.4819 5.24966C24.1796 5.48828 23.9378 5.78655 23.6356 6.08483C23.5147 6.20414 23.3938 6.32344 23.2729 6.44275C23.3938 5.78655 23.4542 5.19001 23.3938 4.53381C23.3333 3.93726 23.2124 3.40037 23.0311 2.86348C23.152 2.80382 23.152 2.80382 23.152 2.74417ZM22.2452 1.61073C22.487 1.84935 22.5475 2.92313 22.6684 3.28106C22.9706 4.47415 22.8497 5.48828 22.6684 6.62172C22.6684 6.32344 22.6684 6.02517 22.6684 5.7269C22.6684 5.19001 22.8497 4.59346 22.6079 4.11622C22.3661 3.63899 21.2781 2.86348 20.5527 2.5652L20.6131 2.50555C20.8549 2.08797 21.5803 1.01418 22.2452 1.61073ZM18.0138 5.01104C18.1952 5.30932 18.1952 5.60759 18.2556 5.90586C18.3161 6.02517 18.437 6.08483 18.5579 6.02517C18.4974 6.50241 18.437 6.91999 18.3765 7.39723C18.3765 7.39723 18.3765 7.33757 18.3161 7.33757C17.9534 6.68137 17.8325 5.96552 17.7116 5.30932C17.8325 5.24966 17.8929 5.0707 17.8929 4.89173C17.9534 5.01104 17.9534 5.01104 18.0138 5.01104ZM17.4093 5.36897C17.4093 5.42863 17.4698 5.42863 17.4093 5.36897C17.5302 5.84621 17.5302 6.26379 17.5907 6.74103C17.6511 7.39723 17.7116 8.05343 17.7116 8.70963C17.7116 9.36583 17.4698 9.90272 17.5302 10.6186C16.9257 10.5589 16.3212 10.5589 15.8377 10.6186C15.8981 10.4396 15.8981 10.201 15.8981 9.96238C15.8981 9.78341 15.8981 9.6641 15.8377 9.54479C15.9585 9.48514 16.0794 9.48514 16.2003 9.42549C16.563 9.36583 17.228 9.36583 17.3489 8.88859C17.4698 8.41136 16.9862 7.81481 16.7444 7.45688C16.4421 6.97965 16.1399 6.50241 15.8377 6.08483C16.3817 6.08483 16.9257 5.24966 17.4093 5.36897ZM14.6287 7.51654C14.6891 7.21826 14.5078 6.74103 14.6287 6.50241C14.6891 6.3831 15.0518 6.26379 15.3541 6.20414C15.5354 6.50241 15.7168 6.80068 15.8981 7.09895C16.1399 7.45688 16.6839 8.05343 16.7444 8.53067C16.8048 9.0079 16.0794 8.94825 15.6563 9.0079C15.5354 8.88859 15.2936 8.88859 15.2332 9.06756V9.12721C14.9914 9.18687 14.7496 9.30618 14.5078 9.36583C14.5078 9.24652 14.5682 9.12721 14.5682 9.0079C14.5078 8.47101 14.5078 8.05343 14.6287 7.51654ZM13.2988 10.1413C13.2988 10.3203 13.3592 10.4993 13.3592 10.6782C13.4197 10.9168 13.4197 11.1555 13.4801 11.3941C12.9965 11.0958 12.3921 10.8572 11.848 10.7975C11.9085 10.7379 11.9085 10.6782 11.9085 10.6186C12.3921 10.6186 12.9361 10.4396 13.2988 10.1413ZM11.5458 9.48514C11.4249 9.0079 11.4853 8.59032 11.4853 8.11308C11.4853 7.75516 11.4853 7.51654 11.7271 7.27792C11.7876 7.21826 11.848 7.15861 11.9689 7.09895C12.0898 7.15861 12.2107 7.15861 12.3316 7.09895C12.5734 7.45688 12.9361 8.94825 12.9965 9.18687C12.9965 9.60445 12.7547 9.6641 12.3921 9.84307C12.2107 9.96238 11.9689 10.022 11.7876 10.1413C11.7271 9.90272 11.6062 9.6641 11.5458 9.48514ZM11.5458 15.3909C11.304 15.3313 11.0622 15.4506 11.0622 15.6296C11.0017 15.6892 10.8808 15.8085 10.8808 15.8085C10.8204 15.8682 10.7599 15.9875 10.6995 16.1068C10.639 15.9875 10.5786 15.9278 10.5181 15.8085C10.4577 15.6892 10.3368 15.6892 10.2763 15.6892C10.2159 15.5699 10.095 15.3909 10.0345 15.2716C10.095 15.212 10.095 15.1523 10.095 15.033C10.0345 14.7944 9.97409 14.4961 9.91364 14.2575C9.91364 14.0785 9.85319 13.8399 9.85319 13.661C9.85319 13.2434 9.91364 12.8855 9.97409 12.4679C9.97409 12.3486 10.0345 12.2293 10.0345 12.1696C10.2763 13.303 10.8808 14.4961 11.5458 15.3909ZM8.64421 14.9734C8.76511 15.212 9.12781 15.6892 9.18826 15.9278C9.18826 16.2858 9.12781 16.1665 8.76511 16.2858C8.52332 16.3454 8.28152 16.4051 8.03972 16.4647C7.85838 16.5244 7.67703 16.6437 7.49568 16.7033C7.31433 16.2261 7.13299 15.8085 6.95164 15.3909C6.77029 15.033 6.5285 14.6751 6.4076 14.2575C6.34715 14.0189 6.2867 12.2293 7.01209 12.6468C7.07254 12.6468 7.13299 12.7065 7.13299 12.7065C7.43523 13.1241 7.73748 13.482 8.03972 13.8996C8.22107 14.2575 8.46287 14.6154 8.64421 14.9734ZM7.25389 8.3517C7.85838 8.82894 8.34197 9.30618 8.28152 10.0817C8.22107 10.5589 8.03972 10.9169 8.10017 11.4537C8.16062 12.2293 8.40242 13.0644 8.70466 13.8399C8.28152 13.2434 7.79793 12.7065 7.19344 12.2889H7.13299C7.07254 12.2889 7.01209 12.2293 6.95164 12.2293C6.95164 12.1696 6.89119 12.1099 6.89119 12.0503C7.01209 11.9906 7.13299 11.8117 7.07254 11.6327C6.6494 10.4396 6.5285 9.30618 7.25389 8.3517ZM5.19862 14.3172C4.89637 13.482 4.53368 11.3941 6.0449 11.5134C6.10535 11.5134 6.1658 11.5134 6.22625 11.4537C6.2867 11.5731 6.34715 11.6924 6.4076 11.752C6.4076 11.8713 6.46805 11.9906 6.5285 12.1099C5.80311 12.2889 5.44041 13.482 5.50086 14.1382C5.62176 14.9137 5.98446 15.5103 6.2867 16.2261C6.5285 16.8227 6.46805 17.5982 7.13299 17.8368C7.31433 17.8964 7.49568 17.7771 7.55613 17.6578C7.91883 17.2999 8.34197 17.1806 8.88601 17.1806C9.12781 17.1806 9.43005 17.1806 9.67185 17.1209C9.67185 17.1209 9.67185 17.1209 9.67185 17.1806C9.67185 17.3595 9.7323 17.5385 9.85319 17.7175C9.00691 17.4192 8.10017 17.4192 7.37478 18.1351C7.19344 18.314 7.19344 18.493 7.31434 18.6123C7.31434 18.672 7.31434 18.7316 7.31434 18.7913C7.25389 18.8509 7.25389 18.9106 7.19344 18.9702C7.01209 18.5526 6.77029 18.1947 6.5285 17.8368C6.2867 17.4789 5.98446 17.2402 5.62176 17.1806C5.56131 16.942 5.37997 16.584 5.25907 16.3454C5.37997 16.5244 5.56131 16.7033 5.86356 16.7033C5.92401 16.7033 6.0449 16.7033 6.0449 16.584C6.10535 16.2858 6.10535 16.2261 5.98446 15.9278C5.68221 15.3313 5.37997 14.8541 5.19862 14.3172ZM2.78066 14.1979C3.38515 14.5558 3.98964 15.4506 4.23143 16.1068C4.41278 16.584 4.53368 17.0613 4.83592 17.4789C4.83592 17.5385 4.89637 17.5385 4.95682 17.5385C5.01727 17.6578 5.07772 17.7771 5.13817 17.8368C5.19862 17.8964 5.25907 17.9561 5.31952 18.0158C5.07772 17.8368 4.89637 17.6578 4.65458 17.5982C4.65458 17.5385 4.59413 17.4789 4.53368 17.4789C4.17098 17.3595 3.74784 17.4789 3.4456 17.7175C3.26425 17.1806 3.0829 16.7033 2.72021 16.3454C2.59931 16.1068 2.47841 15.9278 2.41796 15.6892V15.6296C2.29706 15.033 2.47841 14.6154 2.78066 14.1979ZM2.65976 19.9844C2.78066 20.044 2.84111 19.9844 2.90155 19.865C3.14335 19.3282 2.53886 18.7316 2.35751 18.314C2.29706 18.1947 1.69257 16.584 1.87392 16.1665C1.99482 16.4051 2.11572 16.6437 2.29706 16.8227C2.41796 17.1806 2.53886 17.4789 2.65976 17.8368C2.84111 18.3737 2.962 18.9702 3.02245 19.5668C3.0829 19.9844 3.0829 20.3423 3.02245 20.7002C2.962 20.4019 2.78066 20.223 2.65976 19.9844ZM4.35233 18.0158C5.37997 18.672 6.2867 20.1037 6.95164 20.9985C7.25389 21.4161 7.49568 21.774 7.67703 22.1319C7.61658 22.1319 7.61658 22.1916 7.61658 22.1916C7.55613 22.1916 7.55613 22.1319 7.49568 22.1319C7.07254 22.1319 6.58895 22.4302 6.34715 22.7881C6.2867 22.7285 6.2867 22.6092 6.22625 22.5495C6.10535 22.1319 5.98446 21.595 5.92401 21.4757C5.80311 21.1178 5.62176 20.8195 5.44041 20.5809C4.95682 19.9247 3.38515 18.7913 4.35233 18.0158ZM2.65976 27.3219C2.41796 27.0236 2.23661 26.7253 2.11572 26.4271C1.93437 26.0095 1.81347 25.6515 1.69257 25.234C1.93437 25.5322 2.23661 25.7709 2.41796 26.0691C2.65976 26.4271 2.8411 26.785 3.02245 27.1429C2.90155 27.2026 2.8411 27.2622 2.8411 27.4412C2.8411 27.4412 2.8411 27.4412 2.8411 27.5008C2.72021 27.3815 2.65976 27.3219 2.65976 27.3219ZM3.3247 27.0833C3.2038 26.5464 2.962 26.0095 2.72021 25.5919C2.23661 24.8164 1.02763 24.2198 1.93437 23.146C2.962 23.8022 3.62694 24.3988 4.05009 25.5919C4.17098 25.8902 4.29188 26.1884 4.47323 26.4867C4.65458 26.9639 4.59413 27.2026 4.41278 27.5605C3.98964 27.3219 3.62694 27.0833 3.3247 27.0833ZM3.2038 27.6798C3.26425 27.6798 3.26425 27.6798 3.2038 27.6798C3.26425 27.7395 3.38515 27.7395 3.38515 27.7395C3.38515 27.7395 3.4456 27.7395 3.4456 27.7991C3.68739 27.9184 3.98964 28.157 4.17098 28.336C4.35233 28.515 4.47323 28.7536 4.65458 28.9922C4.65458 29.2905 4.77547 29.5291 4.95682 29.7677C3.86874 29.2308 2.65976 28.7536 3.2038 27.6798ZM5.92401 30.066C5.86356 30.0063 5.80311 30.0063 5.80311 30.0063C5.80311 29.7677 5.62176 29.5887 5.56131 29.4098C5.44041 29.2905 5.37997 29.2308 5.31952 29.1115C5.31952 28.7536 5.07772 28.3957 4.77547 28.0377C5.19862 27.6798 6.46805 28.0377 7.25389 28.4553C7.31433 28.8729 7.55613 29.1115 7.91883 29.1712C8.10017 29.5887 8.28152 30.1256 8.28152 30.2449C8.40242 30.6029 8.52332 30.9608 8.64421 31.3187C8.22107 31.1398 7.73748 31.0205 7.31434 30.9011C6.95164 30.7818 6.5285 30.6625 6.10535 30.6625C6.1658 30.4239 5.98446 30.245 5.92401 30.066ZM9.12781 33.4066C8.28152 33.1084 7.79793 32.9294 7.25389 32.2732C6.95164 31.9153 6.58895 31.617 6.2867 31.2591C6.89119 31.4977 7.55613 31.6767 8.16062 31.9153C8.40242 31.9749 8.82556 31.9749 9.12781 32.0942C9.18826 32.0942 9.18826 32.1539 9.2487 32.1539C9.55095 32.3925 9.4905 32.9891 9.3696 33.4663C9.2487 33.4663 9.18826 33.4663 9.12781 33.4066ZM13.4801 35.0173C13.2383 34.8384 12.9965 34.7787 12.7547 34.7787C12.1503 34.5401 11.4853 34.4804 10.8204 34.1822C10.5786 34.0628 10.3368 33.9435 10.095 33.8242C10.095 33.4066 10.095 32.8698 9.91364 32.3925C10.9413 32.6311 12.1503 32.7504 13.1174 33.2277C13.5406 33.4663 13.601 33.4663 13.601 33.8839C13.6615 34.3015 13.5406 34.719 13.601 35.1366C13.5406 35.077 13.5406 35.0173 13.4801 35.0173ZM19.1623 36.9263C18.7392 36.9859 18.2556 36.8666 17.8325 36.807C17.8929 36.7473 17.9534 36.6876 18.0138 36.6876C18.0743 36.628 18.0138 36.5087 17.9534 36.5683C17.8325 36.628 17.6511 36.6876 17.4698 36.807C17.4093 36.807 17.3489 36.807 17.2884 36.8666C16.9862 36.9859 16.6235 37.1052 16.3212 37.1052C15.9585 37.1052 15.7168 36.6876 15.4145 36.5087C15.0518 36.2701 14.4473 35.7928 13.9033 35.6735C13.9033 35.6735 13.9033 35.6735 13.9033 35.6139C14.0242 35.6139 14.1451 35.5542 14.2055 35.4349C14.3869 34.898 14.5682 34.1225 14.4473 33.526L14.5078 33.5856C15.0518 33.8839 15.8377 33.8839 16.4421 33.9435C17.1675 34.0032 17.8929 34.1225 18.5579 34.3015C18.5579 34.5401 18.5579 34.719 18.5579 34.9577C18.5579 35.1366 18.4974 35.3156 18.437 35.4349C17.2884 35.3156 15.6563 34.5997 14.7496 35.4349C14.6891 35.4946 14.6891 35.6139 14.7496 35.6735C15.4145 36.0911 16.3817 36.1508 17.1675 36.2701C17.4698 36.3297 17.772 36.3894 18.1347 36.3894L18.1952 36.449C18.1952 36.449 18.1952 36.449 18.1347 36.5087C18.0743 36.5683 18.1347 36.628 18.1952 36.5683C18.2556 36.5683 18.2556 36.5087 18.2556 36.5087C18.3765 36.5683 18.4974 36.5683 18.6183 36.449L18.6788 36.3894C18.8601 36.3894 19.0415 36.3894 19.2228 36.3297C19.7064 36.2104 20.19 36.2104 20.6131 36.2104C20.3109 36.5683 19.7064 36.8666 19.1623 36.9263ZM21.0363 35.3752C20.4318 35.3156 19.8273 35.3752 19.2832 35.3752C19.2832 35.3156 19.2832 35.2559 19.2832 35.1963C19.2832 34.898 19.2228 34.6594 19.1623 34.3611C19.3437 34.3611 19.4646 34.3015 19.525 34.1225C19.5855 34.1225 19.7064 34.0628 19.7668 34.0032C19.8273 34.0032 19.9482 34.0628 20.0086 34.0628C20.4922 34.5997 21.2176 34.5401 21.8826 34.6594C22.4266 34.7787 22.9706 34.9577 23.5751 35.077C22.7288 35.1963 21.943 35.4946 21.0363 35.3752ZM22.5475 34.1822C22.3661 34.1225 22.1244 34.0032 21.943 33.9435C22.1848 33.9435 22.4266 33.9435 22.6684 33.9435C23.2124 33.9435 23.7565 33.8839 24.2401 33.6453C24.2401 33.7049 24.3005 33.8242 24.4214 33.8242C25.0259 34.0032 25.6304 34.0032 26.2349 34.0032C25.1468 34.7787 23.6356 34.6594 22.5475 34.1822Z" fill="white"/>
</g>
<defs>
<clipPath id="clip0_416_5196">
<rect width="35" height="38" fill="white"/>
</clipPath>
</defs>
</svg>
