<svg width="32" height="45" viewBox="0 0 32 45" fill="none" xmlns="http://www.w3.org/2000/svg">
<path d="M29.5567 27.2151C29.1078 23.7682 27.1049 20.0482 23.928 18.3076C24.0316 18.137 24.0316 17.864 23.7898 17.7274C19.6805 15.0996 14.1208 14.7924 9.70068 16.9084C5.83307 18.7854 2.37985 22.6761 1.86187 27.0104C1.86187 27.1128 2.03453 27.1469 2.03453 27.0445C3.27769 22.8808 5.66041 19.195 9.76975 17.3179C13.9136 15.4067 18.6791 15.8163 22.5812 18.0346C22.5121 18.1711 22.5467 18.3418 22.6848 18.4441C25.5164 20.4236 27.7956 22.8126 28.6243 26.2595C29.0387 27.9318 29.0387 29.6724 28.6934 31.3447C28.3481 32.9487 27.7265 34.9964 26.5524 36.1909C24.1351 38.7164 21.1999 40.5935 17.6431 41.0713C14.0517 41.5149 10.2187 40.5935 7.35249 38.3751C4.27912 36.0544 2.24172 32.6074 1.55108 28.8533C1.55108 28.7509 1.37842 28.785 1.37842 28.8874C2.27626 36.4298 8.90644 42.4705 16.7107 42.061C20.233 41.8904 24.2733 40.3204 26.3452 37.3171C26.8632 36.5322 27.243 35.679 27.7956 34.9282C28.3481 34.1773 28.6934 33.3583 29.0042 32.4709C29.6258 30.7645 29.7639 28.9898 29.5567 27.2151Z" fill="#588F8E"/>
<path d="M25.6893 16.9084C23.6519 15.3726 21.2692 14.3488 18.8174 13.9051C18.921 13.4614 18.6102 12.9836 18.2994 12.6765C18.1613 12.54 17.9541 12.4034 17.7123 12.3352C17.7469 12.3011 17.7814 12.3011 17.8159 12.2669C17.8505 12.2328 17.885 12.1645 17.9195 12.1304C18.0231 12.1645 18.1267 12.1645 18.2303 12.0963C22.5123 10.1851 23.4447 4.04199 19.5771 1.20933C15.5368 -1.79397 9.39007 1.14107 9.56273 6.2262C9.66633 8.85409 11.4965 11.0383 14.0519 11.7209C14.121 11.755 14.2246 11.7209 14.2591 11.6867C14.3627 11.7891 14.5008 11.8915 14.639 11.9598C14.7771 12.028 14.8807 11.8574 14.8807 11.7209C14.7771 11.2089 14.5354 10.8335 14.6044 10.3216C14.6735 10.2534 14.708 10.1168 14.708 10.0145C14.9152 9.4684 15.4332 9.12712 16.0548 9.12712C17.3325 9.12712 17.9195 10.5946 17.0562 11.482C16.78 11.755 16.9181 12.1304 17.1598 12.3011C17.1253 12.3011 17.0908 12.3352 17.0562 12.3693C16.8836 12.4717 16.8836 12.6765 16.9872 12.813C17.0908 12.9154 17.2289 12.9836 17.3325 13.0519C17.4706 13.1201 17.5742 13.2225 17.6778 13.3249C17.8159 13.4614 17.8505 13.6321 17.9195 13.7686C16.7109 13.5979 15.5023 13.5979 14.3282 13.6662C14.3282 13.6321 14.2936 13.5979 14.2591 13.5638L14.1555 13.5297C14.1555 13.3932 14.1901 13.2908 14.3282 13.1543C14.5008 12.9836 14.7771 12.9495 14.9152 12.7789C14.9843 12.7106 14.9843 12.6082 14.9498 12.54C14.708 12.1304 14.0865 12.3693 13.7757 12.6082C13.4649 12.8812 13.2577 13.359 13.3958 13.7686C11.1167 14.0757 8.87209 14.8607 6.86922 16.1576C3.72679 18.1711 1.34407 21.2086 0.446229 24.8262C-0.0372219 26.635 -0.106286 28.5462 0.135439 30.3891C0.239036 31.0375 0.377165 31.7201 0.549826 32.3686C0.549826 32.3686 0.549826 32.3686 0.549826 32.4027C1.44766 39.126 8.42317 43.5627 14.7771 44.2452C21.5799 44.9961 28.0375 40.9689 30.6619 34.7917C33.3554 28.6144 31.0763 20.9355 25.6893 16.9084ZM10.3224 5.06584C10.8059 2.3697 13.2922 0.526762 16.0203 0.629147C18.6447 0.731533 20.9238 2.67685 21.4418 5.20235C21.9598 7.69372 20.613 10.0145 18.4375 11.1407C18.5066 10.7994 18.5411 10.4581 18.472 10.1168C18.5411 10.151 18.6447 10.1851 18.7483 10.151C20.7857 9.53666 21.3037 6.32859 20.7166 4.62217C19.9915 2.57447 17.8505 1.1752 15.6404 1.31172C13.3267 1.48236 11.4275 3.29116 11.1512 5.54364C10.944 7.21593 12.0145 9.91207 13.9138 10.3216C13.9138 10.5946 13.9138 10.9018 14.0174 11.1748C11.4965 10.2875 9.83899 7.76198 10.3224 5.06584ZM16.0548 8.23978C15.226 8.30804 14.5008 8.75171 14.1555 9.4684C13.7066 9.09299 13.2232 8.78583 12.8433 8.27391C12.3598 7.55721 12.0836 6.704 12.1527 5.85079C12.3253 3.90547 13.9829 2.3697 15.9512 2.33557C17.6433 2.33557 19.3008 3.53006 19.7497 5.16822C19.9569 5.98731 19.8879 6.84051 19.5771 7.62547C19.2663 8.37629 18.6447 8.85409 18.2303 9.53666C17.9195 8.7517 17.1253 8.17152 16.0548 8.23978ZM30.0749 31.9931C28.9353 37.7267 23.9627 42.334 18.0231 42.8118C11.3584 43.3238 4.72822 39.5355 2.06924 33.5289C1.79299 32.6757 1.4822 31.8566 1.30953 30.9693C0.998745 29.3653 0.964212 27.6588 1.275 26.0548C1.82752 23.0515 3.45053 20.3895 5.76419 18.41C10.4606 14.3488 17.367 13.7686 22.7886 16.7377C28.2101 19.6728 31.2835 25.9524 30.0749 31.9931Z" fill="#588F8E"/>
<path d="M16.5381 11.2772C16.5036 11.209 16.4345 11.1407 16.3309 11.1748C16.1928 11.209 16.1237 11.3114 15.9856 11.3455C15.8475 11.3796 15.7439 11.3796 15.6748 11.2772C15.5367 11.1066 15.2604 11.3114 15.364 11.5161C15.5022 11.755 15.7784 11.8916 16.0547 11.8574C16.2964 11.7892 16.6417 11.5503 16.5381 11.2772Z" fill="#588F8E"/>
<path d="M20.0256 18.6145C20.0256 18.4439 19.8184 18.3074 19.6458 18.4098C18.9206 18.8193 18.6443 19.6725 18.299 20.3892C17.8156 21.3448 17.3667 22.3004 16.8487 23.2219C15.8472 25.0989 14.6731 26.8736 13.1192 28.3411C13.0501 28.307 12.9811 28.3753 12.9811 28.4435V28.4777C12.9465 28.5459 12.9465 28.6142 12.9811 28.6824C12.9465 29.9111 13.2573 31.1397 13.2228 32.3683C13.1537 33.8017 12.912 35.201 12.4976 36.5661C12.2904 37.2145 12.0487 37.863 11.807 38.4773C11.6688 38.8527 11.289 39.6377 11.4616 40.0472C11.5998 40.4567 12.0487 40.5932 12.394 40.3543C13.0501 39.9107 13.2228 38.5455 13.43 37.863C13.8098 36.7709 14.1552 35.6446 14.7077 34.5866C15.2257 33.5969 15.8818 32.7778 16.7105 32.0611C17.0904 31.754 17.4702 31.4127 17.712 31.0373C17.781 31.0373 17.8156 31.0373 17.8846 31.0032C18.3336 30.7643 18.6098 30.0134 18.299 29.5698L18.2645 29.5356C18.0228 27.5903 18.3681 25.6791 18.8515 23.8021C19.335 22.0956 19.9566 20.4234 20.0256 18.6145ZM17.7465 29.9111C17.6774 29.9452 17.6429 29.9793 17.6084 30.0476C17.5738 30.1841 17.5393 30.2865 17.4702 30.3889C17.4357 30.423 17.4012 30.4571 17.3667 30.4912C17.3321 30.5595 17.2976 30.5936 17.2976 30.6619C17.2631 30.7301 17.194 30.7984 17.1595 30.8667C17.1249 30.7984 17.0559 30.7643 16.9868 30.7984C16.7105 30.8666 16.5379 31.0373 16.2616 31.1397C15.9163 31.2421 15.571 31.2079 15.2257 31.1055C14.6731 30.9349 14.0516 30.5595 13.7753 30.0817C13.7408 30.0476 13.6717 30.0817 13.7062 30.1158C13.948 30.8666 14.4314 31.3444 15.2257 31.5833C15.571 31.6857 16.0199 31.7199 16.3998 31.6175C16.1926 31.7881 15.9854 31.9588 15.7782 32.1294C15.1911 32.6755 14.7422 33.358 14.3624 34.0406C14.0516 34.6208 13.8098 35.201 13.5681 35.7811C13.499 35.6446 13.43 35.474 13.3264 35.3375C13.3264 35.3375 13.3264 35.3375 13.2919 35.3375C13.3609 34.9621 13.43 34.5866 13.499 34.1771C13.6372 33.1533 13.6717 32.1294 13.6372 31.0714C13.6026 30.3206 13.5681 29.4333 13.2919 28.6824C13.6717 28.3753 14.017 28.034 14.3278 27.6927C14.3278 27.6927 14.3278 27.6927 14.3624 27.6927C15.053 27.5221 15.6055 27.2832 16.3307 27.5221C16.9177 27.7268 17.1595 28.2388 17.6429 28.5459C17.6774 28.5459 17.6774 28.58 17.712 28.58C17.712 28.9555 17.7465 29.2967 17.781 29.6722C17.781 29.7745 17.7465 29.8428 17.7465 29.9111ZM18.1609 24.587C17.9192 25.6791 17.7465 26.7371 17.712 27.8292C17.1249 27.0784 15.6746 26.8736 14.7767 27.249C15.5364 26.3276 16.1926 25.3037 16.8141 24.2799C17.2976 23.4608 17.712 22.6076 18.1264 21.7544C18.4717 21.0718 18.8515 19.8432 19.4731 19.1947C19.2659 21.0035 18.5753 22.8123 18.1609 24.587Z" fill="#588F8E"/>
<path d="M16.469 28.1706C15.8819 27.6928 14.8805 27.7611 14.4661 28.4436C14.2934 28.7508 14.2244 29.1262 14.328 29.4675C14.397 29.7405 14.6388 30.1501 14.9841 30.0818C15.1222 30.2524 15.2949 30.389 15.5366 30.4231C15.8474 30.4913 16.2618 30.389 16.5035 30.1501C17.1251 29.6723 17.0215 28.6484 16.469 28.1706ZM16.2618 29.9112C15.8474 30.1842 15.4675 30.0818 15.1567 29.8088C15.1222 29.6723 15.0531 29.604 14.9841 29.4675C14.8805 29.2969 14.846 29.0921 14.8805 28.8873C15.0186 28.3413 15.6402 28.2389 16.0891 28.4436C16.6762 28.7167 16.8488 29.5357 16.2618 29.9112Z" fill="#588F8E"/>
<path d="M13.7065 29.2969V29.4334H13.7411L13.7065 29.2969C13.7411 29.2969 13.7065 29.2969 13.7065 29.2969Z" fill="#588F8E"/>
<path d="M13.9483 28.4435C13.9138 28.3753 13.8447 28.3753 13.8102 28.4435C13.672 28.6483 13.7066 28.8531 13.7411 29.092C13.7411 29.2967 14.0519 29.2967 14.0519 29.092C14.0519 28.8872 14.0864 28.6483 13.9483 28.4435Z" fill="#588F8E"/>
<path d="M8.80292 27.6588C8.07774 27.4199 7.04178 27.0786 6.24753 27.181C5.90221 27.2151 5.79861 27.6929 6.17847 27.7953C6.55832 27.8977 6.93818 27.8636 7.31803 27.9318C7.49069 27.966 7.66336 27.966 7.83602 28.0001C7.62882 28.0684 7.42163 28.1366 7.21444 28.2049C7.07631 28.239 7.00724 28.4438 7.1799 28.5462C7.42163 28.6827 7.66336 28.785 7.93961 28.8533C7.83602 28.8874 7.69789 28.8874 7.59429 28.9216C7.2835 28.9898 7.00724 28.9898 6.73099 29.1946C6.66192 29.2287 6.66192 29.3311 6.76552 29.3652C7.31803 29.57 8.21587 29.297 8.76839 29.1605C8.97558 29.1263 9.01011 28.8192 8.83745 28.7509C8.56119 28.6144 8.28494 28.4779 7.97415 28.3755C8.2504 28.2731 8.52666 28.2049 8.83745 28.1707C9.07918 28.1025 9.01011 27.7271 8.80292 27.6588Z" fill="#588F8E"/>
<path d="M16.4002 20.1503C16.3311 19.7749 16.5038 19.3994 16.4002 19.024C16.4002 18.9558 16.3311 18.9216 16.262 18.9558C15.8822 19.024 15.8131 19.4677 15.8477 19.809C15.8477 20.1161 15.9167 20.3892 15.9858 20.6963C15.7441 20.3892 15.5369 20.082 15.2606 19.8431C15.2606 19.7407 15.2261 19.6042 15.2261 19.5018C15.1915 19.2971 14.8117 19.2971 14.7771 19.5018C14.7081 20.0138 14.7426 20.5598 14.8117 21.0717C14.8462 21.4471 14.8117 21.9932 15.1225 22.2662C15.1915 22.3345 15.2951 22.3345 15.3642 22.2321C15.6059 21.8567 15.4333 21.3789 15.3642 20.9694C15.3642 20.8328 15.3297 20.7305 15.3297 20.5939C15.5714 20.9693 15.8477 21.3448 16.0894 21.7202C16.2275 21.9249 16.5383 21.8567 16.5728 21.5837C16.6074 21.0717 16.4692 20.6281 16.4002 20.1503Z" fill="#588F8E"/>
<path d="M16.3657 36.6003C16.2621 36.4638 16.124 36.3955 15.9859 36.3273C15.8823 36.2931 15.7787 36.2249 15.6751 36.1566C15.6405 36.1225 15.606 36.0884 15.5715 36.0542C15.5715 35.7812 15.6751 35.7129 15.8823 35.8495C16.0549 35.9518 16.1931 35.6788 16.0549 35.5764C15.6751 35.3375 15.0535 35.474 15.1226 35.986C15.1571 36.2249 15.3643 36.3955 15.5715 36.532C15.6405 36.6003 15.9168 36.6685 15.9513 36.7709C16.0895 37.0098 15.5369 37.1463 15.5369 36.9074C15.5369 36.7027 15.2607 36.6344 15.1571 36.8051C15.019 37.044 15.1226 37.317 15.3643 37.4535C15.6405 37.6241 15.9859 37.5218 16.2276 37.317C16.4003 37.1805 16.5384 36.8733 16.3657 36.6003Z" fill="#588F8E"/>
<path d="M24.8949 28.1365C24.8604 28.0341 24.6877 27.9658 24.6186 28.0682C24.6186 28.0682 24.6186 28.0682 24.5841 28.1024C24.4114 28.0341 24.2043 28.0341 23.9971 28.0682C23.6517 28.0682 23.3064 28.1365 22.9956 28.2047C22.9266 28.1024 22.7539 28.0682 22.6503 28.2047C22.4776 28.4778 22.5122 28.9556 22.5812 29.2627C22.6503 29.5016 23.0992 29.4675 23.0647 29.1945C23.0302 29.0579 23.0302 28.8873 23.0302 28.7508C23.0302 28.7167 23.0302 28.6484 23.0302 28.6143C23.0647 28.6143 23.0647 28.6143 23.0992 28.6143C23.2028 28.5801 23.341 28.5801 23.4445 28.546C23.41 28.6484 23.41 28.7167 23.4445 28.8532C23.4791 28.9897 23.5136 29.1262 23.6517 29.1945C23.7553 29.2286 23.8935 29.2286 23.928 29.0921C23.9625 28.8873 23.8935 28.7167 23.8589 28.5119C23.9625 28.5119 24.0316 28.5119 24.1352 28.5119C24.2388 28.5119 24.3769 28.5119 24.4805 28.5119C24.446 28.7508 24.446 28.9897 24.446 29.1945C24.4805 29.4675 24.8604 29.4675 24.8604 29.1945C24.8604 29.0238 24.8949 28.819 24.8949 28.6484C24.8604 28.4778 24.9294 28.3071 24.8949 28.1365Z" fill="#588F8E"/>
<path d="M6.04069 24.246C5.7299 24.0753 5.41911 24.0412 5.10832 23.9047C4.86659 23.8023 4.62487 23.6658 4.38314 23.8023C4.21048 23.9047 4.34861 24.1777 4.5558 24.0753C4.72846 23.973 5.17738 24.2801 5.35004 24.3142C5.59177 24.3825 5.79896 24.4166 6.04069 24.3484C6.07522 24.3484 6.10975 24.2801 6.04069 24.246Z" fill="#588F8E"/>
<path d="M7.00722 23.0512C6.90362 22.7782 6.5583 22.6417 6.31658 22.5393C6.04032 22.4028 5.72953 22.2663 5.41874 22.1639C5.28061 22.1298 5.17701 22.3004 5.28061 22.3687C5.52234 22.5734 5.79859 22.7441 6.04032 22.9147C6.28204 23.0512 6.5583 23.2901 6.83456 23.256C6.97269 23.256 7.04175 23.1536 7.00722 23.0512Z" fill="#588F8E"/>
<path d="M7.80144 21.6179C7.69784 21.379 7.42158 21.2424 7.24892 21.0718C7.04173 20.9012 6.83454 20.6964 6.66187 20.4916C6.52375 20.3551 6.28202 20.5599 6.42015 20.7305C6.62734 20.9353 6.8 21.1401 7.04173 21.3448C7.21439 21.5155 7.42158 21.7202 7.66331 21.7544C7.80144 21.7885 7.8705 21.7202 7.80144 21.6179Z" fill="#588F8E"/>
<path d="M9.21736 20.0143C9.11376 19.8436 8.90657 19.7412 8.76844 19.673C8.63031 19.5706 8.45765 19.4341 8.28499 19.4341C8.21593 19.4341 8.1814 19.5023 8.1814 19.5706C8.21593 19.7412 8.42312 19.8778 8.56125 19.9801C8.69938 20.0825 8.87204 20.2532 9.07923 20.2532C9.18283 20.219 9.25189 20.1166 9.21736 20.0143Z" fill="#588F8E"/>
<path d="M10.1496 18.7852C10.0115 18.5804 9.90789 18.3757 9.8043 18.1709C9.73523 18.0344 9.49351 18.1368 9.56257 18.2733C9.63164 18.5122 9.73523 18.7511 9.83883 18.9559C9.94243 19.1265 10.046 19.3654 10.2877 19.4337C10.3568 19.4337 10.4259 19.3995 10.4259 19.3313C10.4259 19.1265 10.2532 18.9559 10.1496 18.7852Z" fill="#588F8E"/>
<path d="M12.1181 18.4784C12.0145 18.2736 11.9109 18.0688 11.8419 17.8641C11.8073 17.7617 11.6692 17.7958 11.6692 17.8982C11.6692 18.103 11.7037 18.3419 11.7383 18.5125C11.7728 18.649 11.8764 18.8879 12.049 18.8538C12.2562 18.8197 12.1872 18.6149 12.1181 18.4784Z" fill="#588F8E"/>
<path d="M13.8447 17.8641C13.8447 17.6593 13.8447 17.4545 13.8447 17.2156C13.8447 17.045 13.603 17.045 13.603 17.2156C13.603 17.4545 13.5685 17.6593 13.603 17.8982C13.603 18.0688 13.603 18.2395 13.7411 18.376C13.7757 18.4101 13.8447 18.4101 13.8447 18.376C13.8792 18.2054 13.8447 18.0688 13.8447 17.8641Z" fill="#588F8E"/>
<path d="M27.5886 28.034C27.4505 27.9316 27.2433 27.9316 27.0706 27.9316C26.8634 27.9316 26.6908 27.9316 26.4836 27.9658C26.1728 27.9999 26.1728 28.4094 26.4836 28.4436C26.6908 28.4436 26.8634 28.4777 27.0706 28.4777C27.2433 28.4777 27.4505 28.4777 27.5886 28.3753C27.7267 28.2729 27.7267 28.1023 27.5886 28.034Z" fill="#588F8E"/>
<path d="M27.2777 26.5668C27.1741 26.5327 27.105 26.4985 27.0014 26.4985C26.8978 26.4985 26.7942 26.4985 26.6906 26.4985C26.4834 26.4985 26.2763 26.4985 26.1036 26.5668C26.1036 26.5668 26.1036 26.5668 26.0691 26.5668C26.0691 26.5668 26.0691 26.5668 26.0345 26.5668C26.0345 26.5668 26.0345 26.5668 26 26.6009C26 26.6009 26 26.6009 26 26.635C26 26.635 26 26.635 26 26.6692C26 26.6692 26 26.6692 26 26.7033C26 26.7033 26 26.7033 26 26.7374V26.7716C26 26.7716 26 26.7716 26.0345 26.8057C26.0345 26.8057 26.0345 26.8057 26.0691 26.8057C26.0691 26.8057 26.0691 26.8057 26.1036 26.8057C26.2763 26.8739 26.518 26.8398 26.6906 26.8739C26.7942 26.8739 26.8978 26.8739 27.0014 26.8739C27.1396 26.8739 27.1741 26.8398 27.2777 26.8057C27.3813 26.7716 27.3813 26.635 27.2777 26.5668Z" fill="#588F8E"/>
<path d="M27.1052 24.4505C26.829 24.3822 26.5872 24.4846 26.3455 24.5529C26.1038 24.6211 25.8275 24.7235 25.5858 24.86C25.4477 24.9624 25.4822 25.1672 25.6894 25.2013C25.9657 25.2013 26.2419 25.1331 26.4836 25.0648C26.7254 24.9966 27.0016 24.9624 27.1743 24.7576C27.2779 24.6894 27.2434 24.4846 27.1052 24.4505Z" fill="#588F8E"/>
<path d="M26.3107 22.6758C25.7927 22.6416 25.3438 23.017 24.964 23.2901C24.7913 23.4266 24.9294 23.6996 25.1366 23.5972C25.551 23.3925 26.069 23.2559 26.3798 22.8805C26.4488 22.7781 26.4143 22.6758 26.3107 22.6758Z" fill="#588F8E"/>
<path d="M24.6531 21.0034C24.4459 21.0717 24.2733 21.1741 24.1006 21.3106C23.928 21.4471 23.7553 21.5495 23.6862 21.7542C23.6517 21.8225 23.7208 21.9249 23.8244 21.9249C24.0316 21.9249 24.2042 21.7542 24.3769 21.6519C24.5495 21.5153 24.6877 21.3788 24.7913 21.1741C24.7913 21.1058 24.7567 21.0034 24.6531 21.0034Z" fill="#588F8E"/>
<path d="M17.8505 39.706C17.816 39.433 17.8505 39.1258 17.7815 38.8528C17.7469 38.7504 17.5743 38.7163 17.5397 38.8187C17.4016 39.0917 17.4016 39.433 17.4016 39.7401C17.4016 40.0131 17.4361 40.2862 17.6433 40.4568C17.7124 40.4909 17.7815 40.4568 17.816 40.4227C17.9541 40.2179 17.8851 39.9449 17.8505 39.706Z" fill="#588F8E"/>
<path d="M14.1211 38.7846C14.1211 38.7505 14.052 38.7505 14.052 38.7505C13.7757 38.8529 13.7412 39.1942 13.6721 39.4331C13.5685 39.7743 13.4649 40.1156 13.5685 40.4569C13.6031 40.5252 13.7067 40.5934 13.7757 40.5252C14.0175 40.2521 14.052 39.9108 14.1556 39.5696C14.1901 39.3307 14.3283 38.9894 14.1211 38.7846Z" fill="#588F8E"/>
<path d="M15.9167 38.7842C15.8822 38.716 15.7786 38.6818 15.744 38.7501C15.6059 39.0573 15.5368 39.3644 15.5023 39.6716C15.4678 39.9446 15.4332 40.2176 15.5368 40.4907C15.5714 40.593 15.7095 40.5589 15.744 40.4907C15.9167 40.2518 15.9167 39.9446 15.9512 39.6716C15.9858 39.3985 15.9858 39.0914 15.9167 38.7842Z" fill="#588F8E"/>
<path d="M21.787 38.409C21.6489 38.2384 21.4762 38.136 21.3381 37.9653C21.1654 37.7606 21.0273 37.5558 20.8892 37.3169C20.8201 37.1804 20.5784 37.2145 20.5784 37.3852C20.6129 37.7947 20.8546 38.136 21.1309 38.409C21.269 38.5455 21.4417 38.6479 21.5453 38.7844C21.6489 38.9209 21.7179 39.0916 21.8561 39.194C21.8906 39.2281 21.9597 39.194 21.9942 39.194C22.2359 38.9892 21.9597 38.6138 21.787 38.409Z" fill="#588F8E"/>
<path d="M22.9266 37.1123C22.8921 37.0441 22.823 36.9758 22.7885 36.9076C22.754 36.8393 22.6849 36.771 22.6504 36.7028C22.5813 36.6345 22.4432 36.6004 22.4087 36.7369L22.3396 36.771C22.3051 36.8052 22.3051 36.8052 22.3051 36.8393C22.2705 36.8734 22.3396 36.9076 22.3741 36.9076C22.3741 36.9417 22.3741 36.9758 22.3741 37.0441C22.4087 37.1465 22.4432 37.2488 22.4777 37.3171C22.5813 37.4877 22.754 37.6584 22.9612 37.5901C23.0302 37.556 23.0648 37.4877 23.0648 37.4195C23.0648 37.2488 22.9957 37.1806 22.9266 37.1123Z" fill="#588F8E"/>
<path d="M25.0678 35.9176C24.8951 35.8152 24.6879 35.7128 24.5498 35.5763C24.3081 35.4057 24.0664 35.0303 23.721 35.2009C23.652 35.2351 23.6174 35.3374 23.652 35.4057C23.7901 35.7128 24.0664 36.02 24.3426 36.1906C24.5153 36.293 25.1714 36.4978 25.2405 36.1565C25.2405 36.0541 25.1369 35.9859 25.0678 35.9176Z" fill="#588F8E"/>
<path d="M26.0691 34.6209C25.7583 34.2113 25.3094 33.9042 24.826 33.6994C24.7224 33.6653 24.6188 33.7677 24.7224 33.8359C25.0677 34.2113 25.5166 34.5526 26 34.6891C26.0346 34.6891 26.1036 34.655 26.0691 34.6209Z" fill="#588F8E"/>
<path d="M27.5196 32.6072C26.9326 32.3683 26.4146 32.0953 25.7585 31.9929C25.6549 31.9929 25.6203 32.0953 25.7239 32.1294C26.311 32.3683 26.898 32.4707 27.5196 32.6414C27.5196 32.6755 27.5541 32.6414 27.5196 32.6072Z" fill="#588F8E"/>
<path d="M27.8303 30.628C27.4504 30.3891 26.9324 30.355 26.4835 30.355C26.3108 30.355 26.3108 30.628 26.4835 30.628C26.8979 30.6621 27.3468 30.7645 27.7957 30.7645C27.8648 30.7304 27.8648 30.6621 27.8303 30.628Z" fill="#588F8E"/>
<path d="M5.34974 31.6177C4.96988 31.6859 4.59003 31.9248 4.2447 32.0955C4.14111 32.1637 4.21017 32.3685 4.3483 32.3002C4.72816 32.1637 5.14254 32.0272 5.45333 31.7542C5.48786 31.7201 5.4188 31.6177 5.34974 31.6177Z" fill="#588F8E"/>
<path d="M5.38409 28.3411C4.86611 28.1705 4.24453 28.2729 3.69202 28.2729C3.48482 28.2729 3.48482 28.58 3.69202 28.58C4.21 28.58 4.86611 28.6824 5.38409 28.5118C5.45316 28.4777 5.45316 28.3753 5.38409 28.3411Z" fill="#588F8E"/>
<path d="M5.72966 26.0887C5.48793 25.9863 5.21167 25.9863 4.93541 26.0204C4.59009 26.0204 4.2793 26.0204 3.93398 26.0204C3.69225 26.0204 3.69225 26.3958 3.93398 26.3958C4.2793 26.3958 4.59009 26.3958 4.93541 26.3958C5.21167 26.3958 5.4534 26.43 5.72966 26.3276C5.79872 26.2593 5.79872 26.1228 5.72966 26.0887Z" fill="#588F8E"/>
<path d="M5.41874 30.2184C4.93529 30.1843 4.41731 30.4232 3.96839 30.5256C3.72667 30.5938 3.83026 30.9692 4.07199 30.901C4.52091 30.7645 5.07342 30.6621 5.48781 30.389C5.55687 30.3549 5.52234 30.2184 5.41874 30.2184Z" fill="#588F8E"/>
<path d="M6.62714 33.563C6.07463 33.563 5.55664 33.9043 5.03866 34.109C4.79693 34.2114 5.00413 34.5868 5.24585 34.4844C5.7293 34.2797 6.31635 34.1432 6.69621 33.7678C6.76527 33.6654 6.69621 33.563 6.62714 33.563Z" fill="#588F8E"/>
<path d="M7.7324 34.7914C7.42161 34.8937 7.14536 35.1326 6.8691 35.3374C6.55831 35.5763 6.28205 35.8493 5.97126 36.1224C5.86766 36.2248 6.00579 36.3954 6.10939 36.3271C6.45471 36.1224 6.80003 35.9176 7.11082 35.6446C7.38708 35.4398 7.69787 35.235 7.836 34.962C7.9396 34.8596 7.836 34.7572 7.7324 34.7914Z" fill="#588F8E"/>
<path d="M9.21747 35.9178C8.76856 36.2249 8.42324 36.771 8.18151 37.2829C8.14698 37.3512 8.25057 37.4194 8.28511 37.3512C8.3887 37.1123 8.52683 36.8734 8.66496 36.6686C8.83762 36.4297 9.04481 36.2249 9.252 36.0202C9.32107 35.9519 9.252 35.8836 9.21747 35.9178Z" fill="#588F8E"/>
<path d="M10.5638 36.9076C10.1494 37.3854 9.83864 37.8974 9.49332 38.4093C9.45878 38.4776 9.52785 38.5458 9.59691 38.5117C10.2185 38.2045 10.6674 37.6926 10.771 37.01C10.771 36.9076 10.6329 36.8053 10.5638 36.9076Z" fill="#588F8E"/>
<path d="M17.885 17.0446C17.885 16.9764 17.885 16.9081 17.8505 16.8399C17.8505 16.8399 17.8159 16.8057 17.8159 16.8399C17.6433 17.2835 17.6088 17.7613 17.5742 18.2391C17.5742 18.2733 17.6433 18.3074 17.6433 18.2733C17.7469 18.1368 17.7814 17.9661 17.8159 17.7613C17.885 17.5224 17.885 17.2835 17.885 17.0446Z" fill="#588F8E"/>
<path d="M23.6171 19.468C23.4445 19.5704 23.3063 19.7751 23.1682 19.9117C23.0301 20.0823 22.8919 20.2529 22.7884 20.4577C22.7538 20.526 22.8574 20.6284 22.9265 20.5601C23.0646 20.3895 23.2373 20.2529 23.3754 20.0482C23.479 19.8775 23.6517 19.7069 23.7207 19.5021C23.6862 19.468 23.6517 19.4339 23.6171 19.468Z" fill="#588F8E"/>
<path d="M21.9596 18.3758C21.5798 18.6489 21.3381 19.0925 21.0963 19.5021C21.0273 19.6045 21.1999 19.741 21.269 19.6386C21.5798 19.2632 21.9251 18.9219 22.0632 18.4782C22.0632 18.3758 21.9942 18.3417 21.9596 18.3758Z" fill="#588F8E"/>
</svg>
