<svg width="325" height="688" viewBox="0 0 325 688" fill="none" xmlns="http://www.w3.org/2000/svg">
<mask id="mask0_416_21680" style="mask-type:alpha" maskUnits="userSpaceOnUse" x="0" y="0" width="325" height="688">
<rect width="325" height="688" fill="#C4C4C4"/>
</mask>
<g mask="url(#mask0_416_21680)">
<path d="M193.032 3C216.401 18.327 249.118 54.3206 193.032 75.6794C136.946 97.0383 150.299 139.459 163.987 158" stroke="white" stroke-dasharray="4 4"/>
<path d="M152 424C132 459.667 107.6 538.2 170 567C232.4 595.8 301 599 288 536C268 483 216.592 524.098 110 621C44 681 -43 686 -70 675" stroke="white" stroke-dasharray="4 4"/>
<g clip-path="url(#clip0_416_21680)">
<path d="M237.924 254.272C238.012 253.963 237.959 253.68 237.596 253.309C233.438 249.115 225.806 250.555 220.851 252.223C217.822 253.234 215.014 254.642 212.401 256.307C209.815 258.113 207.335 260.485 204.306 261.496C203.879 259.233 203.902 257.032 204.518 254.866C204.931 253.177 205.344 251.488 204.317 249.925C202.263 246.798 198.05 247.74 195.464 249.546C192.109 251.936 188.8 255.343 186.339 258.59C183.791 262.146 182.93 266.116 181.645 270.166C181.117 272.023 180.36 274.216 179.214 275.896C179.099 276.064 178.782 276.71 178.499 276.763C178.217 276.817 177.04 276.014 177.014 275.872C176.792 275.475 176.827 274.883 176.632 274.626C176.331 273.805 176.029 272.983 175.445 272.215C174.64 271.049 173.082 269 171.474 269.01C169.866 269.021 168.799 271.126 168.138 272.276C166.013 275.752 164.561 279.687 164.319 283.833C164.223 284.876 164.154 286.061 163.775 287.157C163.458 287.803 162.655 288.979 161.762 288.123C161.567 287.867 161.46 287.301 161.239 286.904C160.38 285.455 158.956 284.113 157.497 283.363C155.87 282.499 154.262 282.509 153.452 284.42C152.553 286.639 152.327 289.318 152.189 291.687C152.077 294.197 152.133 296.823 152.304 299.28C152.43 300.721 152.67 301.993 152.937 303.407C152.99 303.69 153.044 303.973 153.097 304.256C153.177 304.68 153.028 305.44 152.489 305.688C151.668 305.99 150.775 305.133 150.244 304.648C150.049 304.392 149.51 304.64 149.423 304.949C148.78 306.974 148.05 309.309 145.922 310.442C144.191 311.355 142.495 311.675 140.959 312.843C138.002 315.012 136.47 318.523 135.67 322.042C135.521 322.803 136.617 323.181 136.766 322.421C137.963 318.681 139.786 314.383 143.389 312.531C144.978 311.646 146.701 311.467 148.042 310.042C149.154 308.954 149.735 307.38 150.201 305.974C151.546 306.892 153.596 307.676 154.38 305.624C154.759 304.528 154.041 303.052 153.828 301.921C153.507 300.224 153.302 298.36 153.264 296.609C153.074 293.277 153.477 289.98 154.188 286.77C154.249 286.319 154.284 285.727 154.513 285.391C154.716 284.913 155.342 284.356 155.934 284.39C156.526 284.425 157.561 285.255 158.065 285.599C159.268 286.543 160.578 288.054 161.295 289.529C161.322 289.67 161.49 289.785 161.631 289.758C163.999 289.897 165.207 287.766 165.54 285.653C165.996 282.638 166.363 279.933 167.438 277.094C168.045 275.661 168.68 274.37 169.456 273.052C169.8 272.548 170.205 271.593 170.717 271.203C172.023 270.371 172.97 271.51 173.722 272.393C174.696 273.674 175.078 274.92 175.512 276.449C175.814 277.27 176.283 278.207 177.211 278.471C179.377 279.087 181.238 276.539 181.96 274.939C183.256 272.498 183.906 269.739 184.725 267.095C185.631 264.142 186.873 261.418 188.761 259.011C190.534 256.773 192.784 254.737 194.893 252.729C196.147 251.613 197.629 250.162 199.352 249.983C201.075 249.805 202.869 250.784 202.792 252.702C202.662 254.338 201.939 255.938 201.977 257.689C201.873 259.465 202.193 261.162 202.655 262.832C202.735 263.257 203.239 263.601 203.663 263.521C206.322 262.873 208.538 261.429 210.727 259.845C213.313 258.038 215.785 256.4 218.788 255.248C221.649 254.122 224.59 253.421 227.612 253.143C230.35 252.919 233.593 253.039 235.716 254.982C235.911 255.238 236.22 255.326 236.503 255.273C239.522 260.414 239.142 266.929 236.967 272.465C234.73 278.452 230.619 283.035 226.897 288.131C226.323 288.971 225.07 290.086 224.974 291.129C224.878 292.172 225.833 292.578 226.505 293.037C228.548 294.555 229.135 297.666 228.856 300.062C228.227 306.038 222.382 309.191 217.118 310.77C213.356 311.773 209.372 312.379 205.564 312.365C202.489 312.36 199.166 311.816 196.438 313.648C196.182 313.843 196.236 314.126 196.289 314.409C197.777 317.642 199.426 321.724 197.584 325.147C195.715 328.429 191.005 328.292 187.824 327.721C184.306 326.921 181.759 325.059 179.106 322.631C177.009 320.83 174.374 319.277 171.681 320.517C171.143 320.765 171.417 321.446 171.983 321.339C172.972 321.152 173.583 322.062 173.743 322.911C173.93 323.9 173.498 324.714 172.73 325.298C171.477 326.414 169.639 326.76 168.111 327.195C164.941 328.233 161.549 328.873 158.245 329.204C154.799 329.561 151.415 329.468 148.066 328.782C144.999 328.043 141.26 326.845 139.684 323.921C139.684 323.921 139.657 323.779 139.516 323.806C141.132 323.062 142.606 322.344 144.222 321.6C150.774 318.313 157.131 314.77 163.488 311.227C165.872 309.899 168.255 308.57 170.781 307.215C170.693 307.525 170.746 307.807 171.109 308.178C172.109 309.6 174.187 310.526 175.787 311.249C177.723 312.202 179.862 312.677 181.912 313.461C183.963 314.246 185.697 315.676 187.404 316.964C187.572 317.079 187.686 316.911 187.518 316.796C186.572 315.657 185.51 314.686 184.166 313.768C182.654 312.735 181.107 312.295 179.392 311.74C177.651 311.044 176.024 310.179 174.37 309.173C173.698 308.715 172.744 308.309 172.186 307.682C171.823 307.311 172.026 306.834 172.087 306.383C181.111 301.458 190.134 296.533 198.52 290.557C204.461 286.361 210.154 281.626 214.617 275.804C214.846 275.468 214.342 275.124 214.113 275.46C206.842 282.69 198.792 288.895 190.158 294.332C190.182 292.131 190.232 290.072 190.114 287.897C190.085 285.413 191.063 283.618 192.103 281.371C194.121 277.33 195.379 273.138 196.133 268.603C196.106 268.461 195.938 268.347 195.824 268.515C194.814 273.245 192.734 277.738 190.46 281.974C188.274 285.901 188.448 290.701 188.427 295.245L188.454 295.386C186.494 296.635 184.508 297.742 182.521 298.849C179.087 300.815 175.767 302.613 172.332 304.579C172.65 303.934 172.543 303.368 172.551 302.634C172.647 301.591 172.769 300.689 173.033 299.761C173.499 298.355 174.302 297.178 174.176 295.738C173.933 292.123 172.338 288.323 170.991 285.063C170.937 284.78 170.54 285.002 170.594 285.285C171.277 287.352 171.791 289.305 172.333 291.4C172.653 293.096 173.363 295.305 172.782 296.88C172.025 299.073 170.068 302.664 171.652 304.854C171.652 304.854 171.652 304.854 171.679 304.995C169.41 306.156 167.167 307.458 164.898 308.618C163.167 309.531 161.437 310.443 159.706 311.355C159.997 310.568 160.119 309.666 160.383 308.738C160.594 307.527 160.972 306.43 160.873 305.131C160.775 303.832 160.252 302.612 159.702 301.252C159.153 299.891 158.603 298.53 158.195 297.143C158.168 297.002 157.886 297.055 157.939 297.338C158.843 299.803 160.393 302.586 160.308 305.238C160.284 307.439 158.935 309.597 158.912 311.798C154.515 314.092 150.286 316.501 145.835 318.513C142.065 320.25 138.294 321.986 134.47 323.44C132.713 324.211 130.929 324.841 129.145 325.47C127.361 326.1 125.409 326.615 123.732 327.81C123.476 328.005 123.583 328.57 124.007 328.49C127.249 328.61 130.737 326.927 133.74 325.775C135.382 325.172 136.884 324.595 138.358 323.878C138.358 323.878 138.385 324.019 138.412 324.161C139.866 327.986 144.25 329.502 147.909 330.276C152.469 331.172 157.266 330.999 161.904 329.978C164.306 329.524 166.656 328.788 169.005 328.052C170.789 327.422 172.741 326.907 173.914 325.368C174.999 324.138 174.855 321.822 173.767 320.71C175.543 320.814 177.135 322.27 178.418 323.639C179.674 324.866 180.762 325.979 182.248 326.87C185.219 328.652 188.763 329.594 192.235 329.378C195.566 329.189 198.63 327.586 199.456 324.208C200.397 320.662 199.023 317.261 197.393 314.054C198.955 313.027 200.9 313.246 202.702 313.491C204.505 313.737 206.254 313.699 208.004 313.662C211.502 313.588 215.062 313.062 218.401 312.139C223.524 310.587 228.945 307.513 230.387 301.969C231.002 299.803 230.778 297.063 229.671 295.075C229.201 294.139 228.308 293.282 227.468 292.709C227.105 292.338 226.345 292.189 226.124 291.791C225.318 290.625 227.251 289.235 227.966 288.368C232.219 283.758 236.197 278.468 238.433 272.481C241.147 266.697 241.306 259.784 237.924 254.272Z" fill="white"/>
<path d="M222.595 268.441C225.533 265.397 228.754 262.3 231.02 258.797C231.135 258.629 230.967 258.514 230.826 258.541C227.861 261.443 225.171 265.026 222.374 268.044C222.144 268.38 222.507 268.751 222.595 268.441Z" fill="white"/>
<path d="M217.499 270.135C219.555 267.843 219.453 264.202 218.495 261.454C218.442 261.171 217.877 261.278 217.93 261.56C218.914 264.45 218.237 267.067 217.163 269.906C217.075 270.215 217.384 270.303 217.499 270.135Z" fill="white"/>
<path d="M207.282 281.143C207.631 277.562 207.273 274.115 207.763 270.508C207.851 270.199 207.4 270.137 207.312 270.447C206.486 273.824 205.767 277.768 206.716 281.249C206.884 281.364 207.194 281.452 207.282 281.143Z" fill="white"/>
<path d="M205.183 297.94C203.353 297.553 201.551 297.307 199.607 297.089C198.255 296.904 196.257 296.403 194.95 297.235C194.809 297.262 194.836 297.403 194.977 297.377C198.953 297.505 203.204 298.313 207.199 299.317C209.957 299.968 214.024 302.129 216.698 300.013C216.954 299.818 216.759 299.562 216.477 299.616C212.687 300.477 208.842 298.714 205.183 297.94Z" fill="white"/>
<path d="M149.723 318.95C149.441 319.004 149.494 319.287 149.803 319.375C150.113 319.463 150.254 319.436 150.395 319.409C151.579 319.479 152.79 319.69 153.886 320.068C155.15 320.562 156.326 321.365 157.476 322.027C157.644 322.142 157.9 321.947 157.705 321.691C155.75 319.863 152.435 318.585 149.723 318.95Z" fill="white"/>
<path d="M157.749 314.946C159.907 316.296 162.569 317.991 165.273 318.359C165.441 318.474 165.643 317.996 165.475 317.881C163.176 316.558 160.534 315.739 158.093 314.442C157.757 314.213 157.413 314.717 157.749 314.946Z" fill="white"/>
</g>
<g clip-path="url(#clip1_416_21680)">
<path d="M65.6353 184.989C65.6431 184.806 65.7223 184.662 65.984 184.526C68.9727 182.993 72.8275 185.121 75.1993 186.898C76.6509 187.98 77.9123 189.238 79.0231 190.601C80.0942 192.035 81.007 193.756 82.4586 194.838C83.0924 193.69 83.4725 192.495 83.5274 191.215C83.6062 190.228 83.6851 189.242 84.5174 188.578C86.1819 187.25 88.2839 188.504 89.355 189.938C90.7357 191.823 91.9104 194.251 92.6568 196.442C93.3954 198.816 93.1506 201.115 93.12 203.532C93.073 204.63 93.0895 205.95 93.4072 207.062C93.4389 207.173 93.4946 207.578 93.6374 207.657C93.7802 207.736 94.5572 207.509 94.5968 207.437C94.787 207.262 94.8741 206.935 95.0247 206.831C95.3338 206.44 95.6428 206.049 96.0947 205.736C96.7367 205.248 97.9417 204.415 98.8061 204.705C99.6706 204.995 99.8694 206.322 100.02 207.061C100.545 209.317 100.625 211.702 100.016 213.987C99.8812 214.568 99.7071 215.221 99.7153 215.881C99.771 216.286 99.9934 217.064 100.628 216.759C100.778 216.655 100.937 216.368 101.127 216.192C101.848 215.56 102.855 215.086 103.775 214.938C104.806 214.758 105.67 215.048 105.766 216.225C105.854 217.584 105.497 219.073 105.149 220.379C104.761 221.756 104.262 223.166 103.732 224.465C103.407 225.222 103.05 225.868 102.654 226.585C102.575 226.729 102.496 226.872 102.417 227.016C102.298 227.231 102.242 227.669 102.488 227.898C102.877 228.206 103.511 227.901 103.884 227.732C104.035 227.628 104.28 227.857 104.273 228.04C104.257 229.249 104.234 230.641 105.178 231.63C105.948 232.429 106.804 232.902 107.423 233.806C108.629 235.501 108.829 237.671 108.631 239.716C108.576 240.153 107.918 240.165 107.973 239.727C107.996 237.492 107.781 234.846 106.17 233.208C105.472 232.448 104.576 232.046 104.107 231.039C103.703 230.254 103.671 229.3 103.67 228.457C102.782 228.716 101.537 228.777 101.481 227.529C101.473 226.869 102.123 226.198 102.44 225.624C102.915 224.763 103.359 223.791 103.691 222.851C104.388 221.082 104.76 219.228 104.95 217.366C104.997 217.111 105.084 216.785 105.021 216.562C104.997 216.268 104.759 215.856 104.433 215.77C104.108 215.684 103.403 215.95 103.07 216.047C102.253 216.345 101.278 216.931 100.628 217.602C100.588 217.674 100.477 217.706 100.406 217.667C99.1054 217.323 98.8352 215.957 99.0328 214.755C99.3254 213.044 99.6102 211.516 99.538 209.791C99.4662 208.908 99.3548 208.098 99.1721 207.248C99.0768 206.914 99.0289 206.326 98.8226 206.025C98.2672 205.344 97.5537 205.793 96.9909 206.138C96.2378 206.658 95.8099 207.264 95.3028 208.014C94.9937 208.406 94.5736 208.829 94.0265 208.808C92.7498 208.758 92.2018 207.052 92.0983 206.058C91.8359 204.509 91.9779 202.902 92.0089 201.327C92.0477 199.57 91.8645 197.877 91.277 196.242C90.7212 194.718 89.872 193.219 89.0942 191.76C88.6181 190.935 88.0784 189.888 87.1821 189.487C86.2859 189.086 85.1441 189.298 84.8433 190.349C84.6217 191.257 84.7252 192.25 84.3926 193.19C84.1314 194.17 83.656 195.031 83.1093 195.853C82.9904 196.068 82.6574 196.165 82.4433 196.047C81.1266 195.226 80.1903 194.054 79.2937 192.81C78.2226 191.376 77.1831 190.053 75.7711 188.899C74.4305 187.784 72.971 186.885 71.3927 186.201C69.9572 185.596 68.1887 185.088 66.6982 185.763C66.5476 185.867 66.3652 185.86 66.2224 185.781C63.6781 188.028 62.7203 191.619 62.9042 194.997C63.0407 198.631 64.4379 201.836 65.5337 205.25C65.6926 205.806 66.1687 206.631 66.0342 207.212C65.8997 207.793 65.3129 207.843 64.8689 207.973C63.4973 208.433 62.6258 210.011 62.3489 211.357C61.6209 214.7 64.2073 217.438 66.7614 219.223C68.6096 220.431 70.648 221.462 72.7021 222.128C74.3596 222.669 76.247 222.961 77.3895 224.435C77.4927 224.585 77.4135 224.729 77.3342 224.872C75.9552 226.358 74.3384 228.275 74.7201 230.451C75.1413 232.557 77.7029 233.315 79.5189 233.569C81.5569 233.758 83.2615 233.201 85.1246 232.356C86.5754 231.753 88.2722 231.379 89.5018 232.526C89.7478 232.755 89.4783 233.075 89.1928 232.917C88.6931 232.641 88.2016 233.025 87.9639 233.456C87.6866 233.958 87.7741 234.475 88.0836 234.926C88.5597 235.751 89.4877 236.263 90.2333 236.768C91.7564 237.89 93.4696 238.836 95.1907 239.599C96.9831 240.401 98.8231 240.949 100.75 241.17C102.534 241.312 104.763 241.325 106.134 240.022C106.134 240.022 106.173 239.95 106.245 239.99C105.507 239.302 104.841 238.653 104.103 237.965C101.16 235.029 98.3669 231.989 95.5742 228.95C94.527 227.81 93.4798 226.67 92.3611 225.491C92.3533 225.673 92.2741 225.817 92.0124 225.953C91.2198 226.546 89.9352 226.679 88.9441 226.788C87.7309 226.96 86.4939 226.839 85.2489 226.901C84.004 226.963 82.8148 227.43 81.6652 227.825C81.5542 227.857 81.5224 227.746 81.6334 227.714C82.3469 227.265 83.0921 226.928 83.9801 226.669C84.9791 226.378 85.891 226.413 86.9139 226.416C87.9765 226.347 89.0072 226.167 90.0776 225.915C90.5216 225.786 91.1084 225.735 91.5206 225.495C91.7822 225.358 91.7583 225.064 91.8057 224.809C87.8231 220.551 83.8404 216.293 80.3888 211.578C77.937 208.259 75.7151 204.691 74.3494 200.754C74.2858 200.532 74.6188 200.435 74.6824 200.657C77.3095 205.852 80.5391 210.631 84.2205 215.098C84.6006 213.903 84.941 212.781 85.3925 211.625C85.8517 210.287 85.645 209.143 85.4858 207.744C85.1198 205.202 85.19 202.713 85.5932 200.126C85.6329 200.055 85.7439 200.022 85.7756 200.133C85.4756 202.87 85.7941 205.668 86.2632 208.361C86.7401 210.871 85.7898 213.436 84.99 215.897L84.9504 215.969C85.7835 216.991 86.6562 217.941 87.5289 218.891C89.0284 220.561 90.4961 222.12 91.9956 223.791C91.9399 223.385 92.0983 223.098 92.225 222.7C92.3596 222.119 92.4545 221.61 92.478 221.061C92.4776 220.218 92.2552 219.44 92.58 218.683C93.3562 216.771 94.8937 214.998 96.2014 213.473C96.2806 213.329 96.4551 213.519 96.3759 213.663C95.6389 214.66 95.0129 215.626 94.3473 216.662C93.872 217.524 93.0954 218.593 93.1275 219.547C93.144 220.867 93.5574 223.155 92.3129 224.06C92.3129 224.06 92.3129 224.06 92.2733 224.131C93.2887 225.16 94.2646 226.26 95.2801 227.289C96.0496 228.089 96.8192 228.888 97.5887 229.687C97.5726 229.21 97.6675 228.701 97.6911 228.152C97.7938 227.46 97.7856 226.8 98.0707 226.115C98.3559 225.429 98.8552 224.862 99.3941 224.224C99.933 223.585 100.472 222.946 100.939 222.268C100.979 222.196 101.122 222.275 101.043 222.418C100.115 223.592 98.7838 224.823 98.3563 226.272C97.9762 227.467 98.3179 228.873 97.9378 230.067C99.8973 232.085 101.746 234.136 103.785 236.01C105.506 237.616 107.228 239.222 109.028 240.684C109.838 241.411 110.686 242.067 111.535 242.723C112.384 243.379 113.344 244.002 114.034 244.945C114.137 245.096 113.979 245.383 113.764 245.265C111.996 244.756 110.417 243.23 109.005 242.076C108.228 241.459 107.522 240.882 106.855 240.233C106.855 240.233 106.816 240.305 106.776 240.377C105.31 242.189 102.677 242.234 100.568 242.006C97.9512 241.684 95.3974 240.743 93.0813 239.371C91.8677 238.701 90.7334 237.887 89.5991 237.074C88.7503 236.418 87.7906 235.794 87.4332 234.755C87.0681 233.898 87.5591 232.671 88.344 232.261C87.3685 232.004 86.2507 232.51 85.3152 233.023C84.4194 233.465 83.6346 233.875 82.6752 234.094C80.7564 234.533 78.6788 234.416 76.8467 233.685C75.086 232.994 73.7215 231.585 73.8791 229.613C74.005 227.529 75.3523 225.932 76.8028 224.485C76.1442 223.654 75.0578 223.428 74.0427 223.243C73.0276 223.057 72.0918 222.727 71.1559 222.398C69.2842 221.739 67.46 220.826 65.826 219.736C63.3432 217.991 60.971 215.371 61.1836 212.118C61.2385 210.837 61.8484 209.395 62.7995 208.516C63.2196 208.092 63.8538 207.787 64.4088 207.625C64.6705 207.489 65.1066 207.542 65.2968 207.366C65.9389 206.878 65.1454 205.785 64.9152 205.189C63.4467 201.944 62.2477 198.38 62.1112 194.747C61.6813 191.139 62.8293 187.372 65.6353 184.989Z" fill="white"/>
<path d="M71.3653 195.361C70.3255 193.196 69.1429 190.951 68.5471 188.656C68.5154 188.545 68.6264 188.513 68.6978 188.552C69.7772 190.646 70.5871 193.059 71.5555 195.186C71.6191 195.408 71.3575 195.544 71.3653 195.361Z" fill="white"/>
<path d="M73.8085 197.178C73.1099 195.576 73.8147 193.624 74.8212 192.307C74.9004 192.164 75.186 192.321 75.1067 192.465C74.0607 193.853 73.9583 195.389 74.0305 197.114C74.0226 197.297 73.8402 197.29 73.8085 197.178Z" fill="white"/>
<path d="M77.3487 204.938C77.7998 202.94 78.6078 201.139 78.9874 199.101C78.9953 198.918 79.2491 198.965 79.2412 199.148C79.0835 201.12 78.7674 203.38 77.6343 205.095C77.5233 205.128 77.3409 205.121 77.3487 204.938Z" fill="white"/>
<path d="M75.4818 214.393C76.5365 214.507 77.5515 214.693 78.638 214.919C79.3993 215.058 80.565 215.14 81.1204 215.821C81.1918 215.86 81.1521 215.932 81.0808 215.893C78.9157 215.259 76.4811 214.945 74.1498 214.782C72.5479 214.646 69.971 215.096 68.9077 213.479C68.8045 213.329 68.9551 213.225 69.0979 213.303C70.9857 214.439 73.3724 214.165 75.4818 214.393Z" fill="white"/>
<path d="M101.612 235.56C101.755 235.638 101.675 235.782 101.493 235.775C101.311 235.768 101.239 235.728 101.168 235.689C100.517 235.517 99.8276 235.417 99.1694 235.428C98.4003 235.472 97.6233 235.698 96.8859 235.853C96.7749 235.885 96.6717 235.735 96.8223 235.631C98.2018 234.988 100.216 234.883 101.612 235.56Z" fill="white"/>
<path d="M98.0022 231.975C96.5988 232.324 94.8624 232.77 93.3398 232.491C93.2288 232.523 93.2049 232.229 93.3159 232.197C94.7906 231.888 96.3607 231.912 97.9068 231.642C98.1288 231.577 98.2242 231.911 98.0022 231.975Z" fill="white"/>
</g>
<g clip-path="url(#clip2_416_21680)">
<path d="M233.956 438.119C234.002 438.28 233.974 438.427 233.786 438.621C231.635 440.808 227.682 440.069 225.116 439.208C223.546 438.686 222.092 437.957 220.738 437.095C219.397 436.159 218.112 434.929 216.543 434.407C216.323 435.584 216.336 436.729 216.656 437.855C216.871 438.733 217.085 439.611 216.554 440.425C215.492 442.055 213.31 441.57 211.969 440.634C210.231 439.396 208.516 437.628 207.24 435.942C205.919 434.096 205.471 432.032 204.804 429.927C204.53 428.962 204.137 427.823 203.543 426.95C203.483 426.863 203.319 426.527 203.172 426.5C203.026 426.472 202.417 426.892 202.403 426.965C202.289 427.172 202.307 427.48 202.206 427.614C202.05 428.042 201.895 428.47 201.593 428.87C201.176 429.478 200.37 430.545 199.537 430.542C198.705 430.539 198.152 429.445 197.809 428.848C196.707 427.043 195.953 424.998 195.825 422.842C195.775 422.299 195.739 421.683 195.542 421.113C195.378 420.778 194.962 420.167 194.499 420.614C194.399 420.747 194.344 421.041 194.229 421.249C193.785 422.003 193.048 422.703 192.293 423.095C191.451 423.547 190.618 423.544 190.198 422.551C189.731 421.398 189.613 420.005 189.54 418.773C189.481 417.467 189.509 416.101 189.597 414.823C189.661 414.073 189.785 413.411 189.923 412.675C189.95 412.528 189.978 412.381 190.005 412.234C190.046 412.013 189.969 411.618 189.69 411.489C189.264 411.334 188.802 411.78 188.527 412.034C188.427 412.167 188.148 412.039 188.102 411.878C187.768 410.826 187.389 409.612 186.287 409.025C185.39 408.553 184.512 408.389 183.716 407.783C182.183 406.659 181.388 404.835 180.972 403.005C180.895 402.61 181.462 402.412 181.54 402.807C182.161 404.751 183.108 406.984 184.974 407.942C185.797 408.401 186.69 408.491 187.385 409.231C187.961 409.795 188.263 410.613 188.505 411.344C189.2 410.865 190.262 410.454 190.669 411.52C190.865 412.09 190.495 412.858 190.384 413.447C190.219 414.33 190.114 415.3 190.095 416.211C189.998 417.944 190.208 419.659 190.578 421.327C190.61 421.562 190.628 421.87 190.747 422.044C190.852 422.293 191.177 422.582 191.483 422.563C191.79 422.544 192.325 422.111 192.586 421.931C193.209 421.439 193.886 420.651 194.257 419.883C194.271 419.809 194.358 419.749 194.431 419.763C195.657 419.688 196.284 420.795 196.457 421.894C196.694 423.461 196.886 424.868 197.444 426.343C197.759 427.087 198.088 427.758 198.491 428.442C198.669 428.704 198.879 429.201 199.144 429.402C199.821 429.834 200.311 429.24 200.7 428.779C201.204 428.112 201.401 427.463 201.626 426.668C201.781 426.24 202.024 425.752 202.504 425.613C203.626 425.29 204.59 426.613 204.965 427.444C205.637 428.712 205.975 430.146 206.4 431.521C206.871 433.056 207.516 434.471 208.494 435.72C209.413 436.882 210.58 437.938 211.673 438.98C212.322 439.558 213.091 440.311 213.983 440.402C214.875 440.492 215.804 439.981 215.763 438.983C215.695 438.132 215.32 437.301 215.339 436.39C215.284 435.466 215.449 434.583 215.688 433.714C215.729 433.493 215.99 433.313 216.209 433.354C217.587 433.688 218.735 434.436 219.869 435.257C221.209 436.193 222.49 437.042 224.045 437.637C225.528 438.219 227.051 438.58 228.616 438.72C230.034 438.833 231.714 438.766 232.812 437.753C232.913 437.62 233.073 437.573 233.219 437.601C234.781 434.922 234.581 431.534 233.452 428.658C232.291 425.547 230.16 423.168 228.23 420.523C227.933 420.086 227.283 419.508 227.233 418.965C227.183 418.423 227.677 418.211 228.025 417.971C229.083 417.179 229.385 415.56 229.239 414.314C228.911 411.206 225.883 409.574 223.156 408.76C221.207 408.243 219.144 407.933 217.172 407.945C215.579 407.952 213.859 408.24 212.446 407.29C212.313 407.189 212.34 407.042 212.368 406.895C213.137 405.211 213.989 403.086 213.034 401.308C212.064 399.603 209.626 399.68 207.978 399.982C206.157 400.403 204.839 401.375 203.466 402.641C202.381 403.581 201.017 404.392 199.622 403.75C199.343 403.622 199.485 403.268 199.778 403.323C200.29 403.418 200.606 402.944 200.689 402.503C200.785 401.988 200.561 401.565 200.163 401.262C199.513 400.684 198.562 400.506 197.77 400.282C196.128 399.746 194.371 399.418 192.66 399.25C190.875 399.069 189.123 399.122 187.389 399.483C185.801 399.872 183.865 400.5 183.05 402.023C183.05 402.023 183.036 402.097 182.963 402.083C183.8 402.468 184.564 402.839 185.401 403.224C188.796 404.925 192.089 406.759 195.383 408.594C196.618 409.281 197.853 409.969 199.161 410.671C199.116 410.51 199.143 410.363 199.331 410.169C199.848 409.428 200.924 408.944 201.752 408.566C202.754 408.068 203.862 407.818 204.923 407.407C205.985 406.996 206.882 406.25 207.766 405.578C207.852 405.518 207.912 405.605 207.825 405.665C207.335 406.259 206.786 406.765 206.09 407.244C205.308 407.784 204.507 408.015 203.619 408.306C202.717 408.67 201.875 409.122 201.02 409.647C200.672 409.887 200.177 410.099 199.889 410.426C199.701 410.619 199.807 410.868 199.838 411.102C204.514 413.652 209.189 416.201 213.534 419.298C216.612 421.473 219.563 423.928 221.877 426.95C221.995 427.125 221.735 427.305 221.616 427.13C217.847 423.379 213.676 420.162 209.202 417.346C209.215 418.491 209.242 419.562 209.182 420.693C209.168 421.985 209.675 422.918 210.215 424.085C211.262 426.184 211.915 428.363 212.308 430.721C212.294 430.795 212.207 430.854 212.147 430.767C211.622 428.308 210.543 425.974 209.364 423.773C208.23 421.734 208.318 419.237 208.305 416.874L208.319 416.8C207.304 416.153 206.274 415.58 205.245 415.007C203.466 413.989 201.746 413.058 199.966 412.04C200.131 412.375 200.076 412.67 200.08 413.051C200.13 413.594 200.194 414.062 200.331 414.545C200.573 415.276 200.989 415.887 200.925 416.636C200.801 418.517 199.976 420.495 199.28 422.193C199.253 422.34 199.047 422.225 199.074 422.078C199.427 421.002 199.693 419.985 199.972 418.895C200.138 418.012 200.504 416.862 200.202 416.044C199.809 414.904 198.794 413.039 199.614 411.898C199.614 411.898 199.614 411.898 199.628 411.824C198.452 411.224 197.29 410.549 196.114 409.949C195.218 409.477 194.321 409.004 193.425 408.532C193.575 408.941 193.639 409.41 193.776 409.893C193.886 410.522 194.082 411.092 194.032 411.768C193.981 412.444 193.711 413.079 193.427 413.787C193.143 414.496 192.859 415.204 192.648 415.927C192.635 416 192.488 415.973 192.516 415.826C192.983 414.542 193.784 413.093 193.739 411.713C193.726 410.568 193.026 409.448 193.013 408.303C190.735 407.115 188.544 405.868 186.238 404.828C184.285 403.929 182.331 403.031 180.35 402.28C179.44 401.881 178.516 401.556 177.592 401.231C176.668 400.906 175.657 400.641 174.788 400.021C174.655 399.92 174.71 399.626 174.93 399.667C176.609 399.6 178.416 400.471 179.971 401.067C180.822 401.378 181.6 401.676 182.364 402.047C182.364 402.047 182.378 401.973 182.391 401.9C183.143 399.908 185.412 399.114 187.307 398.706C189.668 398.234 192.152 398.318 194.554 398.843C195.799 399.075 197.016 399.455 198.233 399.835C199.157 400.16 200.168 400.425 200.776 401.224C201.338 401.863 201.265 403.067 200.702 403.648C201.621 403.591 202.445 402.831 203.109 402.118C203.759 401.478 204.322 400.897 205.091 400.432C206.629 399.501 208.464 399.006 210.262 399.114C211.987 399.208 213.574 400.038 214.004 401.793C214.492 403.637 213.782 405.408 212.94 407.078C213.749 407.61 214.756 407.494 215.69 407.364C216.623 407.233 217.529 407.251 218.435 407.268C220.247 407.302 222.091 407.57 223.82 408.046C226.473 408.847 229.282 410.438 230.031 413.32C230.351 414.446 230.236 415.871 229.664 416.907C229.421 417.394 228.959 417.841 228.524 418.14C228.336 418.334 227.943 418.413 227.828 418.62C227.412 419.227 228.413 419.948 228.784 420.398C230.988 422.79 233.051 425.536 234.211 428.647C235.619 431.652 235.705 435.248 233.956 438.119Z" fill="white"/>
<path d="M226.011 430.77C227.534 432.349 229.204 433.956 230.379 435.775C230.438 435.862 230.351 435.922 230.278 435.908C228.741 434.403 227.347 432.543 225.897 430.977C225.778 430.802 225.966 430.609 226.011 430.77Z" fill="white"/>
<path d="M223.372 429.895C224.437 431.085 224.386 432.979 223.891 434.41C223.864 434.557 223.571 434.502 223.598 434.355C224.107 432.851 223.755 431.49 223.198 430.015C223.152 429.854 223.312 429.808 223.372 429.895Z" fill="white"/>
<path d="M218.075 424.184C218.258 426.045 218.074 427.839 218.329 429.714C218.375 429.875 218.142 429.908 218.096 429.747C217.667 427.991 217.292 425.941 217.783 424.129C217.87 424.069 218.03 424.023 218.075 424.184Z" fill="white"/>
<path d="M216.981 415.449C216.034 415.653 215.1 415.783 214.094 415.9C213.394 415.997 212.359 416.261 211.682 415.83C211.609 415.816 211.623 415.742 211.696 415.756C213.755 415.684 215.956 415.258 218.025 414.731C219.452 414.388 221.557 413.259 222.943 414.355C223.076 414.456 222.975 414.59 222.829 414.563C220.866 414.119 218.875 415.042 216.981 415.449Z" fill="white"/>
<path d="M188.251 404.595C188.105 404.567 188.132 404.42 188.293 404.374C188.453 404.328 188.526 404.342 188.599 404.355C189.212 404.318 189.839 404.206 190.407 404.008C191.061 403.749 191.67 403.33 192.265 402.984C192.352 402.924 192.484 403.025 192.384 403.159C191.372 404.112 189.656 404.781 188.251 404.595Z" fill="white"/>
<path d="M192.41 406.667C193.526 405.962 194.904 405.077 196.304 404.882C196.391 404.822 196.496 405.07 196.409 405.13C195.219 405.821 193.851 406.251 192.588 406.929C192.414 407.048 192.236 406.787 192.41 406.667Z" fill="white"/>
</g>
</g>
<defs>
<clipPath id="clip0_416_21680">
<rect width="127" height="79" fill="white" transform="translate(111.776 264.462) rotate(-10.688)"/>
</clipPath>
<clipPath id="clip1_416_21680">
<rect width="72" height="45" fill="white" transform="matrix(-0.875457 -0.483297 -0.483297 0.875457 131.781 212.797)"/>
</clipPath>
<clipPath id="clip2_416_21680">
<rect width="65.7576" height="41.0985" fill="white" transform="matrix(0.982969 0.183772 0.183772 -0.982969 168.624 432.988)"/>
</clipPath>
</defs>
</svg>
