<svg width="165" height="200" viewBox="0 0 165 200" fill="none" xmlns="http://www.w3.org/2000/svg">
<mask id="mask0_416_21697" style="mask-type:alpha" maskUnits="userSpaceOnUse" x="0" y="0" width="165" height="200">
<rect width="165" height="200" fill="#C4C4C4"/>
</mask>
<g mask="url(#mask0_416_21697)">
<path d="M133.496 86.2834C122.361 83.9206 76.012 76.6096 57.6909 118.142C39.3699 159.674 67.5964 179.616 83.943 174.596C83.943 174.596 104.856 169.571 101.979 135.742C99.101 101.913 70.73 59.446 46.1269 45.092C21.5239 30.738 -26.5726 23.6342 -72.6683 42.2375" stroke="#B76F38" stroke-dasharray="4 4"/>
<path d="M123 68.7412C123 76.1732 129.187 77.567 132.097 84.7092C132.333 85.2895 133.15 85.2866 133.387 84.7064C136.012 78.2668 141.301 76.501 142.313 70.7643C143.309 65.1167 139.399 59.5846 133.69 59.0449C127.883 58.496 123 63.0484 123 68.7412ZM127.597 68.7412C127.597 65.9001 129.9 63.597 132.741 63.597C135.582 63.597 137.886 65.9001 137.886 68.7412C137.886 71.5824 135.582 73.8855 132.741 73.8855C129.9 73.8855 127.597 71.5824 127.597 68.7412Z" fill="#588F8E"/>
</g>
</svg>
