<svg width="840" height="81" viewBox="0 0 840 81" fill="none" xmlns="http://www.w3.org/2000/svg">
<path d="M0 30.9649C0 41.2016 8.52195 43.1214 12.5299 52.9589C12.8555 53.7583 13.9809 53.7542 14.3067 52.955C17.9222 44.0853 25.2074 41.6531 26.6013 33.7514C27.9737 25.9726 22.5879 18.3528 14.724 17.6095C6.72636 16.8535 0 23.1237 0 30.9649ZM6.3318 30.9649C6.3318 27.0517 9.50405 23.8794 13.4174 23.8794C17.3308 23.8794 20.503 27.0517 20.503 30.9649C20.503 34.8783 17.3308 38.0505 13.4174 38.0505C9.50405 38.0505 6.3318 34.8783 6.3318 30.9649Z" fill="#588F8E"/>
<path d="M308.533 13.4173C308.533 23.654 317.055 25.5738 321.063 35.4113C321.388 36.2106 322.514 36.2066 322.839 35.4074C326.455 26.5377 333.74 24.1054 335.134 16.2038C336.506 8.42503 331.121 0.805228 323.257 0.0618873C315.259 -0.694131 308.533 5.57612 308.533 13.4173ZM314.865 13.4173C314.865 9.50409 318.037 6.33175 321.95 6.33175C325.863 6.33175 329.036 9.50409 329.036 13.4173C329.036 17.3307 325.863 20.5029 321.95 20.5029C318.037 20.5029 314.865 17.3307 314.865 13.4173Z" fill="#588F8E"/>
<path d="M812.653 18.9269C812.653 29.1635 821.175 31.0834 825.183 40.9208C825.509 41.7202 826.634 41.7161 826.96 40.9169C830.575 32.0473 837.861 29.615 839.254 21.7134C840.627 13.9345 835.241 6.31475 827.377 5.57141C819.379 4.81539 812.653 11.0856 812.653 18.9269ZM818.985 18.9269C818.985 15.0136 822.157 11.8413 826.071 11.8413C829.984 11.8413 833.156 15.0136 833.156 18.9269C833.156 22.8402 829.984 26.0125 826.071 26.0125C822.157 26.0125 818.985 22.8402 818.985 18.9269Z" fill="#588F8E"/>
<path d="M585.386 30.9649C585.386 41.2016 593.908 43.1214 597.916 52.9589C598.241 53.7583 599.367 53.7542 599.692 52.955C603.308 44.0853 610.593 41.6531 611.987 33.7514C613.359 25.9726 607.974 18.3528 600.11 17.6095C592.112 16.8535 585.386 23.1237 585.386 30.9649ZM591.718 30.9649C591.718 27.0517 594.89 23.8794 598.803 23.8794C602.717 23.8794 605.889 27.0517 605.889 30.9649C605.889 34.8783 602.717 38.0505 598.803 38.0505C594.89 38.0505 591.718 34.8783 591.718 30.9649Z" fill="#588F8E"/>
<path d="M9.64168 64.3834C9.64168 64.3834 84.7088 29.2603 163.229 64.3834C241.749 99.5065 316.816 64.3834 316.816 64.3834C361.024 64.3834 406.327 28.5754 464.176 64.3834C522.026 100.191 605.839 64.3834 605.839 64.3834C605.839 64.3834 643.028 32.7085 715.444 64.3834C787.86 96.0582 825.05 64.3833 825.05 64.3833" stroke="#B76F38" stroke-dasharray="4 4"/>
<circle cx="15.1512" cy="64.3784" r="5.50951" fill="#B76F38"/>
<circle cx="322.307" cy="64.3784" r="5.50951" fill="#B76F38"/>
<circle cx="826.427" cy="64.3784" r="5.50951" fill="#B76F38"/>
<circle cx="599.16" cy="64.3784" r="5.50951" fill="#B76F38"/>
</svg>
