<svg width="126" height="81" viewBox="0 0 126 81" fill="none" xmlns="http://www.w3.org/2000/svg">
<g clip-path="url(#clip0_416_6873)">
<path d="M97.9128 17.3028C97.9128 17.0956 97.9646 16.7848 97.9646 16.5257C97.9646 16.3185 98.068 16.2667 98.2749 16.2149C98.5335 16.1113 98.7922 16.0077 99.0508 15.9041C99.1025 15.9041 99.1025 15.8005 99.1025 15.8005C99.0508 15.7486 98.9991 15.6968 98.9473 15.6968C98.7922 15.6968 98.637 15.7486 98.4818 15.7486C98.1715 15.7486 98.0163 15.645 97.9646 15.3342C97.9646 15.2306 98.0163 15.0234 97.9128 14.9716C97.4473 14.5571 97.6025 13.8837 97.3956 13.3656C97.2404 13.003 97.137 12.5885 97.3439 12.1741C97.3956 12.0705 97.3956 11.9151 97.2922 11.8114C96.9301 11.2416 97.137 10.5681 97.1887 9.99825C97.3439 9.01395 97.5508 8.02965 97.9646 7.14896C98.068 6.83813 98.2232 6.63091 98.5853 6.63091C98.6887 6.63091 98.8439 6.5791 98.8439 6.42369C98.8439 6.26827 98.7404 6.16466 98.637 6.21647C98.2749 6.32008 98.0163 6.11286 97.8094 5.85383C97.6025 5.543 97.3956 5.23216 97.1887 4.92133C96.8266 4.24786 96.3611 3.78162 95.637 3.6262C95.5335 3.6262 95.3784 3.52259 95.2749 3.36717C95.068 3.21176 94.8611 3.10815 94.6025 3.05634C94.2404 3.00453 93.8784 2.95273 93.5163 2.79731C93.3094 2.74551 93.1025 2.59009 92.9991 2.33107C92.9473 2.17565 93.0508 1.91662 93.2059 1.91662C93.568 1.86482 93.9301 1.81301 94.2922 1.86482C94.8611 1.96843 95.3784 1.7094 95.8439 1.50218C96.0508 1.39857 96.1542 1.13954 96.3611 1.03593C96.568 0.880516 96.8266 0.880516 97.0335 0.7251C97.137 0.673295 97.2404 0.569684 97.2922 0.466073C97.4473 0.155241 97.7059 0.0516305 98.0163 0.103436C98.1715 0.103436 98.3266 0.103436 98.5335 0.155241C99.0508 0.258852 99.6197 0.207047 100.137 0.0516305C100.602 -0.103785 101.016 0.103436 101.378 0.414268C101.792 0.7251 101.999 1.19135 102.154 1.6576C102.258 1.96843 102.413 2.12384 102.723 2.27926C103.758 2.79731 104.844 3.21176 106.034 3.26356C106.085 3.26356 106.137 3.21176 106.137 3.21176C106.137 3.15995 106.137 3.10815 106.085 3.10815C105.827 2.84912 105.516 2.79731 105.206 2.74551C104.689 2.59009 104.223 2.38287 103.706 2.17565C103.447 2.02023 103.189 1.91662 103.085 1.60579C102.982 1.24315 102.723 1.08774 102.413 0.932321C102.361 0.880516 102.258 0.7251 102.309 0.621489C102.361 0.517879 102.465 0.414268 102.568 0.414268C103.137 0.310657 103.706 0.310657 104.275 0.466073C105.051 0.673295 105.775 0.828711 106.499 1.19135C106.758 1.29496 107.068 1.34676 107.327 1.39857C107.947 1.45037 108.568 1.45037 109.189 1.50218C109.447 1.50218 109.706 1.55399 109.913 1.6576C110.378 1.81301 110.844 1.96843 111.361 1.96843C111.568 1.96843 111.775 2.07204 111.93 2.17565C112.344 2.27926 112.758 2.59009 113.171 2.84912C113.844 3.31537 114.465 3.83342 114.827 4.6105C115.189 5.33578 115.861 5.80202 116.534 6.21647C116.896 6.47549 117.309 6.68271 117.671 6.94174C118.137 7.30438 118.602 7.61521 119.12 7.87424C119.947 8.28868 120.775 8.65132 121.654 8.91034C121.809 8.96215 121.965 8.91034 122.068 8.75493C122.171 8.54771 122.378 8.4959 122.585 8.54771C122.844 8.65132 123.154 8.75493 123.413 8.85854C124.034 9.16937 124.706 9.4284 125.43 9.4802C125.896 9.53201 126.051 9.89464 126.051 10.4127C126.051 10.5681 125.896 10.7235 125.74 10.7235C125.171 10.6717 124.602 10.6717 124.034 10.5681C123.361 10.4645 122.637 10.3609 121.913 10.4127C121.499 10.4645 121.085 10.3609 120.723 10.2573C120.154 10.0501 119.689 10.2055 119.482 10.7235C119.171 11.4488 118.602 11.9151 118.034 12.3813C117.671 12.6921 117.361 13.003 117.102 13.3656C116.844 13.78 116.482 14.1945 116.068 14.4017C115.706 14.6089 115.551 14.9198 115.499 15.3342C115.447 15.4896 115.447 15.645 115.447 15.8523C115.396 16.4221 115.292 16.992 115.24 17.5618C115.189 18.2871 115.137 18.9606 115.344 19.6341C115.396 19.8931 115.551 20.1003 115.654 20.3075C115.861 20.722 116.223 20.8774 116.637 20.9292C116.947 20.981 117.102 21.1882 117.154 21.5508C117.206 21.9653 117.258 22.3797 117.309 22.7942C117.413 23.7267 117.723 24.6592 118.085 25.5399C118.189 25.7471 118.292 25.9025 118.344 26.1097C118.602 26.9386 119.12 27.5603 119.74 28.1301C119.896 28.2855 120.051 28.4928 120.258 28.7C120.258 28.7 120.258 28.7518 120.258 28.8036C120.258 28.8554 120.206 28.8554 120.154 28.8554C119.844 28.7 119.482 28.5446 119.171 28.3373C119.016 28.2855 118.809 28.3892 118.809 28.5446C118.809 28.8554 118.758 29.1144 118.809 29.4253C118.913 29.9433 119.068 30.4614 119.016 31.0312C119.016 31.1866 119.12 31.3421 119.275 31.3939C119.844 31.6529 120.413 31.8601 120.982 32.1191C121.189 32.2227 121.344 32.2746 121.551 32.3782C121.861 32.5336 121.965 32.8444 121.861 32.948C121.654 33.1034 121.447 32.9998 121.292 32.8962C120.465 32.3264 119.534 31.9637 118.551 31.7565C118.344 31.7047 118.189 31.6011 117.982 31.4975C117.516 31.1866 116.999 30.8758 116.534 30.565C115.758 30.0469 114.982 29.6325 114.154 29.2698C113.74 29.0626 113.378 28.8554 113.068 28.441C112.913 28.2337 112.602 28.0783 112.396 27.9229C112.085 27.7157 111.827 27.4567 111.671 27.094C111.516 26.6278 111.206 26.3169 110.896 25.9543C110.534 25.5399 110.223 25.0218 109.861 24.5556C109.499 24.0893 109.137 23.6231 108.982 23.0532C108.93 22.8978 108.827 22.7424 108.723 22.6388C108.361 22.1207 108.102 21.6027 107.999 20.9292C107.947 20.6184 107.844 20.3593 107.637 20.1521C107.482 19.8931 107.327 19.6859 107.171 19.4268C106.965 19.116 106.809 18.7534 106.809 18.3907C106.809 17.8209 106.654 17.3546 106.344 16.8884C106.292 16.7848 106.292 16.6293 106.292 16.5257C106.24 16.3185 105.982 16.2667 105.827 16.4221C105.775 16.4739 105.671 16.5257 105.62 16.5775C104.482 17.7173 103.551 18.9606 102.775 20.3075C102.568 20.6702 102.465 21.0846 102.309 21.4472C102.154 22.0171 101.844 22.4833 101.585 23.0014C101.378 23.364 101.12 23.5713 100.758 23.6749C100.344 23.8303 99.9301 23.7267 99.6197 23.364C99.0508 22.7424 98.6887 22.0171 98.4818 21.1882C98.1197 19.9449 98.068 18.6497 97.9128 17.3028ZM117.102 26.1097V26.1615V26.1097C117.051 25.9543 116.999 25.7471 116.844 25.6435C116.74 25.1772 116.637 24.711 116.534 24.1929C116.482 23.8303 116.275 23.5194 116.12 23.2086C115.396 22.0689 114.671 20.8774 114.154 19.6341C114.051 19.375 113.896 19.2714 113.585 19.2196C113.171 19.1678 112.809 19.0642 112.551 18.6497C112.447 18.4425 112.189 18.3907 112.034 18.4425C111.258 18.6497 110.43 18.857 109.654 19.0642C109.602 19.0642 109.499 19.1678 109.499 19.2714C109.499 19.375 109.551 19.5304 109.602 19.5822C109.706 19.6859 109.913 19.7377 110.068 19.7377C110.534 19.6859 110.947 19.634 111.413 19.4786C111.775 19.3232 112.137 19.4786 112.499 19.4786C112.809 19.5304 113.068 19.7377 113.378 19.8931C113.637 20.0485 113.689 20.2557 113.585 20.5147V20.4629C113.378 20.4111 113.171 20.3593 112.965 20.3075C112.706 20.2557 112.396 20.1521 112.085 20.2557C111.671 20.3593 111.206 20.4629 110.74 20.5665C110.585 20.6184 110.482 20.8256 110.585 20.981C110.637 21.0328 110.689 21.1364 110.74 21.1882C111.154 21.6545 111.568 22.1207 111.982 22.587C112.344 23.0014 112.654 23.4158 112.809 23.9339C113.068 24.8664 113.637 25.5399 114.413 26.0579C114.516 26.1097 114.723 26.0579 114.723 25.9543C114.775 25.8507 114.775 25.6953 114.775 25.5917C114.775 25.5399 114.827 25.4362 114.878 25.3844C114.93 25.4362 115.034 25.4362 115.085 25.4881C115.292 25.9025 115.551 26.3687 115.758 26.835C115.809 26.8868 115.809 26.9904 115.758 27.094C115.706 27.1976 115.602 27.353 115.551 27.353C115.189 27.3012 114.827 27.2494 114.465 27.3012C114.361 27.3012 114.154 27.1458 114.102 27.0422C113.896 26.7314 113.689 26.4724 113.378 26.2651C113.12 26.0579 112.913 25.7989 112.654 25.5917C112.447 25.3844 112.24 25.1772 112.034 24.97C111.93 24.8664 111.723 24.8146 111.568 24.8664C111.361 24.97 111.206 25.0218 110.999 25.1254C110.947 24.9182 111.154 24.6074 110.844 24.5037C110.844 24.3483 110.844 24.1929 110.792 24.0893C110.74 23.8821 110.585 23.7785 110.378 23.8303C110.378 23.7785 110.378 23.7785 110.378 23.7267C110.378 23.7267 110.327 23.7267 110.327 23.6749C110.378 23.7267 110.378 23.7267 110.43 23.7785C110.482 24.0893 110.637 24.3483 110.947 24.5037C110.999 24.711 111.051 24.9182 111.102 25.1772C111.671 25.5399 112.085 26.0061 112.499 26.5242C112.654 26.7832 112.809 27.0422 113.016 27.1976C113.637 27.5603 114.102 28.0783 114.62 28.5446C114.827 28.7 114.982 28.8554 115.24 28.959C115.965 29.2698 116.637 29.6843 117.258 30.0987C117.361 30.2023 117.568 30.2023 117.723 30.2023C117.827 30.2023 117.878 29.8397 117.827 29.6325C117.723 29.3735 117.671 29.1662 117.568 28.959C117.361 28.441 116.999 27.9747 116.896 27.4049C116.482 27.094 116.482 26.6278 116.482 26.1615C116.482 25.9543 116.482 25.7471 116.482 25.5399C116.637 25.6435 116.74 25.8507 116.999 25.7471C116.844 25.8507 116.844 26.0579 117.102 26.1097ZM116.896 12.0187C116.689 12.0705 116.482 12.1223 116.275 12.1741L116.327 12.2259V12.1223C116.534 12.2259 116.74 12.1223 116.896 12.0187C116.896 11.9669 116.896 11.9669 116.896 12.0187C116.896 11.9669 116.896 11.9669 116.896 11.9669C116.896 11.9669 116.896 11.9669 116.896 12.0187ZM107.947 15.5414C107.999 15.5414 108.102 15.4896 108.154 15.4896C108.206 15.4896 108.206 15.4896 108.258 15.4378V15.386C108.206 15.386 108.102 15.386 108.051 15.386C108.051 15.386 107.999 15.4896 107.947 15.5414C107.896 15.5414 107.792 15.4378 107.74 15.5932C107.844 15.5932 107.896 15.5414 107.947 15.5414ZM100.24 16.2149C100.396 16.1631 100.551 16.1113 100.654 16.0077C100.809 15.9041 100.861 15.8005 100.809 15.645C100.861 15.645 100.965 15.645 101.016 15.645C100.965 15.645 100.913 15.645 100.809 15.5932C100.706 15.6968 100.551 15.8005 100.447 15.9041C100.344 16.0595 100.292 16.1631 100.24 16.2149ZM113.585 17.7691C113.482 17.6136 113.378 17.4582 113.275 17.3546C113.223 17.3028 113.12 17.3028 113.068 17.3546C113.016 17.3546 112.913 17.4582 112.913 17.51C112.913 17.5618 112.965 17.6654 113.016 17.6654C113.223 17.7173 113.378 17.7173 113.585 17.7691ZM113.999 16.1113C113.637 15.9559 113.378 16.0595 113.12 16.2667C112.965 15.9559 112.809 15.7486 112.396 15.7486C110.844 15.645 109.447 16.1631 108.102 16.733C108.051 16.733 107.999 16.9402 108.051 17.0438C108.102 17.1474 108.206 17.1992 108.309 17.1992C108.413 17.1992 108.568 17.1992 108.671 17.1474C109.809 16.6811 110.999 16.5775 112.189 16.6293C112.602 16.6293 112.913 16.4739 113.171 16.2149C113.171 16.3185 113.171 16.3703 113.171 16.4739C113.223 16.6811 113.327 16.8366 113.585 16.8366C113.792 16.8366 113.792 16.6811 113.844 16.5257C113.844 16.3703 113.896 16.2667 113.999 16.1113C114.102 15.9041 114.206 15.6968 114.309 15.4896C114.361 15.386 114.309 15.2306 114.206 15.2306C114.102 15.1788 113.947 15.2306 113.896 15.3342C113.844 15.4378 113.844 15.5414 113.844 15.645C113.844 15.8005 113.947 15.9559 113.999 16.1113ZM108.413 5.02494C108.465 5.28397 108.671 5.23216 108.878 5.23216C108.93 5.23216 108.982 5.18036 109.034 5.12855C108.982 5.12855 108.982 5.07675 108.93 5.07675C108.723 5.07675 108.568 5.07675 108.413 5.02494C108.361 4.97314 108.309 4.86953 108.258 4.86953C107.43 4.50689 106.551 4.40328 105.62 4.29967C105.568 4.29967 105.516 4.40328 105.465 4.45508L105.516 4.5587C106.447 4.86953 107.378 5.07675 108.413 5.02494ZM108.878 18.1835C109.913 18.0799 110.844 17.6654 111.878 17.6654C111.982 17.6654 112.085 17.4582 112.034 17.4064C111.982 17.3546 111.878 17.251 111.827 17.251C111.051 17.4064 110.327 17.5618 109.551 17.7691C109.344 17.8727 109.085 17.9763 108.878 18.1835C108.775 18.2353 108.671 18.1835 108.827 18.3389C108.827 18.3389 108.878 18.2871 108.878 18.1835ZM112.085 24.0375C112.24 23.7267 112.137 23.4676 111.93 23.2604C111.309 22.6906 110.74 22.0689 110.223 21.3436C110.016 21.0846 109.809 20.8774 109.447 20.7738C109.292 20.722 109.189 20.5665 109.137 20.4629C108.982 20.2557 108.878 20.0485 108.723 19.8413C108.671 19.7895 108.516 19.7895 108.413 19.7377C108.413 19.634 108.413 19.5822 108.361 19.6859C108.413 19.6859 108.413 19.6859 108.465 19.7377C108.62 20.2557 108.827 20.722 108.878 21.24C108.982 21.9135 109.396 22.4315 109.809 22.8978C109.965 23.0532 110.12 23.105 110.327 23.0532C110.534 22.9496 110.74 23.0532 110.896 23.2086C111.309 23.4158 111.671 23.7267 112.085 24.0375ZM100.137 19.1678C100.034 19.2714 99.9818 19.4268 99.8784 19.5822C99.7232 19.7895 99.2577 19.7895 99.2577 20.1521C99.2577 20.4111 99.3611 20.722 99.4646 20.981C99.7232 21.6545 100.034 22.2761 100.292 22.8978C100.344 23.0014 100.447 23.105 100.551 23.1568C100.654 23.2086 100.809 23.2086 100.861 23.105C100.913 23.0014 101.016 22.8978 101.068 22.7942C101.171 22.3279 101.327 21.8099 101.378 21.3436C101.534 20.5147 101.792 19.7377 102.309 19.116C102.878 18.3907 103.189 17.5618 103.706 16.7848C103.809 16.6811 103.706 16.5775 103.602 16.4739C103.551 16.4221 103.602 16.2667 103.654 16.2667C104.378 16.2149 104.896 15.645 105.568 15.4378C105.62 15.386 105.723 15.2306 105.723 15.127C105.516 14.6607 105.258 14.2463 104.896 13.9355C104.844 13.9355 104.792 13.8837 104.792 13.8837C104.74 13.9355 104.74 14.0391 104.74 14.0909C104.792 14.2463 104.896 14.4017 104.896 14.5571C104.896 14.8162 104.585 14.7643 104.43 14.9198C104.12 15.127 103.809 15.3342 103.447 15.386C103.189 15.6968 102.827 15.6968 102.465 15.8005C102.206 15.8523 101.999 15.9559 101.792 16.1113C101.12 16.5257 100.499 16.9402 99.8266 17.4064C99.6197 17.5618 99.4646 17.7691 99.5163 18.0281C99.3094 18.0281 99.1025 17.9763 98.9473 17.9763C98.8956 17.9763 98.7922 18.0281 98.7922 18.0799C98.7922 18.1317 98.7922 18.2871 98.7922 18.2871C98.8956 18.3389 99.0508 18.3907 99.1025 18.3907C99.2577 18.2871 99.3611 18.1317 99.5163 17.9763C99.6715 17.9245 99.8784 17.9763 99.9818 17.8727C100.706 17.251 101.585 16.8884 102.361 16.3185C102.413 16.3185 102.413 16.2667 102.465 16.2667C102.516 16.2667 102.568 16.2149 102.568 16.2667C102.671 16.3185 102.775 16.3703 102.878 16.4739C102.878 16.5257 102.878 16.6293 102.827 16.6811C101.74 17.4064 100.706 18.0799 99.6197 18.8052C99.4646 18.9088 99.3611 19.116 99.2059 19.2714C99.2059 19.2714 99.2059 19.3232 99.2059 19.375C99.2059 19.4268 99.2577 19.4268 99.3094 19.4268C99.568 19.3232 99.8784 19.2196 100.137 19.1678ZM110.43 5.02494L110.378 4.97314C110.378 5.02494 110.43 5.02494 110.43 5.02494C110.585 5.12855 110.689 5.23216 110.792 5.33578C111.206 5.64661 111.62 5.90563 111.982 6.21647C112.447 6.63091 112.913 7.04535 113.482 7.30438C114.051 7.56341 114.568 7.87424 115.137 8.13326C115.189 8.13326 115.24 8.13326 115.24 8.18507C115.447 8.23687 115.551 8.13326 115.602 7.92604C115.654 7.71882 115.809 7.66702 115.965 7.71882C116.068 7.77063 116.171 7.82243 116.275 7.87424C116.637 7.97785 116.999 8.08146 117.361 8.13326C117.413 8.13326 117.516 8.08146 117.568 8.08146C117.516 8.02965 117.516 7.92604 117.465 7.87424C117.206 7.66702 116.947 7.45979 116.637 7.30438C115.965 6.99355 115.447 6.5273 114.982 6.00924C114.154 5.18036 113.43 4.29967 112.551 3.57439C112.396 3.41898 112.24 3.26356 112.137 3.10815C111.982 2.90092 111.775 2.74551 111.516 2.74551C111.051 2.74551 110.637 2.6419 110.171 2.53829C109.447 2.33107 108.723 2.38287 107.947 2.33107C107.896 2.33107 107.844 2.33107 107.844 2.33107C107.792 2.38287 107.689 2.38287 107.637 2.43468C107.585 2.48648 107.637 2.59009 107.637 2.6419C108.051 3.26356 108.62 3.57439 109.396 3.72981C109.861 3.78162 110.275 3.88523 110.74 4.04064C110.947 4.09245 111.206 4.24786 111.361 4.40328C111.413 4.45508 111.465 4.6105 111.465 4.71411C111.413 4.81772 111.309 4.92133 111.206 4.97314C110.999 5.02494 110.689 5.02494 110.43 5.02494ZM110.378 12.5885C110.223 12.5885 110.12 12.5885 109.965 12.5885C109.24 12.5885 108.516 12.6403 107.896 13.1584C107.534 13.4174 107.068 13.5728 106.602 13.4692C106.551 13.4692 106.447 13.521 106.396 13.521C106.292 13.5728 106.189 13.7282 106.24 13.8319C106.344 14.0391 106.499 14.2463 106.602 14.4535C106.758 14.6607 106.965 14.7643 107.223 14.7125C108.258 14.5053 109.344 14.2981 110.43 14.2463C111.102 14.2463 111.775 14.2981 112.396 14.0909C112.499 14.0391 112.654 14.0909 112.758 14.0909C113.223 14.0909 113.327 14.0391 113.534 13.6246C113.689 13.262 113.43 12.7957 113.016 12.8475C112.551 12.8994 112.085 12.8475 111.671 12.7439C111.258 12.5885 110.844 12.4849 110.378 12.5885ZM111.413 10.7753C111.723 10.7753 111.827 10.8271 111.982 10.8271C112.24 10.8271 112.396 10.5681 112.292 10.3091C112.137 9.94645 111.827 9.73923 111.465 9.68742C111.102 9.63562 110.74 9.63562 110.378 9.63562C109.861 9.68742 109.292 9.73923 108.827 9.94645C108.309 10.1537 107.792 10.1537 107.275 10.3091C106.758 10.4645 106.292 10.6717 105.775 10.8271C105.258 11.0344 105.051 11.6042 105.309 12.1223C105.361 12.2259 105.465 12.3295 105.62 12.2777C106.551 11.7596 107.637 11.5006 108.671 11.2416C109.551 10.9308 110.585 10.8789 111.413 10.7753ZM109.292 7.5116C110.171 7.5116 110.896 7.5116 111.62 7.5116C111.671 7.5116 111.723 7.45979 111.775 7.40799C111.723 7.35618 111.723 7.35618 111.671 7.30438C109.809 6.5273 107.896 6.26827 105.878 6.5791C105.827 6.5791 105.723 6.68271 105.723 6.73452C105.723 6.78632 105.775 6.88994 105.827 6.94174C106.085 7.20077 106.085 7.20077 105.878 7.35618C105.671 7.5116 105.465 7.61521 105.309 7.77063C105.258 7.77063 105.258 7.87424 105.258 7.87424C105.309 7.92604 105.361 8.02965 105.413 8.02965C105.827 8.08146 106.24 7.97785 106.602 7.82243C106.758 7.71882 106.965 7.66702 107.171 7.66702C107.947 7.56341 108.671 7.5116 109.292 7.5116ZM111.62 8.85854C111.62 8.80673 111.62 8.75493 111.62 8.75493C111.465 8.70312 111.309 8.59951 111.154 8.59951C109.861 8.4441 108.516 8.39229 107.223 8.75493C106.861 8.85854 106.396 8.80673 106.034 9.06576C105.671 9.32479 105.154 9.32479 104.792 9.58381C104.74 9.58381 104.74 9.63562 104.74 9.68742C104.792 9.73923 104.792 9.84284 104.844 9.89464C104.999 9.94645 105.154 10.0501 105.309 10.0501C105.568 10.0501 105.827 9.99826 106.034 9.89464C107.016 9.58381 108.051 9.4284 109.085 9.27298C109.861 9.16937 110.637 9.11756 111.413 9.01395C111.516 8.96215 111.568 8.85854 111.62 8.85854ZM111.361 12.2259C111.775 12.2259 112.189 12.2777 112.551 12.2777C112.654 12.2777 112.758 12.1223 112.758 12.0187C112.654 11.7596 112.602 11.4488 112.24 11.4488C111.413 11.397 110.637 11.138 109.809 11.5006C109.706 11.5524 109.551 11.5524 109.447 11.5006C108.568 11.397 107.792 11.8632 106.965 12.1223C106.965 12.1223 106.913 12.1741 106.913 12.2259C106.913 12.2777 106.965 12.3295 106.965 12.3295C107.534 12.2777 108.102 12.2777 108.671 12.2259C109.034 12.1741 109.396 12.1741 109.758 12.0705C110.171 11.9669 110.482 12.2259 110.844 12.1741C111.051 12.2259 111.206 12.2259 111.361 12.2259ZM112.292 8.18507C113.378 8.34049 114.102 9.06576 114.93 9.63562C115.085 9.73923 115.24 9.89464 115.292 10.1019C115.344 10.2573 115.344 10.4645 115.447 10.5681C115.654 10.7235 115.809 10.4645 115.965 10.4127C116.171 10.3609 116.378 10.3091 116.534 10.2573C116.74 10.2055 116.947 10.2055 117.154 10.2055C117.206 10.2055 117.258 10.1537 117.258 10.1537C117.206 10.1019 117.206 9.99826 117.154 9.94645C116.947 9.89465 116.792 9.79103 116.585 9.79103C116.171 9.73923 115.758 9.73923 115.551 9.27298C115.499 9.22118 115.344 9.16937 115.24 9.16937C114.878 9.16937 114.671 9.01395 114.723 8.65132C114.723 8.4441 114.671 8.34048 114.516 8.28868C113.74 8.23687 113.068 7.97785 112.292 8.18507ZM112.602 15.4378C112.706 15.386 112.913 15.386 112.965 15.2824C113.068 15.127 113.068 14.9198 113.12 14.7125C113.12 14.6607 113.016 14.5571 112.965 14.5571C112.861 14.5053 112.706 14.5053 112.602 14.5053C111.62 14.6089 110.637 14.6607 109.654 14.9198C109.551 14.9716 109.396 15.0234 109.292 15.0752C109.24 15.0752 109.24 15.127 109.24 15.1788L109.292 15.2306C109.499 15.2306 109.706 15.2824 109.913 15.2824C110.637 15.1788 111.413 15.2306 112.137 15.4378C112.292 15.386 112.447 15.386 112.602 15.4378ZM108.878 5.90563C109.654 6.11286 110.378 6.26827 111.154 6.47549C111.206 6.47549 111.206 6.42369 111.258 6.42369C111.258 6.42369 111.258 6.37188 111.258 6.32008C111.102 6.21647 110.999 6.11286 110.844 6.06105C110.171 5.90563 109.499 5.75022 108.775 5.5948C107.74 5.38758 106.654 5.33578 105.62 5.07675C105.568 5.07675 105.465 5.07675 105.361 5.12855C105.309 5.12855 105.309 5.18036 105.309 5.18036C105.309 5.23216 105.361 5.28397 105.361 5.28397C105.465 5.33578 105.568 5.43939 105.671 5.43939C106.809 5.49119 107.844 5.80202 108.878 5.90563ZM114.361 10.4127C114.361 9.94645 114.309 9.89464 113.947 9.79103C113.689 9.68742 113.378 9.63562 113.12 9.58381C113.016 9.58381 112.861 9.68742 112.861 9.79103C112.913 10.1019 113.016 10.4127 113.068 10.7235C113.12 10.9308 113.482 11.1898 113.74 11.138C113.947 11.138 114.258 10.8789 114.309 10.7235C114.361 10.5681 114.361 10.4127 114.361 10.4127ZM99.9301 6.11286C100.034 6.16466 100.085 6.16466 100.137 6.06105C100.292 5.69841 100.447 5.33578 100.602 4.92133C100.602 4.92133 100.602 4.86953 100.551 4.81772L100.447 4.76592C100.137 4.97314 99.8784 5.18036 99.7232 5.543C99.6715 5.69841 99.7749 5.95744 99.9301 6.11286ZM101.016 2.07204C100.965 2.12384 100.861 2.17565 100.861 2.22745C100.861 2.59009 101.016 2.84912 101.327 3.00454C101.482 3.05634 101.637 3.00453 101.74 2.90092C101.844 2.74551 101.844 2.59009 101.74 2.48648C101.585 2.38287 101.43 2.22745 101.275 2.12384C101.171 2.07204 101.068 2.07204 101.016 2.07204ZM97.7577 2.38287C97.7059 2.38287 97.7059 2.38287 97.7577 2.38287C97.7577 2.48648 97.7059 2.53829 97.7577 2.6419C97.7577 2.74551 97.8094 2.79731 97.8094 2.84912C97.8611 2.84912 97.9646 2.84912 97.9646 2.79731C98.1197 2.6419 98.3266 2.43468 98.4818 2.27926C98.637 2.12384 98.4818 2.07204 98.3784 2.02023C98.2749 1.96843 98.1715 1.91662 98.068 1.86482C97.9128 1.81301 97.7577 1.91662 97.7577 2.02023C97.7577 2.17565 97.7577 2.27926 97.7577 2.38287ZM107.534 3.93703C107.43 3.78162 107.378 3.678 107.275 3.52259C107.12 3.31537 107.016 3.31537 106.758 3.41898C106.654 3.47078 106.551 3.52259 106.447 3.57439C106.344 3.6262 106.292 3.678 106.396 3.72981C106.706 3.88523 107.068 4.04064 107.43 3.98884C107.43 3.98884 107.482 3.93703 107.534 3.93703ZM102.671 3.78162C102.568 3.78162 102.516 3.78162 102.413 3.83342C102.361 3.83342 102.309 3.88523 102.309 3.88523C102.309 3.93703 102.309 4.04064 102.361 4.09245C102.516 4.29967 102.723 4.29967 102.878 4.29967C103.034 4.29967 103.189 4.24786 103.292 4.09245C103.396 3.98884 103.292 3.88523 102.982 3.83342C102.93 3.83342 102.827 3.78162 102.671 3.78162ZM99.2577 8.96215C99.6197 8.80673 100.034 8.65132 100.24 8.28868C100.24 8.23687 100.292 8.23687 100.292 8.18507C100.24 8.18507 100.137 8.08146 100.085 8.13326C99.7232 8.23687 99.4128 8.44409 99.1542 8.70312C99.1025 8.75493 99.1025 8.80673 99.1025 8.91034C99.1542 8.91034 99.2059 8.91034 99.2577 8.96215ZM106.137 2.07204C106.137 2.02023 106.137 2.02023 106.085 1.96843C105.93 1.81301 105.723 1.81301 105.568 1.81301C105.516 1.81301 105.516 1.86482 105.465 1.86482C105.465 1.86482 105.465 1.96843 105.516 1.96843C105.723 2.02023 105.878 2.07204 106.085 2.12384C106.085 2.17565 106.137 2.12384 106.137 2.07204ZM112.965 8.96215C112.965 8.91034 112.965 8.85854 112.913 8.85854C112.706 8.75493 112.396 8.75493 112.344 8.85854C112.344 8.85854 112.344 8.96215 112.396 8.96215C112.551 9.01395 112.706 9.01395 112.861 9.06576C112.861 9.06576 112.913 9.01395 112.965 8.96215ZM103.758 13.3656C103.654 13.4174 103.551 13.4174 103.499 13.4692C103.447 13.521 103.396 13.5728 103.344 13.6246C103.396 13.6764 103.499 13.7282 103.551 13.7282C103.602 13.7282 103.706 13.7282 103.758 13.7282C103.809 13.7282 103.913 13.6246 103.913 13.5728C103.861 13.521 103.809 13.4692 103.758 13.3656ZM113.844 12.0187C113.844 11.8632 113.74 11.7596 113.637 11.8114C113.585 11.8114 113.534 11.9151 113.534 11.9669C113.534 12.0705 113.689 12.2259 113.792 12.1741C113.74 12.1741 113.792 12.0705 113.844 12.0187ZM98.1715 11.5524C98.1715 11.6042 98.1715 11.656 98.1715 11.656C98.2232 11.656 98.2749 11.656 98.3784 11.656C98.3784 11.6042 98.3784 11.5524 98.3266 11.5006C98.2749 11.5006 98.2232 11.5524 98.1715 11.5524ZM120.671 9.58381C120.62 9.63562 120.62 9.63562 120.568 9.68742C120.62 9.68742 120.671 9.68742 120.671 9.68742C120.723 9.68742 120.723 9.63562 120.775 9.63562C120.723 9.63562 120.671 9.63562 120.671 9.58381ZM99.3611 7.5116C99.4646 7.45979 99.6197 7.45979 99.568 7.30438C99.568 7.25257 99.4646 7.20077 99.4128 7.20077C99.3094 7.20077 99.2059 7.30438 99.2059 7.40799C99.2059 7.45979 99.3094 7.5116 99.3611 7.5116ZM103.189 3.10815C103.137 3.10815 103.137 3.15995 103.085 3.15995C103.137 3.21176 103.189 3.26356 103.24 3.26356C103.292 3.26356 103.344 3.21176 103.396 3.15995C103.344 3.15995 103.344 3.10815 103.292 3.10815C103.292 3.10815 103.24 3.10815 103.189 3.10815ZM104.171 7.61521C104.068 7.61521 104.068 7.66702 104.12 7.71882C104.12 7.71882 104.171 7.71882 104.223 7.71882C104.223 7.66702 104.223 7.61521 104.171 7.61521ZM99.6197 16.6293L99.568 16.5775V16.6293H99.6197ZM105.775 13.1584L105.827 13.0548H105.723L105.775 13.1584ZM95.5853 2.48648C95.637 2.48648 95.637 2.43468 95.6887 2.43468L95.637 2.38287C95.637 2.38287 95.5853 2.43468 95.5335 2.43468L95.5853 2.48648Z" fill="#B76F38" fill-opacity="0.2"/>
<path d="M118.19 32.3265V32.2747H118.241L118.19 32.3265Z" fill="#B76F38" fill-opacity="0.2"/>
<path d="M114.362 23.2087C114.31 23.2087 114.259 23.2087 114.259 23.2087C113.69 23.0015 113.121 22.7425 112.603 22.5353C112.552 22.5353 112.552 22.3798 112.5 22.328C112.552 22.328 112.655 22.2244 112.707 22.2762C112.914 22.3798 113.121 22.4316 113.379 22.4834C113.793 22.4834 114.155 22.7425 114.362 23.2087Z" fill="#B76F38" fill-opacity="0.2"/>
<path d="M114.828 23.7269C114.983 23.7269 115.138 23.7787 115.241 23.9341C115.448 24.3485 115.655 24.7112 115.966 24.9702C116.017 25.022 115.966 25.1256 115.966 25.1774H116.017C115.81 25.1256 115.655 25.0738 115.448 24.9702C115.345 24.9184 115.19 24.763 115.138 24.6594C115.034 24.3485 114.983 24.0377 114.828 23.7269C114.879 23.6751 114.828 23.7269 114.828 23.7269Z" fill="#B76F38" fill-opacity="0.2"/>
<path d="M116.379 25.4363C116.276 25.3327 116.172 25.2809 116.017 25.1772H115.966C116.121 25.2809 116.224 25.3845 116.379 25.4363Z" fill="#B76F38" fill-opacity="0.2"/>
<path d="M114.569 23.4678C114.724 23.4678 114.828 23.5714 114.828 23.7268C114.724 23.675 114.672 23.5714 114.569 23.4678Z" fill="#B76F38" fill-opacity="0.2"/>
<path d="M114.621 23.416C114.466 23.416 114.362 23.3642 114.362 23.157C114.517 23.2088 114.621 23.2606 114.621 23.416C114.569 23.4678 114.621 23.416 114.621 23.416Z" fill="#B76F38" fill-opacity="0.2"/>
<path d="M113.534 20.5149L113.586 20.4631C113.638 20.4631 113.586 20.4631 113.534 20.5149C113.586 20.4631 113.534 20.5149 113.534 20.5149Z" fill="#B76F38" fill-opacity="0.2"/>
<path d="M100.138 19.1679C100.241 19.1161 100.293 18.9607 100.397 19.1161L100.345 19.1679C100.293 19.1679 100.19 19.1679 100.138 19.1679C100.086 19.1161 100.138 19.1679 100.138 19.1679Z" fill="#B76F38" fill-opacity="0.2"/>
</g>
<path d="M92.5042 60.1833C92.5563 59.9804 92.6084 59.7775 92.7126 59.6253C92.8688 59.4224 93.1814 59.321 93.3898 59.4732C93.9107 59.879 94.4837 60.1833 94.9005 60.7413C95.0047 60.9442 95.1609 61.0456 95.3693 61.0456C95.4735 61.0456 95.6298 61.0964 95.734 61.0964C97.0363 61.1471 98.2865 61.0964 99.5367 60.5891C100.006 60.3862 100.474 60.2848 100.943 60.1833C101.204 60.1326 101.412 60.1326 101.673 60.234C101.881 60.3355 102.089 60.2848 102.298 60.234C103.027 60.1326 103.704 60.0819 104.381 60.3355C104.486 60.3862 104.642 60.4369 104.746 60.4369C105.58 60.4877 106.361 60.6906 107.09 61.1978C107.247 61.4514 107.663 61.4514 107.976 61.5529C108.184 61.6036 108.393 61.6543 108.549 61.7558C108.705 61.8065 108.809 62.0094 108.809 62.1616C108.809 62.263 108.705 62.4152 108.705 62.5166C108.601 62.9732 108.705 63.1253 109.07 63.2775C110.112 63.734 111.206 63.8862 112.352 63.9877C113.706 64.1398 114.956 64.3935 116.207 64.9007C116.467 65.0022 116.78 65.0022 117.04 65.0022C117.196 65.0022 117.353 65.0022 117.509 65.0529C117.561 65.0529 117.613 65.1543 117.665 65.2558C117.665 65.3065 117.665 65.408 117.613 65.4587C117.561 65.5601 117.457 65.6109 117.3 65.6616C116.884 65.8138 116.467 65.9659 115.998 66.0166C115.529 66.0674 115.113 66.1688 114.644 66.2195C114.487 66.2703 114.331 66.3717 114.331 66.5239C114.279 66.8282 114.019 66.9804 113.758 67.1326C112.716 67.7413 111.831 68.5022 110.841 69.2123C110.633 69.3645 110.633 69.5166 110.737 69.7195C110.893 69.9732 110.997 70.2268 111.153 70.4804C111.362 70.7848 111.831 70.9369 111.727 71.4949C111.674 71.85 112.039 72.1036 112.091 72.5094C112.091 72.9152 112.456 73.2195 112.925 73.2703C113.393 73.321 113.602 73.5239 113.758 73.879C113.862 74.0819 113.862 74.2848 113.914 74.4369C113.967 74.5891 113.81 74.7413 113.654 74.7413C113.446 74.7413 113.237 74.7413 113.029 74.7413C112.977 74.7413 112.925 74.8935 112.925 74.9442C112.977 75.0964 113.081 75.2485 113.185 75.35C113.341 75.5529 113.498 75.7051 113.498 75.9587C113.498 76.263 113.602 76.5166 113.81 76.7195C113.862 76.7703 113.967 76.7703 114.019 76.7703C114.019 76.7703 114.071 76.7195 114.071 76.6688C114.071 76.263 114.071 75.8572 114.071 75.4514C114.071 75.4007 114.123 75.35 114.123 75.35C114.175 75.35 114.331 75.35 114.331 75.4007C114.435 75.6036 114.54 75.7558 114.54 75.9587C114.696 76.9224 115.06 77.8355 115.633 78.6471C115.894 79.0022 116.154 79.408 116.207 79.8645C116.259 80.0674 116.154 80.1688 115.946 80.1181C115.79 80.0674 115.633 80.0166 115.477 80.1181C115.165 80.321 114.8 80.3717 114.383 80.321C113.706 80.2195 112.977 80.1688 112.3 79.9659C111.414 79.763 110.58 79.7123 109.695 79.9152C108.966 80.0674 108.288 79.9152 107.663 79.5094C107.507 79.408 107.299 79.2558 107.142 79.1543C106.934 79.0529 106.673 78.9007 106.413 79.0022C106.1 79.1036 105.84 79.0022 105.527 79.0022C104.746 79.0022 104.069 78.7485 103.392 78.3427C103.131 78.1906 102.923 78.0384 102.819 77.734C102.61 77.1253 102.402 76.5166 102.193 75.908C102.141 75.8065 102.089 75.6543 102.089 75.5529C102.246 74.9442 101.777 74.6906 101.36 74.4369C101.1 74.2848 100.891 74.1326 100.683 73.9297C100.318 73.5746 99.9014 73.2195 99.4326 72.9152C99.3284 72.8645 99.2242 72.7123 99.2242 72.6109C99.3284 72.0529 98.9637 71.7993 98.5991 71.4949C98.3386 71.292 98.3907 71.0891 98.5991 70.8862C98.6512 70.8355 98.6512 70.8355 98.7033 70.7848C98.7553 70.734 98.7553 70.734 98.8074 70.6833C98.9116 70.5311 98.9637 70.379 98.8595 70.2268C98.7033 70.0746 98.5991 69.8717 98.4428 69.821C97.9219 69.5674 97.453 69.263 97.0363 68.8572C96.5153 68.8065 96.3591 68.2993 95.9423 68.0456C95.6819 67.8935 95.8381 67.4369 95.5256 67.3355C95.3172 67.2848 95.0567 67.3862 94.7963 67.3862C94.7442 67.3862 94.64 67.3355 94.5879 67.2848C94.3274 67.0819 94.1191 66.8282 93.8586 66.6253C93.5981 66.4732 93.2335 66.4224 92.973 66.2195C92.7647 66.0674 92.6605 65.8645 92.4 65.763C92.2958 65.7123 92.2437 65.7123 92.1916 65.8138C92.1916 65.8645 92.1916 65.8645 92.1916 65.9152C92.1916 65.9659 92.1916 66.0166 92.1916 66.0166C92.973 66.879 93.7023 67.7413 94.8484 68.1471C94.9005 68.1471 95.0047 68.1978 95.0567 68.2993C95.1088 68.4007 95.1609 68.5529 95.1088 68.6543C95.0567 68.7558 94.9526 68.8065 94.8484 68.908C94.1712 69.4659 93.4419 69.9224 92.8688 70.5311C92.7647 70.6326 92.6084 70.734 92.4521 70.734C92.2437 70.734 92.0874 70.8355 91.8791 70.9877C91.7749 71.0891 91.5665 71.1398 91.4102 71.1398C90.9414 71.0891 90.4205 71.1906 89.9516 70.9369C90.0558 71.0891 89.8995 71.0891 89.7953 71.0891C89.066 71.2413 88.3888 71.0891 87.6595 71.0384C87.0344 70.9877 86.4093 70.8862 85.7842 70.7848C85.5237 70.734 85.3153 70.6833 85.0549 70.5819C84.7423 70.4804 84.7423 70.3282 84.9507 69.9732C85.0028 69.8717 85.0549 69.7703 84.8986 69.6688C84.6381 69.5167 84.3777 69.4152 84.1172 69.263C83.9609 69.1616 83.9609 68.8065 84.1172 68.7558C85.0028 68.4007 85.6279 67.6398 86.5135 67.234C86.6698 67.1326 86.8781 67.0819 87.0865 67.0311C87.1386 67.0311 87.1907 67.0819 87.2428 67.1326C87.2428 67.1326 87.2428 67.234 87.1907 67.234C86.6177 67.5384 86.0447 67.9442 85.6279 68.4007C85.5237 68.5022 85.4195 68.6543 85.3674 68.8065C85.3153 68.908 85.3674 69.0601 85.4716 69.1109C85.7842 69.263 86.1488 69.5166 86.5135 69.2123C86.774 68.9587 87.0344 69.0094 87.2949 69.0601C87.7637 69.0601 88.0763 69.0094 88.1284 68.5529C88.1284 68.4007 88.3367 68.2993 88.493 68.2485C88.6493 68.1978 88.8056 68.0964 88.7535 67.8935C88.7535 67.5891 88.9619 67.4877 89.2223 67.4369C89.4307 67.3862 89.7433 67.4877 89.7433 67.234C89.7953 66.8282 90.0558 66.6761 90.3684 66.6253C90.5247 66.5746 90.5247 66.4732 90.5247 66.321C90.6809 65.6616 90.8372 65.5094 91.4623 65.408C91.5665 65.408 91.7228 65.408 91.827 65.3572C91.9833 65.2558 92.0353 65.1036 92.0353 64.9514C92.0353 64.7993 91.827 64.5964 91.7228 64.5964C91.5665 64.5964 91.4102 64.6471 91.254 64.6471C91.0456 64.6471 90.8372 64.6978 90.733 64.85C90.4726 65.2558 90.16 65.5094 89.7953 65.8138C89.6912 65.9152 89.5349 66.0674 89.3786 65.9659C89.3265 65.9152 89.3265 65.763 89.3265 65.6616C89.3786 65.3065 89.5349 65.0529 89.7433 64.7993C89.8995 64.6471 90.0558 64.5456 90.16 64.3427C90.2121 64.2413 90.2642 64.0891 90.1079 64.0384C89.8474 63.8355 89.587 63.6326 89.3265 63.4297C89.2744 63.3282 89.1702 63.1761 89.1181 63.0239C89.066 62.821 88.8577 62.7195 88.6493 62.7703C88.1284 62.821 87.5553 62.821 87.0344 62.7703C86.9823 62.7703 86.8781 62.6688 86.826 62.6181C86.774 62.4659 86.826 62.3645 86.9302 62.3138C86.9823 62.263 86.9823 62.263 87.0344 62.263C87.1386 62.2123 87.2949 62.1109 87.2949 62.0601C87.3991 61.5022 87.8679 61.2485 88.2847 61.0456C88.9098 60.7413 89.4307 60.4369 89.8995 59.9297C90.0558 59.7268 90.2642 59.6253 90.5767 59.6253C91.0456 59.6253 91.5144 59.5746 91.9312 59.5746C92.2437 59.5746 92.4 59.7775 92.4 60.0311C92.4521 60.0819 92.4521 60.1326 92.5042 60.1833C92.4521 60.1833 92.4521 60.1326 92.4 60.1326C91.6186 60.0311 90.8372 59.9804 90.2642 60.6398C90.16 60.7413 90.0037 60.792 89.8474 60.8935C89.3265 61.1978 88.8577 61.5022 88.3367 61.7558C88.2847 61.8065 88.2847 61.9587 88.2847 61.9587C88.5451 62.0601 88.8056 62.2123 89.066 62.2123C89.3786 62.263 89.3786 61.8572 89.5349 61.7051C89.6912 61.5529 89.8995 61.35 90.0558 61.2485C90.3163 61.0456 90.6288 60.8935 90.8893 60.7413C90.8893 60.9949 90.8372 61.2993 90.8372 61.5529C90.6809 61.5529 90.6288 61.6543 90.5767 61.8065C90.4726 61.8572 90.3684 61.908 90.3163 62.0094C90.2642 62.0601 90.3163 62.1109 90.2642 62.1616C90.3163 62.1616 90.4205 62.1616 90.4726 62.1109C90.5247 62.0094 90.5247 61.908 90.5767 61.8065C90.733 61.8065 90.8372 61.7051 90.8372 61.5529C91.0456 61.5022 91.254 61.4514 91.4623 61.4007C91.5665 61.4007 91.6707 61.4514 91.6707 61.5529C91.6707 61.6036 91.6186 61.7051 91.6186 61.7558C91.5144 61.8572 91.4102 61.9587 91.306 62.0601L91.254 62.1109L91.306 62.0601C91.4102 61.9587 91.5144 61.8572 91.6186 61.7558C92.0874 61.7558 92.4521 61.5022 92.8167 61.1978V61.0964C92.7647 61.0456 92.7647 60.9442 92.6605 60.9442C92.6084 60.8935 92.5042 60.8935 92.4521 60.8935C91.9312 61.0964 91.4102 60.9949 90.9414 60.792C90.9935 60.4877 91.1498 60.2848 91.5144 60.3862C91.8791 60.4877 92.1916 60.3862 92.5042 60.1833ZM96.9321 65.3065C96.88 65.408 97.0363 65.5094 96.8279 65.5601C96.6716 65.6109 96.6716 65.4587 96.5674 65.408V65.4587L96.5153 65.408C96.6716 65.408 96.7758 65.3572 96.9321 65.3065C96.9842 65.1036 97.0884 65.0529 97.2447 65.0022C97.2967 64.9007 97.3488 64.7993 97.3488 64.6978L97.4009 64.6471C97.4009 64.6978 97.3488 64.6978 97.3488 64.7485C97.2967 64.85 97.2447 64.9514 97.2447 65.0022C97.1405 65.1036 97.0363 65.2051 96.9321 65.3065ZM94.8484 64.7485C94.7963 64.7485 94.7963 64.7485 94.7442 64.7485C94.7963 64.7485 94.8484 64.7485 94.8484 64.7485C94.9005 64.5964 95.0047 64.4949 95.1088 64.3935C95.786 64.2413 96.307 63.7848 96.88 63.379C96.9321 63.379 96.88 63.2268 96.88 63.1761C96.8279 63.0746 96.7758 63.0746 96.6716 63.1253C96.0465 63.4804 95.5256 63.8862 95.1609 64.4949C95.0567 64.5456 94.9526 64.6471 94.8484 64.7485ZM93.2856 64.9007C93.3377 65.0022 93.3377 65.0022 93.2335 64.9514C93.2335 64.9007 93.2335 64.9007 93.2856 64.9007C93.546 64.9007 93.546 64.9007 93.5981 64.6471C93.7544 64.7485 93.9107 64.7485 94.067 64.5964C94.6921 64.0891 95.3172 63.5819 95.9423 63.0746C95.9944 63.0239 96.0465 62.9732 96.0986 62.9224V62.821C96.0465 62.7703 95.9423 62.7195 95.8902 62.7195C95.786 62.7195 95.6298 62.7703 95.5777 62.8717C95.1088 63.2775 94.64 63.6833 94.2233 64.0891C94.0149 64.292 93.8586 64.4949 93.6502 64.6978C93.494 64.7485 93.3898 64.7993 93.2856 64.9007ZM94.067 62.9224C94.0149 63.0239 93.9628 63.1761 93.9107 63.2775C93.8586 63.3282 93.8586 63.3282 93.8065 63.2775C93.8065 63.2775 93.8586 63.2775 93.8586 63.2268C93.9107 63.1761 93.9628 63.0746 94.067 62.9224ZM96.5674 64.1906C96.5153 64.2413 96.5674 64.1906 96.5674 64.1906C96.7237 64.1398 96.8279 64.0891 96.8279 63.8862C96.9321 63.9369 97.0363 63.9877 97.0884 63.8355L97.0363 63.7848C96.9842 63.8355 96.9321 63.8355 96.88 63.8862C96.7758 64.0384 96.6716 64.1398 96.5674 64.1906ZM98.6512 64.9514L98.5991 64.9007L98.6512 64.9514C98.7553 65.1036 98.7553 65.1036 98.9116 64.9514C99.4326 65.6616 99.693 66.4224 99.6409 67.3355C99.6409 67.5891 99.693 67.8935 99.7451 68.1471C99.9535 68.8572 100.11 69.5674 99.9014 70.2775C99.8493 70.5311 99.9535 70.7848 100.11 70.9369C100.266 71.1398 100.422 71.3427 100.579 71.4949C101.308 72.2558 102.089 73.0166 102.871 73.7775C103.392 74.2848 103.913 74.792 104.538 75.2485C104.954 75.5529 105.319 75.8572 105.632 76.2123C106.257 76.9224 106.934 77.5819 107.611 78.2413C107.924 78.5456 108.236 78.7993 108.601 78.9514C109.018 79.1543 109.434 79.2558 109.903 79.2051C109.955 79.2051 110.06 79.1543 110.06 79.1036C110.06 79.0529 110.007 78.9514 110.007 78.9007C109.903 78.7993 109.747 78.6978 109.799 78.4949C109.851 78.3427 110.06 78.292 110.372 78.3935C110.737 78.4949 111.049 78.6471 111.414 78.7993C111.779 78.9007 112.091 79.0529 112.456 79.1543C113.029 79.2558 113.602 79.3572 114.175 79.408C114.331 79.408 114.435 79.3065 114.383 79.2051C114.071 78.4949 113.602 77.8862 113.185 77.2268C113.133 77.1761 113.081 77.1253 112.977 77.0746C112.716 76.9732 112.56 76.821 112.404 76.6181C112.3 76.4152 112.091 76.3645 111.883 76.3645C111.674 76.3138 111.466 76.3138 111.258 76.3138C110.164 76.1616 109.122 76.0601 108.08 75.7558C107.82 75.7051 107.611 75.6543 107.455 75.4007C107.351 75.2993 107.247 75.35 107.194 75.5022C107.142 75.6543 107.142 75.8065 107.038 75.9587C106.986 76.0601 106.83 76.0601 106.726 76.0601C106.673 76.0601 106.569 75.9587 106.569 75.908C106.517 75.8572 106.465 75.7558 106.465 75.7051C106.413 75.2485 106.257 74.8427 105.996 74.4877C105.84 74.234 105.632 73.9297 105.475 73.6761C105.319 73.4732 105.475 73.1688 105.736 73.1181C106.361 72.9659 106.986 72.9659 107.611 72.9659C108.288 72.9659 108.966 73.0166 109.591 73.0166C109.643 73.0166 109.643 72.9659 109.695 72.9659C109.643 72.9152 109.643 72.8138 109.591 72.8138C108.861 72.7123 108.132 72.5601 107.351 72.5601C106.83 72.5601 106.257 72.5094 105.736 72.4587C105.58 72.4587 105.423 72.408 105.267 72.3065C105.215 72.2558 105.163 72.2051 105.163 72.1543C105.163 72.1036 105.215 72.0022 105.267 71.9514C105.475 71.9007 105.684 71.85 105.892 71.9007C106.309 71.9007 106.726 72.0022 107.142 72.0022C108.028 71.9514 108.913 72.0022 109.747 72.0529C109.851 72.0529 110.007 72.0529 110.112 72.0022C110.164 72.0022 110.216 71.9514 110.216 71.9514C110.216 71.9007 110.164 71.7485 110.112 71.7485C109.799 71.6978 109.487 71.6471 109.122 71.5964C108.236 71.4949 107.299 71.4442 106.413 71.3427C105.684 71.2413 104.954 71.1398 104.173 71.1398C103.965 71.1398 103.756 71.1398 103.548 71.0891C103.444 71.0891 103.34 70.9369 103.287 70.8355C103.235 70.7848 103.392 70.6326 103.496 70.5819C104.173 70.4804 104.798 70.4804 105.475 70.5819C106.726 70.7848 108.028 70.8862 109.33 70.9369C109.434 70.9369 109.487 70.9369 109.591 70.8862V70.7848C109.33 70.6833 109.07 70.4804 108.809 70.4804C107.767 70.379 106.83 69.9224 105.736 70.0239C105.527 70.0239 105.319 69.9732 105.111 69.9224C104.798 69.821 104.59 69.8717 104.329 70.0746C104.173 70.1761 103.913 70.2268 103.756 70.1761C103.287 70.1253 102.871 70.0239 102.402 69.9732C102.246 69.9224 102.089 69.8717 102.037 69.7195C101.985 69.5674 102.193 69.4152 102.454 69.3645C102.662 69.3138 102.871 69.3138 103.079 69.3138C104.017 69.3138 104.902 69.3645 105.84 69.3138C106.1 69.3138 106.413 69.4152 106.673 69.4152C106.986 69.4659 107.351 69.5167 107.663 69.5674C107.715 69.5674 107.715 69.5166 107.767 69.5166C107.715 69.4659 107.715 69.3645 107.663 69.3645C107.299 69.2123 106.934 69.2123 106.569 69.1616C106.257 69.1616 105.944 69.2123 105.736 69.0601C105.215 68.7558 104.694 68.8065 104.173 68.8065C103.496 68.7558 102.871 68.7051 102.193 68.5529C102.141 68.5529 102.089 68.4514 102.037 68.4007C102.089 68.4007 102.089 68.35 102.141 68.35C102.35 68.35 102.558 68.2993 102.767 68.2993C104.277 68.4007 105.736 68.2993 107.247 68.2485C107.403 68.2485 107.559 68.1978 107.715 68.1471C107.715 68.1471 107.767 68.0964 107.767 68.0456C107.767 67.9949 107.767 67.9442 107.715 67.9442C107.403 67.8427 107.09 67.6906 106.778 67.6906C105.892 67.5891 104.954 67.4877 104.017 67.5891C103.34 67.6398 102.662 67.6906 102.089 67.3355C102.037 67.2848 101.985 67.234 101.985 67.1326C101.985 67.0819 102.037 66.9297 102.089 66.9297C102.298 66.8282 102.558 66.7268 102.767 66.6253C102.819 66.6253 102.871 66.4732 102.871 66.4224C102.871 66.3717 102.767 66.2703 102.714 66.2703C102.506 66.2195 102.298 66.2195 102.089 66.1688C101.985 66.1688 101.829 66.1688 101.725 66.1181C101.568 66.1181 101.464 65.9152 101.568 65.763C101.777 65.4587 101.777 65.4587 101.412 65.408C101.256 65.408 101.1 65.408 100.943 65.3572C100.891 65.3572 100.891 65.2558 100.839 65.1543C100.839 65.1036 100.839 65.0529 100.891 65.0529C101.256 64.9514 101.62 64.85 101.985 64.7485C102.402 64.6471 102.454 64.5964 102.35 64.1906C102.193 63.6326 101.777 63.3282 101.308 63.0239C101.256 62.9732 101.152 62.8717 101.204 62.821C101.256 62.7195 101.308 62.5674 101.412 62.5674C101.777 62.4152 102.141 62.3138 102.454 62.2123C102.454 62.2123 102.506 62.1616 102.506 62.1109C102.506 62.0601 102.454 62.0601 102.402 62.0601C101.568 61.908 100.891 62.3138 100.11 62.5166C100.058 62.5166 100.006 62.5674 100.006 62.6181C99.9014 62.9224 99.6409 62.9732 99.3805 63.1253C99.0679 63.2775 98.8595 63.5311 99.0158 63.9369C99.1721 64.292 99.0158 64.6471 99.0158 65.0022C98.8595 65.0022 98.7553 65.0022 98.6512 64.9514ZM93.1293 62.7703C92.8167 62.7703 92.6084 62.9224 92.4 63.1761C92.3479 63.2268 92.3479 63.3282 92.3479 63.379C92.3479 63.4297 92.5042 63.4804 92.5563 63.4297C92.7126 63.3282 92.9209 63.2268 93.0251 63.0746C93.1293 63.0239 93.0772 62.8717 93.1293 62.7703H93.1814C93.1814 62.7703 93.1814 62.7195 93.2335 62.7195C93.1814 62.7195 93.1814 62.7703 93.1293 62.7703ZM95.6298 65.2051C95.5256 65.2051 95.3693 65.2051 95.3172 65.2558C95.0567 65.4587 94.8484 65.6616 94.5879 65.9152C94.4837 66.0166 94.5358 66.0674 94.5879 66.0674C94.64 66.0674 94.6921 66.0674 94.6921 66.0674C95.1088 65.8645 95.4735 65.6616 95.6298 65.2051V65.1543V65.2051ZM90.3684 70.3282C90.3684 70.4297 90.3684 70.5819 90.5247 70.4297C90.4726 70.379 90.4205 70.3282 90.3684 70.3282C90.3163 70.2775 90.3163 70.1761 90.2642 70.1253C89.8995 69.8717 89.4828 69.6688 89.1181 69.4152C89.066 69.4152 89.014 69.4152 89.014 69.4152C88.9619 69.4152 88.9098 69.4659 88.9619 69.5166C89.1702 69.821 89.4828 70.0239 89.8474 70.1761C90.0037 70.2775 90.16 70.3282 90.3684 70.3282ZM92.1395 62.5166C92.6605 62.5166 93.0251 62.1616 93.4419 61.908C93.494 61.8572 93.494 61.7051 93.4419 61.6036C93.3898 61.4514 93.1293 61.35 93.0251 61.5022C92.7126 61.7558 92.4521 62.0601 92.1916 62.3645C92.1395 62.3645 92.1395 62.4659 92.1395 62.5166C92.0874 62.5166 92.0353 62.5166 91.9312 62.5166C91.8791 62.5166 91.827 62.6181 91.827 62.6688C91.8791 62.6688 91.9833 62.7195 92.0353 62.6688C92.0874 62.6688 92.0874 62.5674 92.1395 62.5166ZM110.424 74.6906C110.997 74.6906 111.31 74.6906 111.674 74.6906C111.779 74.6906 111.883 74.5384 111.883 74.4369C111.935 74.234 111.831 73.9804 111.622 73.9804C111.258 73.879 110.893 73.8282 110.528 73.7775C109.851 73.6761 109.226 73.6761 108.549 73.5746C107.872 73.4732 107.247 73.6253 106.569 73.8282C106.517 73.8282 106.465 73.9804 106.517 74.0311C106.778 74.5891 107.09 74.792 107.663 74.6906C108.184 74.5891 108.653 74.5891 109.122 74.6906C109.643 74.6906 110.164 74.6906 110.424 74.6906ZM106.1 63.9369V63.9877C105.684 63.9877 105.267 63.9877 104.85 63.9877C104.59 63.9877 104.381 64.0384 104.225 64.292C104.173 64.3935 103.965 64.4442 103.808 64.4442C103.652 64.4949 103.496 64.4949 103.34 64.5456C103.287 64.5456 103.287 64.5964 103.287 64.6471C103.287 64.6978 103.34 64.7485 103.392 64.7485C103.6 64.7993 103.808 64.85 103.965 64.85C104.902 64.9007 105.892 64.9007 106.83 65.0022C107.507 65.0529 108.236 65.0022 108.913 65.1543C108.966 65.1543 109.122 65.1543 109.122 65.1036C109.122 64.85 109.122 64.6471 109.07 64.3935C109.07 64.3935 109.018 64.3427 108.966 64.3427C108.497 64.3935 108.08 64.4949 107.715 64.0384C107.611 63.9877 107.455 64.0384 107.351 63.9877C106.934 63.9877 106.517 63.9369 106.1 63.9369ZM104.798 78.1906C105.059 78.1906 105.267 78.1398 105.371 77.9877C105.475 77.8355 105.475 77.6326 105.267 77.4297C104.798 76.9732 104.277 76.5674 103.808 76.1109C103.704 76.0094 103.6 76.0094 103.496 75.9587C103.444 75.9587 103.392 75.9587 103.392 75.9587C103.34 75.9587 103.34 76.0094 103.34 76.0601C103.444 76.4659 103.548 76.9224 103.652 77.3282C103.756 77.7848 104.017 78.0384 104.486 78.0891C104.59 78.1398 104.694 78.1906 104.798 78.1906ZM105.475 66.3717C105.163 66.3717 104.798 66.321 104.486 66.321C104.329 66.321 104.173 66.321 104.017 66.321C103.86 66.321 103.756 66.4732 103.808 66.5239C103.86 66.5746 103.913 66.6761 103.965 66.6761C104.85 66.7775 105.684 66.879 106.517 67.0819C106.934 67.1833 107.351 67.1326 107.767 67.1326C107.872 67.1326 107.924 67.1326 108.028 67.0819C108.132 67.0311 108.184 66.9297 108.288 66.8282C108.288 66.8282 108.184 66.7268 108.132 66.6761C107.194 66.4224 106.361 66.3717 105.475 66.3717ZM112.612 64.7485C112.56 64.7485 112.352 64.7485 112.091 64.7993C112.039 64.7993 111.987 64.9514 111.987 65.0022C112.143 65.2051 112.352 65.4587 112.508 65.6616C112.56 65.7123 112.664 65.763 112.716 65.7123C113.393 65.5601 114.123 65.4587 114.748 65.2051C114.8 65.2051 114.8 65.1543 114.8 65.1036C114.8 65.1036 114.8 65.0529 114.748 65.0529C114.123 64.85 113.498 64.7485 112.612 64.7485ZM101.152 61.35C101.047 61.35 100.891 61.35 100.787 61.4007C100.162 61.6543 99.4326 61.8065 98.7553 61.908C98.547 61.9587 98.3907 62.0094 98.1823 62.1109C98.1302 62.1109 98.1302 62.263 98.1823 62.3138C98.2865 62.4152 98.4428 62.5166 98.5991 62.5674C98.8074 62.7195 99.0158 62.7703 99.2763 62.5166C99.3805 62.4152 99.5367 62.3138 99.693 62.263C100.214 62.0601 100.735 61.8065 101.308 61.6543C101.36 61.6543 101.412 61.5529 101.464 61.5022C101.412 61.4514 101.308 61.35 101.152 61.35ZM87.7116 70.5311C88.1805 70.5819 88.5972 70.6833 89.014 70.734C89.066 70.734 89.1181 70.734 89.1181 70.6833C89.1181 70.6326 89.1181 70.5819 89.066 70.5819C88.5972 70.2775 88.0763 70.0746 87.5553 69.8717C87.347 69.821 87.1386 69.821 86.9823 69.9224C86.774 70.0239 86.6177 69.9732 86.4093 69.821C86.3572 69.7703 86.253 69.7195 86.2009 69.7195C86.0967 69.7703 85.9926 69.8717 85.9405 69.9224C85.9405 69.9732 85.9926 70.1253 86.0447 70.1253C86.6177 70.2775 87.1386 70.379 87.7116 70.5311ZM105.632 65.4587C105.215 65.4587 105.007 65.4587 104.746 65.4587C104.694 65.4587 104.642 65.5094 104.642 65.5601C104.694 65.5601 104.694 65.6109 104.746 65.6109C105.788 65.763 106.778 65.8138 107.82 66.0674C107.976 66.1181 108.132 66.0166 108.288 65.9659C108.288 65.9659 108.34 65.9152 108.34 65.8645C108.34 65.8138 108.34 65.763 108.34 65.763C108.236 65.7123 108.132 65.6109 108.028 65.6109C107.09 65.6109 106.257 65.5094 105.632 65.4587ZM104.642 61.5529C104.954 61.5529 105.319 61.5529 105.632 61.6036C105.788 61.6036 105.944 61.7558 106.1 61.5529C106.153 61.4514 105.996 61.4007 105.58 61.35C105.059 61.2993 104.538 61.1978 103.965 61.1471C103.496 61.0964 103.079 61.0964 102.61 61.1471C102.558 61.1471 102.506 61.2485 102.454 61.2993C102.402 61.4007 102.558 61.5022 102.662 61.5022C102.714 61.5022 102.767 61.5022 102.767 61.5022C103.183 61.4514 103.548 61.35 103.913 61.5022C104.173 61.5529 104.433 61.5022 104.642 61.5529ZM106.048 63.3282C105.319 63.2268 104.746 63.1253 104.173 63.0239C103.913 62.9732 103.6 63.0239 103.287 63.0239C103.183 63.0239 103.131 63.0239 103.027 63.0746C102.975 63.1253 102.923 63.1761 102.871 63.2268C102.819 63.3282 102.923 63.5311 103.027 63.5311C103.6 63.5311 104.173 63.5311 104.746 63.5311C105.163 63.4804 105.527 63.5311 106.048 63.3282ZM94.4837 61.7558C94.3795 61.7051 94.3274 61.6036 94.2233 61.5529C94.1712 61.5529 94.067 61.6036 94.0149 61.6036V61.7051C94.1191 61.8065 94.1712 61.8572 94.2753 61.908C94.3274 61.9587 94.4316 61.8572 94.4837 61.7558ZM111.466 75.5529C111.466 75.5022 111.414 75.4514 111.414 75.4514C111.31 75.4007 111.206 75.35 111.101 75.2993C111.101 75.2993 111.049 75.35 111.049 75.4007C111.049 75.5529 111.153 75.6036 111.258 75.6036C111.31 75.6036 111.414 75.5529 111.466 75.5529ZM91.7749 69.5166C91.7228 69.5166 91.6707 69.5674 91.6707 69.5674C91.6707 69.6181 91.6707 69.6688 91.6707 69.6688C91.7749 69.821 91.9312 69.821 92.0874 69.7703C92.1395 69.7703 92.1395 69.7195 92.1395 69.6688C92.1395 69.6181 92.0874 69.5674 92.0874 69.5674C92.0353 69.5674 91.8791 69.5674 91.7749 69.5166ZM95.0047 66.4732C95.0047 66.5239 95.0567 66.5746 95.0567 66.5746C95.213 66.6253 95.2651 66.5239 95.3172 66.4224C95.3172 66.3717 95.3172 66.3717 95.3172 66.321C95.2651 66.2195 95.1609 66.2703 95.0567 66.3717C95.0567 66.4224 95.0047 66.4732 95.0047 66.4732ZM104.85 62.3645C104.798 62.3645 104.798 62.3138 104.746 62.3138C104.642 62.3138 104.59 62.3645 104.746 62.4152C104.798 62.4152 104.85 62.4152 104.85 62.4152C104.85 62.4659 104.85 62.4152 104.85 62.3645ZM108.966 67.5384C108.913 67.5384 108.913 67.5384 108.861 67.5384C108.861 67.5891 108.913 67.6398 108.913 67.6398C108.913 67.6398 108.966 67.6398 109.018 67.6398C109.018 67.5891 108.966 67.5384 108.966 67.5384ZM110.893 73.1181C110.893 73.0674 110.893 73.0166 110.893 73.0166C110.841 73.0166 110.737 72.9659 110.685 72.9659C110.685 72.9659 110.633 73.0166 110.633 73.0674C110.633 73.1181 110.685 73.1688 110.685 73.1688C110.789 73.1688 110.841 73.1181 110.893 73.1181ZM109.903 65.5601L109.851 65.5094V65.5601H109.903ZM98.9637 65.9152L99.0158 65.9659L99.0679 65.9152H98.9637ZM105.632 62.6181L105.684 62.6688V62.6181H105.632Z" fill="#B76F38" fill-opacity="0.2"/>
<path d="M108.966 76.9224C109.851 76.9731 110.476 77.0238 111.154 77.0745C111.31 77.0745 111.518 77.1253 111.622 77.2267C112.039 77.5311 112.56 77.5311 112.925 77.9369V78.0383C112.925 78.089 112.873 78.089 112.873 78.1398C112.768 78.1398 112.612 78.1398 112.508 78.1398C111.466 77.9369 110.476 77.8354 109.434 77.8861C109.018 77.8861 108.653 77.734 108.288 77.4803C108.236 77.4296 108.184 77.3282 108.184 77.2774C108.184 77.2267 108.288 77.1253 108.34 77.1253C108.601 77.0238 108.861 76.9731 108.966 76.9224Z" fill="#B76F38" fill-opacity="0.2"/>
<path d="M27.72 34.2157C28.74 34.0357 29.52 33.6157 30.12 33.0157C30.3 32.8357 30.48 32.5357 30.72 32.4157C31.5 31.9957 32.1 31.3957 32.7 30.7957C33.42 30.1357 34.26 29.5357 35.04 28.8757C36.6 27.6157 38.16 26.2957 39.42 24.7357C39.72 24.3757 40.08 24.0157 40.26 23.5957C40.44 23.2357 40.86 22.9957 40.92 22.5157C40.92 22.3357 41.1 22.2157 41.28 22.0957C42.24 21.1357 43.26 20.1157 44.22 19.1557C44.4 18.9757 44.58 18.8557 44.76 18.7357C45 18.6157 45.36 18.6757 45.54 18.9157C45.66 19.0957 45.72 19.2757 45.66 19.4557C45.6 19.6357 45.48 19.8157 45.36 19.9357C44.88 20.4757 44.4 21.0157 43.92 21.4957C42.42 22.9957 41.22 24.7357 39.84 26.3557V26.4757C39.9 26.5957 39.96 26.5957 40.08 26.4757C40.92 25.8757 41.82 25.2757 42.66 24.6757C43.2 24.3157 43.68 24.0157 44.22 23.6557C44.4 23.5357 44.58 23.5957 44.76 23.7157C45.18 23.9557 45.36 24.4357 45 24.7957C44.46 25.3957 43.86 25.9357 43.26 26.5357C43.08 26.7157 42.9 26.8357 42.78 27.0757C42.72 27.1357 42.78 27.2557 42.78 27.3157C42.78 27.3757 42.84 27.3757 42.84 27.4357C43.44 28.1557 43.44 28.2757 42.84 28.9957C42.66 29.1757 42.42 29.4157 42.24 29.5957C42.06 29.8357 41.7 29.9557 41.82 30.3157C41.88 30.4957 42.12 30.6157 42.3 30.7957C42.54 31.0357 42.6 31.2757 42.48 31.5757C42.36 31.9957 42.24 32.4157 41.76 32.5957C41.64 32.6557 41.58 32.7757 41.46 32.8957C41.04 33.1957 41.34 33.8557 40.8 34.0957C40.32 34.3357 40.32 34.8757 40.14 35.2957C40.08 35.4757 39.96 35.6557 39.96 35.8357C39.96 35.8957 40.08 35.9557 40.14 36.0157C40.2 36.0757 40.26 36.1357 40.32 36.1957C39.6 36.4357 39.54 37.1557 39.36 37.6957C39 38.5357 38.76 39.4357 38.52 40.2757C38.4 40.6357 38.22 40.7557 37.92 40.8157C37.26 41.0557 36.54 41.2357 35.88 41.4757C35.4 41.6557 35.04 41.8957 34.68 42.2557C34.38 42.6157 33.96 42.9157 33.66 43.2157C33.12 43.7557 32.64 44.3557 32.64 45.1957C32.64 45.3757 32.58 45.6157 32.46 45.7357C32.1 46.1557 32.28 46.6357 32.28 47.0557C32.22 47.6557 32.52 48.0757 32.88 48.4357C33.84 49.3957 34.92 49.9957 36.3 49.9957C36.36 49.9957 36.48 49.9357 36.54 49.8757C36.54 49.8757 36.54 49.7557 36.48 49.7557C36.3 49.6357 36.06 49.5157 35.88 49.4557C35.58 49.3357 35.46 49.0957 35.46 48.7957C35.4 48.4357 35.7 48.0757 36.06 48.1357C36.24 48.1357 36.42 48.1957 36.6 48.2557C37.8 48.4957 38.94 48.7357 40.14 48.7957C40.92 48.8557 41.76 49.0957 42.54 49.2157C42.72 49.2757 42.9 49.3957 43.02 49.5157C43.08 49.5757 43.2 49.7557 43.14 49.8757C43.14 49.9957 42.96 50.1157 42.84 50.1757C42.3 50.2357 41.7 50.2957 41.1 50.3557C41.04 50.3557 41.04 50.4157 41.04 50.4757C41.04 50.5357 41.04 50.5957 41.04 50.5957C41.4 50.8957 41.82 51.1357 42.18 51.4357C42.3 51.4957 42.42 51.5557 42.54 51.6757C42.78 51.8557 42.78 52.3957 42.48 52.5157C42.24 52.6357 41.94 52.6957 41.7 52.8157C41.52 52.8757 41.4 53.0557 41.4 53.2357C41.46 53.5957 41.4 53.9557 41.04 54.1357C40.68 54.3157 40.56 54.5557 40.5 54.9157C40.56 55.1557 40.38 55.2157 40.2 55.2157C39.84 55.2157 39.42 55.2157 39.06 55.0957C38.58 54.9757 38.1 54.9157 37.62 55.0357C36.96 55.2157 36.3 55.2157 35.64 55.0357C34.74 54.8557 33.9 54.6157 33 54.3157C32.64 54.1957 32.28 54.0157 31.98 53.7757C31.8 53.6557 31.68 53.3557 31.5 53.2357C31.2 53.1157 30.84 53.0557 30.54 52.9357C30.24 52.8157 29.88 52.8157 29.52 52.8757C29.16 52.9357 28.74 53.0557 28.38 53.0557C28.08 53.0557 27.84 53.1757 27.66 53.4757C27.48 53.7757 27.24 53.8957 26.94 53.8357C25.38 53.7157 23.88 54.1357 22.38 54.0757C22.26 54.0757 22.08 54.0757 21.96 54.1357C20.82 54.6157 19.62 54.7357 18.48 55.0357C17.4 55.3357 16.26 55.5757 15.12 55.8757C14.04 56.1757 13.02 56.4157 11.94 56.7757C11.58 56.8957 11.22 57.0157 10.86 57.0757C10.26 57.1957 9.66 57.4357 9.18 57.8557L9.12 57.9757C9.12 58.0357 9.18 58.0357 9.24 58.0357C9.9 57.8557 10.56 57.7957 11.16 57.5557C11.58 57.3757 12.12 57.3757 12.54 57.1957C13.68 56.7157 14.88 56.4157 16.14 56.2357C16.86 55.8757 17.7 55.9357 18.48 55.6357C18.48 55.6357 18.54 55.6957 18.6 55.7557C18.6 55.8157 18.6 55.8757 18.6 55.8757C18.48 55.9357 18.36 56.0557 18.24 56.1157C17.64 56.1757 17.16 56.4757 16.62 56.6557C16.14 56.8357 15.6 56.9557 15.12 57.0757C14.04 57.3157 12.9 57.5557 11.88 58.0957C11.16 58.2157 10.5 58.4557 9.84 58.6357C9 58.8757 8.22 59.1157 7.38 59.4157L7.26 59.3557C7.26 59.2957 7.2 59.2357 7.26 59.2357C7.56 58.9357 7.8 58.5757 8.1 58.2757V58.2157V58.2757C7.98 58.2157 7.86 58.0957 7.74 58.0357C7.68 57.9757 7.68 57.8557 7.68 57.7957C7.8 57.6757 7.98 57.5557 8.1 57.4357C8.22 57.3157 8.22 57.2557 8.16 57.0757C8.04 56.7157 8.16 56.5957 8.4 56.4757C8.82 56.3557 9.24 56.2357 9.6 56.0557C9.66 56.0557 9.72 55.9357 9.72 55.8157C9.72 55.7557 9.66 55.6357 9.6 55.6357C9.48 55.5757 9.3 55.6357 9.18 55.5757C9.12 55.5757 9 55.4557 9 55.3957C9 55.3357 9.06 55.2157 9.12 55.1557C9.42 55.0357 9.72 54.9157 10.02 54.7357C10.26 54.6157 10.56 54.5557 10.62 54.3757C11.1 53.5357 12 53.0557 12.48 52.2157C12.54 52.0957 12.6 51.9757 12.6 51.7957C12.72 51.6757 12.84 51.6157 12.9 51.4957C13.08 51.4357 13.2 51.3757 13.14 51.1957C13.62 51.1357 13.86 50.8357 14.1 50.4757C14.1 50.4157 14.1 50.3557 14.1 50.3557L13.98 50.2957C13.74 50.5957 13.32 50.7757 13.2 51.2557C13.02 51.2557 12.9 51.3757 12.96 51.5557C12.78 51.5557 12.66 51.6757 12.6 51.8557C12.36 51.7957 12.12 51.9757 11.94 52.0957C11.04 52.7557 10.2 53.4157 9.3 54.0757C9.18 54.1357 9.06 54.1957 8.88 54.1957C8.82 54.1957 8.7 54.1357 8.64 54.0757V53.9557C9 53.2357 9.54 52.7557 10.14 52.2157C11.22 51.2557 12.24 50.2357 13.32 49.2757C13.56 49.0357 13.62 48.8557 13.38 48.4957C13.08 48.0757 13.14 47.7157 13.32 47.2957C13.44 47.0557 13.26 46.8157 13.02 46.7557C12.12 46.6357 11.28 46.2757 10.32 46.3957C10.08 46.3957 9.84 46.3357 9.6 46.3357C9.12 46.3357 8.76 46.2157 8.4 45.8557C8.1 45.5557 7.68 45.3757 7.26 45.2557C7.02 45.1957 6.72 45.0157 6.48 44.8357C5.94 44.4157 5.34 44.1757 4.62 44.1757C4.56 44.1757 4.5 44.0557 4.5 43.9957C4.5 43.9357 4.5 43.7557 4.56 43.7557C5.04 43.4557 5.46 43.0957 6.12 43.1557C6.48 43.1557 6.78 42.9757 6.96 42.6757C7.08 42.4957 7.26 42.2557 7.5 42.1957C8.22 42.0157 8.82 41.4757 9.6 41.3557C9.66 41.3557 9.66 41.2957 9.72 41.2957C9.66 41.2357 9.6 41.1757 9.54 41.1157C9.42 41.0557 9.24 41.1157 9.12 41.0557C9.06 41.0557 9 40.9957 8.88 40.9357C8.94 40.9357 8.94 40.8757 9 40.8757C10.26 40.5157 11.52 40.3957 12.78 40.8757C13.02 40.9957 13.32 40.9957 13.62 41.0557C13.8 41.1157 14.04 41.1757 14.1 41.2957C14.34 41.7157 14.7 41.7757 15.06 41.7757C15.78 41.8357 16.5 41.8957 17.22 41.8957C17.4 41.8957 17.58 41.8357 17.76 41.7757C18.42 41.5357 19.02 41.3557 19.74 41.4157C19.86 41.4157 20.1 41.2957 20.22 41.1157C20.52 40.6957 20.7 40.2157 21 39.7357C21.18 39.3757 21.18 39.1357 20.82 38.8957C20.76 38.8957 20.76 38.7157 20.82 38.6557C20.88 38.5957 20.94 38.4757 21 38.4757C21.6 38.2357 21.84 37.7557 22.02 37.1557C22.14 36.6757 22.26 36.2557 22.32 35.7757C22.38 35.2357 22.5 34.7557 22.62 34.2157C22.68 34.0957 22.74 33.9157 22.86 33.8557C23.46 33.7357 23.58 33.3157 23.64 32.7757C23.7 32.4757 23.88 32.2957 24.12 32.1157C24.78 31.6357 25.44 31.1557 26.04 30.6157C26.52 30.1957 26.94 29.7757 27.42 29.3557C27.96 28.8757 28.44 28.3357 28.98 27.9157C29.22 27.6757 29.52 27.4357 29.82 27.4357C30.36 27.3757 30.66 27.0157 31.02 26.7157C31.98 25.8157 32.88 24.9157 33.78 24.0157C34.26 23.5357 34.74 23.1157 35.22 22.6357C36.36 21.6157 37.44 20.5357 38.52 19.4557C38.7 19.2757 38.88 19.0357 39.18 18.8557C39.84 18.4957 40.26 17.9557 40.68 17.3557C40.86 17.1157 41.16 17.1157 41.4 17.4157C41.58 17.6557 41.7 17.9557 41.52 18.1957C41.28 18.6157 41.04 19.0357 40.8 19.4557C40.38 20.2357 39.84 20.8957 39.54 21.6757C39.42 22.0357 39 22.3357 38.76 22.6957C38.58 22.9357 38.46 23.1757 38.7 23.4757C38.82 23.5957 38.82 23.7757 38.7 23.8357C37.92 24.4357 37.38 25.1557 36.54 25.6357C36.48 25.6957 36.36 25.6957 36.3 25.8157C35.88 26.7157 34.98 27.1957 34.38 27.9157C33.84 28.5157 33.24 29.0557 32.7 29.6557C32.34 30.0757 31.92 30.4957 31.32 30.6157C31.2 30.6157 31.08 30.7957 31.02 30.8557C30.18 32.0557 29.1 32.9557 27.72 33.4957C27.84 34.0357 27.78 34.1557 27.72 34.2157C27.66 34.2157 27.54 34.2157 27.48 34.2157C27.06 34.2157 26.76 33.9757 26.64 33.6157C26.64 33.5557 26.58 33.4357 26.52 33.3757C26.7 33.3757 26.76 33.2557 26.82 33.1357C27 33.1357 27.06 33.0157 27.12 32.8357C27.24 32.7757 27.36 32.6557 27.3 32.5357C27.36 32.2957 27.48 32.2357 27.66 32.1757C28.2 32.2957 28.56 32.0557 28.92 31.6957C29.46 31.0357 30.18 30.6157 30.84 30.2557C31.56 29.8357 32.16 29.3557 32.76 28.8157C32.88 28.6957 33.06 28.5157 33.18 28.5157C33.72 28.3957 34.02 27.9757 34.38 27.6157C34.92 27.1357 35.34 26.5357 35.76 25.9957C36.84 24.6157 37.92 23.1757 38.7 21.6157C38.76 21.4957 38.82 21.3157 38.76 21.2557C38.64 21.0757 38.52 21.2557 38.46 21.3757C38.04 21.7357 37.62 22.1557 37.2 22.5157C36.78 22.9357 36.42 23.3557 36.06 23.7757C35.16 24.6757 34.26 25.5757 33.36 26.5357C32.82 27.0757 32.4 27.7357 31.8 28.2157C30.72 29.1757 29.7 30.1357 28.68 31.1557C28.32 31.5157 27.96 31.9357 27.6 32.2957C27.48 32.4157 27.36 32.5357 27.24 32.6557C27.18 32.7757 27.12 32.8957 27.06 33.0157C26.88 33.0157 26.76 33.0757 26.76 33.3157C26.58 33.3157 26.46 33.3757 26.46 33.5557C25.62 33.8557 24.96 34.3357 24.66 35.2357C24.6 35.3557 24.48 35.4757 24.42 35.5357C24.36 35.5957 24.36 35.7157 24.3 35.7757C24.42 35.8357 24.54 35.9557 24.66 35.8957C25.8 35.3557 26.88 34.9957 27.72 34.2157ZM38.94 30.7357C38.76 30.7357 38.64 30.8557 38.64 30.9757C38.58 30.9757 38.46 30.9757 38.4 31.0357C38.34 31.0957 38.4 31.2157 38.52 31.1557C38.58 31.1557 38.58 31.0357 38.64 30.9157C38.82 31.0357 38.94 30.9157 38.94 30.7357C39 30.5557 39.12 30.4357 39.18 30.3157C39.24 30.3157 39.36 30.3757 39.42 30.3157C39.48 30.3157 39.48 30.1957 39.54 30.1957C39.48 30.1957 39.42 30.1957 39.42 30.1957C39.36 30.2557 39.3 30.3157 39.24 30.3757C39.12 30.4957 39.06 30.6157 38.94 30.7357ZM28.44 34.8757C28.62 34.7557 28.8 34.6357 28.98 34.5157C29.28 34.4557 29.64 34.3957 29.94 34.3357C30.18 34.2157 30.42 34.0357 30.66 33.9157C30.78 33.8557 30.84 33.7357 30.9 33.6157C31.02 33.6157 31.2 33.6757 31.32 33.6757C32.4 33.5557 33.3 33.0757 34.26 32.5957C34.32 32.5957 34.32 32.4157 34.32 32.3557C34.32 32.2957 34.2 32.2357 34.14 32.1757C34.08 32.1757 34.02 32.1757 34.02 32.1757C33.12 32.5957 32.16 32.9557 31.26 33.3757C31.14 33.4357 31.08 33.5557 30.96 33.6757C30.42 33.6757 30 33.7357 29.94 34.3957C29.76 34.3357 29.58 34.2757 29.4 34.2757C29.22 34.2757 29.04 34.3957 28.98 34.5757C28.74 34.5157 28.56 34.6357 28.44 34.8757H28.38L28.32 34.8157C28.32 34.8757 28.38 34.8757 28.44 34.8757ZM15.84 53.1157C15.6 53.1757 15.36 53.1757 15.12 53.2357C14.94 53.2957 14.76 53.3557 14.58 53.4157C14.52 53.4157 14.46 53.5357 14.4 53.5957C14.46 53.5957 14.58 53.6557 14.64 53.5957C14.94 53.5357 15.18 53.4757 15.48 53.3557C15.6 53.2957 15.72 53.1757 15.84 53.1157C16.08 53.1157 16.26 53.1157 16.5 53.1757C16.62 53.1757 16.68 53.1157 16.62 52.9957C16.62 52.9357 16.56 52.9357 16.5 52.9357C16.26 52.9957 16.08 53.0557 15.84 53.1157ZM18.84 53.5957C17.7 53.4757 17.46 53.5357 16.5 54.0757C16.14 54.0757 15.84 54.0757 15.48 54.1357C14.04 54.5557 12.54 55.0357 11.1 55.5157C11.04 55.5157 11.04 55.6957 11.04 55.7557C11.04 55.7557 11.1 55.8157 11.16 55.8157C11.28 55.8157 11.34 55.8757 11.46 55.8157C12.9 55.3957 14.34 55.0357 15.72 54.4957C15.96 54.4357 16.2 54.3157 16.38 54.2557C16.44 54.1957 16.5 54.1357 16.56 54.0157C17.34 54.1957 18.12 53.8957 18.84 53.5957V53.5357V53.5957ZM11.52 41.8357C11.4 41.7757 11.22 41.7157 11.16 41.8357C10.98 42.1957 10.74 42.4357 10.32 42.4957C10.2 42.4957 10.02 42.5557 9.9 42.6157C9.84 42.6757 9.72 42.7357 9.72 42.7957C9.72 42.8557 9.78 42.9757 9.84 43.0357C9.96 43.0957 10.2 43.1557 10.2 43.2157C10.32 43.5757 10.5 43.6957 10.8 43.6357C11.88 43.5757 12.9 43.9357 13.86 44.2957C14.16 44.4157 14.34 44.6557 14.28 44.9557C14.28 45.0757 14.22 45.2557 14.16 45.3757C14.16 45.6757 14.28 45.9757 14.58 46.0357C14.76 46.0957 14.94 46.1557 15.12 46.1557C15.66 46.1557 16.02 46.3957 16.26 46.8157C16.38 47.0557 16.56 47.2957 16.68 47.5357C16.74 47.6557 16.86 47.7757 16.98 47.8357C17.64 48.0157 18.3 48.0157 18.9 47.5957C18.9 47.5957 18.96 47.5357 18.96 47.4757C18.96 47.4157 18.9 47.4157 18.84 47.3557C18.48 47.2957 18.06 47.2357 17.7 47.1157C17.52 47.0557 17.34 46.9357 17.22 46.8157C17.1 46.6957 17.1 46.3957 17.28 46.3357C17.52 46.2757 17.76 46.1557 17.94 46.1557C18.3 46.1557 18.72 46.2157 19.08 46.2157C19.14 46.2157 19.26 46.0357 19.26 46.0357C19.02 45.4957 18.96 44.9557 19.14 44.3557C19.14 44.3557 19.02 44.2357 18.9 44.2357C18.66 44.2357 18.42 44.2957 18.18 44.2957C17.82 44.3557 17.52 44.2357 17.22 44.0557C17.16 43.9957 17.1 43.8757 17.1 43.8157C17.04 43.6957 17.16 43.5757 17.34 43.5757C17.58 43.5757 17.82 43.5757 18.06 43.5157C18.12 43.5157 18.18 43.4557 18.12 43.3957C18.12 43.3357 18.06 43.2157 18 43.2157C17.46 43.2157 16.98 43.0957 16.44 42.9157C16.2 42.8557 15.96 42.8557 15.72 42.8557C15.36 42.8557 15.06 42.7357 14.88 42.3757C14.76 42.1957 14.64 42.0757 14.4 42.0757C13.62 42.0757 12.9 41.7757 12.12 41.8957C12.06 42.0757 11.76 42.0157 11.52 41.8357ZM24.84 43.0957C24.36 43.5757 23.7 43.7557 23.1 44.1157C22.98 44.1757 22.92 44.3557 22.86 44.4157C22.98 44.4157 23.16 44.5357 23.28 44.4757C24.36 44.1157 25.44 43.8157 26.58 43.4557C27.6 43.1557 28.56 42.7957 29.52 42.3757C30.6 41.9557 31.68 41.6557 32.82 41.4157C33.72 41.2357 34.56 40.9357 35.4 40.6957C35.64 40.6357 35.94 40.3957 36.06 40.2157C36.6 39.3757 37.08 38.4757 37.44 37.5757C37.5 37.4557 37.32 37.3357 37.2 37.3357C36.78 37.3357 36.36 37.5157 36 37.6957C35.28 37.9957 34.56 38.1757 33.84 38.4757C33.36 38.7157 32.88 38.8957 32.4 39.0757C30.6 39.8557 28.62 40.0957 26.88 40.9357C26.7 40.9957 26.52 41.0557 26.34 41.0557C25.68 41.2357 25.08 41.4157 24.42 41.6557C24 41.7757 23.64 42.0157 23.28 42.2557C23.16 42.3757 23.04 42.5557 22.98 42.7357C22.92 42.9157 22.92 43.0957 22.98 43.2757C23.04 43.4557 23.28 43.4557 23.46 43.3957C23.88 43.2757 24.36 43.1557 24.84 43.0957ZM24.18 39.9157C24.24 40.0957 24.12 40.2757 23.94 40.3957C23.7 40.5757 23.4 40.6357 23.34 40.9357C23.34 40.9957 23.28 41.1757 23.34 41.2357C23.4 41.3557 23.58 41.4157 23.64 41.4157C24.18 41.4157 24.66 41.1757 25.14 40.9957C27.24 40.1557 29.4 39.4957 31.5 38.7757C32.52 38.4157 33.6 38.1757 34.56 37.5757C34.74 37.4557 34.92 37.4557 35.1 37.3957C35.94 37.0957 36.72 36.8557 37.56 36.5557C37.92 36.4357 38.04 36.1357 38.1 35.7757C38.1 35.5957 37.98 35.3557 37.8 35.4157C36.6 35.7757 35.34 35.8357 34.26 36.4957C34.02 36.6157 33.72 36.6757 33.48 36.7957C33.12 36.9157 32.76 37.0357 32.4 37.2157C31.74 37.5757 30.96 37.7557 30.24 37.9957C30.18 37.9957 30.06 37.9957 29.94 37.9957C29.88 37.9957 29.88 37.9357 29.88 37.8757C29.88 37.8157 29.88 37.7557 29.88 37.7557C30.06 37.6357 30.18 37.5157 30.36 37.4557C31.8 37.0357 33.18 36.4957 34.5 35.8357C34.62 35.7757 34.74 35.7157 34.92 35.6557C35.94 35.4757 36.78 34.9357 37.74 34.6357C38.04 34.5757 38.28 34.3957 38.52 34.2757C38.88 34.0357 39.18 33.6757 39.18 33.1957C39.18 32.9557 39.3 32.7757 39.48 32.5957C39.6 32.4757 39.66 32.2957 39.78 32.1157C39.9 31.8757 39.72 31.5757 39.48 31.5757C39.3 31.5757 39.06 31.5157 38.94 31.5757C37.86 31.9357 36.72 32.2357 35.7 32.7757C35.46 32.8957 35.28 32.9557 35.04 33.0157C33.24 33.4357 31.56 34.1557 29.88 34.7557C28.2 35.3557 26.58 36.0157 24.96 36.6757C24.78 36.7357 24.6 36.8557 24.48 36.9757C24.42 37.0357 24.42 37.2157 24.42 37.3357C24.42 37.3957 24.6 37.4557 24.66 37.3957C25.56 37.0957 26.46 36.7957 27.36 36.4357C29.22 35.7157 31.02 34.9957 32.88 34.4557C33.6 34.2757 34.26 33.9757 34.92 33.7957C35.4 33.6757 35.82 33.5557 36.3 33.4957C36.36 33.4957 36.48 33.5557 36.54 33.6157C36.54 33.6757 36.48 33.7357 36.48 33.7357C35.4 34.1557 34.32 34.5157 33.24 34.8757C32.04 35.2957 30.9 35.7157 29.7 36.1357C28.62 36.5557 27.54 36.9757 26.46 37.3957C25.86 37.6357 25.2 37.9357 24.6 38.1157C24 38.2957 23.76 38.7157 23.7 39.3157C23.7 39.4357 23.7 39.6157 23.82 39.6757C23.88 39.9157 24.06 39.8557 24.18 39.9157ZM31.5 42.4957C31.68 42.4357 31.56 42.4957 31.44 42.4957C30 42.9157 28.62 43.2757 27.18 43.7557C26.46 43.9957 25.8 44.4157 25.02 44.3557C24.9 44.3557 24.78 44.4757 24.66 44.5957C24.6 44.5957 24.6 44.6557 24.54 44.7157C24.54 44.7757 24.6 44.8357 24.6 44.8357C24.84 44.8957 25.02 45.0157 25.26 45.0757C25.74 45.1357 26.22 45.1957 26.7 45.2557C27.66 45.4357 28.68 45.6157 29.64 45.8557C30.36 46.0357 30.66 45.9157 31.2 45.1357C31.32 44.9557 31.38 44.7157 31.38 44.4757C31.38 43.9957 31.68 43.6957 32.1 43.5157C32.16 43.5157 32.16 43.4557 32.22 43.4557C33 43.2757 33.54 42.6757 33.96 42.0757C34.02 42.0157 33.96 41.8957 34.02 41.8357C33.96 41.8357 33.84 41.7757 33.78 41.8357C33.12 42.0157 32.52 42.1957 31.5 42.4957ZM16.8 51.6757C16.68 51.5557 16.62 51.3757 16.56 51.3157C16.32 51.1957 16.08 51.2557 15.9 51.1357C15.42 50.9557 15 51.0157 14.64 51.4357C14.46 51.6157 14.22 51.7357 14.1 51.8557C13.8 52.1557 13.5 52.4557 13.2 52.8157C13.2 52.8157 13.14 52.9357 13.2 52.9357C13.26 52.9957 13.32 53.1157 13.38 53.0557C13.92 52.8757 14.52 52.8157 14.76 52.2157C14.76 52.1557 15 52.1557 15 52.1557C15.3 52.5157 15.66 52.4557 16.02 52.2757C16.26 52.1557 16.5 52.0957 16.68 51.9757C16.68 51.9757 16.74 51.7957 16.8 51.6757ZM21.24 42.1957C21.42 41.8957 21.66 41.6557 21.84 41.4157C21.96 41.2357 22.02 40.9957 22.08 40.7557C22.08 40.6957 22.02 40.6357 22.02 40.5157C21.96 40.5157 21.9 40.5157 21.9 40.5757C21.72 40.8157 21.54 40.9957 21.36 41.2357C21.06 41.5357 21.06 41.8357 21.24 42.1957ZM26.4 50.3557C26.7 50.2957 27 50.2957 27.3 50.2357C27.36 50.2357 27.36 50.1757 27.42 50.1757C27.36 50.1157 27.36 50.0557 27.3 50.0557C26.76 49.9957 26.16 49.9957 25.62 49.9357C25.56 49.9357 25.56 49.9957 25.5 49.9957C25.44 49.9957 25.44 50.0557 25.44 50.1157C25.44 50.1757 25.44 50.2357 25.5 50.2357C25.8 50.2957 26.04 50.2957 26.4 50.3557ZM18.66 42.8557C18.72 42.7357 18.66 42.6757 18.54 42.6157C18.18 42.4957 17.82 42.4957 17.4 42.5557C17.34 42.5557 17.28 42.6157 17.28 42.6157C17.28 42.6757 17.28 42.7357 17.34 42.7357C17.52 42.9757 17.76 43.0957 18.06 43.1557C18.3 43.2157 18.6 43.0357 18.66 42.8557ZM40.98 31.5757C40.92 31.5157 40.92 31.4557 40.92 31.4557C40.74 31.5757 40.56 31.6357 40.38 31.7557C40.38 31.7557 40.38 31.8157 40.44 31.8157C40.56 31.8157 40.68 31.8757 40.8 31.8157C40.86 31.7557 40.92 31.6357 40.98 31.5757ZM20.1 43.2757L20.16 43.2157C20.16 43.0957 20.16 43.0357 20.04 43.0957C20.04 43.0957 19.98 43.1557 19.98 43.2157C20.04 43.2157 20.1 43.2157 20.1 43.2757ZM37.74 40.1557C37.68 40.1557 37.68 40.0957 37.62 40.0957C37.56 40.1557 37.56 40.2157 37.5 40.2757L37.56 40.3357C37.68 40.2757 37.68 40.2157 37.74 40.1557Z" fill="#B76F38" fill-opacity="0.2"/>
<path d="M18.36 62.3558C18.42 62.5358 18.48 62.7158 18.3 62.8958C17.28 63.9158 16.14 64.8158 14.76 65.2958C14.46 65.4158 14.16 65.5958 13.92 65.8358C13.32 66.6158 12.48 66.9158 11.58 67.0958C11.04 67.2158 10.44 67.2758 9.9 67.3958C9.12 67.5158 8.4 67.9358 7.56 67.9958C7.32 67.9958 7.02 68.2358 6.78 68.3558C6.6 68.4758 6.36 68.5958 6.18 68.7158C5.76 68.9558 5.4 69.0158 4.98 68.7758C4.68 68.5958 4.5 68.3558 4.2 68.4158C3.84 68.4758 3.6 68.7158 3.42 69.0158C2.82 69.7358 2.28 70.3958 1.98 71.2958C1.86 71.5958 1.68 71.8958 1.56 72.1958C1.5 72.3158 1.32 72.3758 1.2 72.4358C1.08 72.4958 0.78 72.3758 0.72 72.2558C0.66 72.0158 0.6 71.7758 0.6 71.5358C0.6 71.1758 0.66 70.8758 0.78 70.5158C0.96 69.9158 0.96 69.3758 0.24 69.1358C0.06 69.0758 0 68.8358 0 68.6558C0.06 68.4158 0.06 68.1758 0.18 67.9358C0.72 66.8558 0.96 65.6558 1.26 64.5158C1.32 64.3358 1.38 64.1558 1.44 63.9758C1.5 63.7358 1.74 63.6158 2.04 63.6758C2.16 63.6758 2.22 63.7358 2.34 63.7358C2.58 63.7958 2.7 63.7358 2.82 63.4958C2.88 63.2558 2.94 63.0158 3 62.7158C3.18 62.0558 3.36 61.3958 3.54 60.7958C3.72 60.1958 3.78 59.6558 3.42 59.1158C3.24 58.7558 3.3 58.4558 3.54 58.2158C3.96 57.7958 4.2 57.3158 4.5 56.7758C4.8 56.1758 5.34 55.8758 6 55.8158C6.06 55.8158 6.18 55.8758 6.24 55.9358C6.3 55.9958 6.36 56.1158 6.3 56.1758C5.94 56.8358 5.52 57.4958 5.22 58.2158C5.16 58.3958 4.92 58.5758 4.74 58.7558C4.56 58.9358 4.5 59.1758 4.56 59.4158C4.68 59.5358 4.8 59.7758 4.86 60.0158C4.92 60.1358 4.92 60.3158 4.86 60.4358C4.62 61.1558 4.62 61.9358 4.14 62.5958C3.66 63.2558 3.48 64.0358 2.76 64.5758C2.4 64.8758 2.34 65.2958 2.28 65.7758C2.22 66.3158 2.1 66.9158 2.1 67.5158C2.1 67.9358 1.74 68.4158 2.1 68.8358C2.58 68.8358 2.82 68.3558 3.18 68.1758C3.48 67.9958 3.72 67.7558 4.02 67.6358C4.32 67.4558 4.68 67.3958 4.98 67.4558C6.12 67.6358 6.12 67.6358 6.6 67.3358C6.84 67.2158 6.66 67.0358 6.6 66.8558C6.48 66.5558 6.6 66.2558 6.9 66.1958C7.44 66.1358 8.04 66.1358 8.64 66.0758C9.3 66.0758 9.96 66.1358 10.62 66.0158C11.1 65.9558 11.52 65.7758 12 65.6558C12.18 65.5958 12.3 65.4158 12.24 65.1758C12.18 64.8758 12.24 64.6958 12.54 64.6358C13.44 64.3358 14.34 64.0358 15.24 63.6758C15.54 63.5558 15.9 63.4958 16.02 63.0758C16.26 63.0758 16.56 63.1958 16.62 62.8358H16.68H16.62C16.44 62.9558 16.2 63.0158 16.02 63.1358C15.6 63.3158 15.18 63.2558 14.82 62.9558C14.7 62.8358 14.64 62.5358 14.76 62.4758C15 62.2958 15.24 62.1158 15.48 61.9958C16.14 61.6358 16.8 61.2158 17.4 60.7358C17.64 60.5558 17.82 60.3758 17.88 60.0758H17.82C17.82 59.9558 17.82 59.8358 17.82 59.7158C17.76 59.2358 17.76 59.2358 17.4 59.2958C17.28 59.2958 17.1 59.3558 16.98 59.3558C16.86 59.3558 16.68 59.4158 16.56 59.4158C16.44 59.4158 16.44 59.5358 16.44 59.6558C16.44 60.1958 16.38 60.1958 15.84 60.2558C15.66 59.9558 15.42 59.7758 15 59.9558C14.94 59.9558 14.88 60.0158 14.88 60.0758C14.94 60.1358 14.94 60.2558 15 60.2558C15.24 60.3758 15.54 60.3158 15.78 60.2558C15.18 60.6758 14.52 60.9158 13.8 61.0358C13.14 61.2158 12.54 61.3358 11.94 61.7558C11.58 61.9958 11.1 61.9958 10.74 61.6358C10.56 61.4558 10.32 61.3958 10.08 61.4558C9.96 61.4558 9.84 61.5758 9.78 61.6958C9.84 61.7558 9.9 61.8158 9.96 61.8758C10.02 61.8758 10.08 61.8758 10.08 61.9358C10.14 61.9958 10.26 62.0558 10.26 62.1158C10.26 62.1758 10.2 62.2958 10.14 62.3558C9.48 62.5958 8.82 62.8958 8.16 63.1358C7.68 63.3158 7.14 63.1358 6.6 63.3758C6.48 63.4358 6.48 63.3158 6.42 63.1958C6.36 62.8958 6.18 62.7758 5.94 62.8358C5.64 62.8958 5.28 62.9558 4.98 63.0158C4.92 63.0158 4.86 62.9558 4.8 62.8958C4.8 62.8958 4.8 62.8358 4.86 62.7758C4.86 62.7158 4.92 62.7158 4.98 62.7158C5.4 62.5958 5.82 62.3558 6.24 62.3558C6.72 62.4158 6.9 61.9958 7.26 61.8758C7.68 61.7558 8.1 61.6958 8.52 61.5758C8.88 61.4558 9.24 61.2758 9.6 61.2158C11.16 60.7358 12.72 60.2558 14.28 59.7758C14.34 59.7758 14.4 59.7758 14.4 59.7758C16.02 58.9958 17.82 58.8158 19.5 58.3958C20.16 58.2158 20.76 57.9758 21.24 57.4958C21.48 57.2558 21.6 56.9558 21.96 56.7758C22.26 56.6558 22.38 56.4158 22.38 56.1158C22.38 55.6358 22.68 55.3358 23.04 55.0958C23.22 54.9758 23.34 54.8558 23.52 54.7958C23.76 54.6758 24 54.6758 24.18 54.7958C24.72 55.0358 24.84 55.5158 24.48 55.9358C23.76 56.7158 22.92 57.3158 22.08 57.9158C21.96 58.0358 21.96 58.1558 22.14 58.2758C22.32 58.3958 22.5 58.4558 22.62 58.5758C22.74 58.6358 22.8 58.8158 22.86 58.9358C22.86 59.0558 22.86 59.2958 22.8 59.3558C22.26 59.6558 21.78 60.1358 21.18 60.2558C20.16 60.4358 19.32 60.9758 18.6 61.6958C18.36 61.9358 18 62.1758 17.7 62.4158C17.64 62.4758 17.64 62.5958 17.64 62.6558C17.7 62.6558 17.76 62.6558 17.76 62.6558C18.06 62.4758 18.24 62.4158 18.36 62.3558ZM20.4 59.3558C20.58 59.3558 20.76 59.2958 20.94 59.2958C21 59.2358 21.12 59.1758 21.12 59.1158C21.12 59.0558 21.12 58.9958 21.06 58.9358C21.06 58.9358 21 58.9358 20.94 58.9358C20.76 59.0558 20.88 59.1758 20.94 59.2958C20.76 59.3558 20.58 59.3558 20.4 59.3558C20.4 59.4158 20.4 59.4158 20.4 59.3558ZM9.18 62.2958C9.18 62.2358 9.18 62.2358 9.18 62.1758C9.12 62.1758 9.06 62.1758 9.06 62.2358C9.06 62.2358 9.06 62.2958 9.06 62.3558C9.06 62.3558 9.12 62.2958 9.18 62.2958ZM7.74 67.1558L7.8 67.2158V67.0958L7.74 67.1558ZM13.8 60.4958V60.6158L13.92 60.5558L13.8 60.4958Z" fill="#B76F38" fill-opacity="0.2"/>
<path d="M36.12 19.8159C36.24 19.4559 36.3 19.0359 36.54 18.7359C37.32 17.6559 37.86 16.3959 38.76 15.3759C39.06 15.0159 39.24 14.5359 39.42 14.1159C39.84 13.2159 40.32 12.3159 41.04 11.5959C41.16 11.4759 41.34 11.3559 41.58 11.4159C41.88 11.5359 42.12 11.7759 42.06 12.0159C41.94 12.3159 41.94 12.5559 41.94 12.8559C41.94 13.0359 41.88 13.2759 41.82 13.3959C41.4 13.9359 41.28 14.4759 41.28 15.1359C41.28 15.4359 41.16 15.6759 41.04 15.9759C40.98 16.2159 40.62 16.2159 40.44 15.9759C40.38 15.8559 40.26 15.6759 40.2 15.6759C39.96 15.6159 39.84 15.8559 39.78 15.9759C39.36 16.6959 38.94 17.3559 38.52 18.0759C38.46 18.1359 38.46 18.2559 38.4 18.3159C37.56 19.3359 36.9 20.4759 36.12 21.6159C36.12 21.6759 36 21.6759 36 21.6759C35.94 21.6159 35.88 21.4959 35.88 21.4359C36 21.0759 36.18 20.7159 36.3 20.3559C36.36 20.2359 36.36 20.0559 36.36 19.9359C36.3 19.9959 36.18 19.9359 36.12 19.8159Z" fill="#B76F38" fill-opacity="0.2"/>
<path d="M32.88 22.6958C32.94 22.9958 32.88 23.2958 32.7 23.4758C31.92 24.2558 31.2 25.0358 30.42 25.8758C30.24 26.0558 30.06 26.1758 29.88 26.3558C29.22 27.2558 28.2 27.7958 27.48 28.5758C27.18 28.8758 26.76 29.0558 26.4 29.2358C26.1 29.3558 25.86 29.2958 25.56 29.1758C25.26 28.9958 25.2 28.6358 25.5 28.5158C26.94 27.6758 28.14 26.4758 29.46 25.4558C30.36 24.7958 31.14 24.0758 31.98 23.2958C32.22 23.0558 32.52 22.8158 32.88 22.6958Z" fill="#B76F38" fill-opacity="0.2"/>
<path d="M13.74 58.8159C14.76 58.1559 15.84 57.7959 16.68 57.7959C16.74 57.7959 16.8 57.8559 16.8 57.8559C16.8 57.9159 16.8 58.0359 16.74 58.0959C16.74 58.1559 16.68 58.1559 16.62 58.1559C16.32 58.2759 16.02 58.3959 15.66 58.4559C15.36 58.5159 15 58.5759 14.7 58.6359C14.46 58.6959 14.16 58.8159 13.92 58.8759C13.86 58.9359 13.8 58.8759 13.74 58.8159Z" fill="#B76F38" fill-opacity="0.2"/>
<path d="M10.2 59.716C10.2 59.776 10.2 59.836 10.2 59.836C9.96 60.016 9.78 60.196 9.48001 60.256C8.82 60.436 8.16 60.736 7.5 60.856C7.44 60.856 7.38 60.736 7.38 60.676C7.38 60.676 7.44 60.556 7.5 60.556C8.4 60.436 9.12001 59.896 9.96001 59.656C10.02 59.596 10.14 59.716 10.2 59.716Z" fill="#B76F38" fill-opacity="0.2"/>
<path d="M4.74 64.276C4.68 64.216 4.68 64.216 4.62 64.156C4.62 64.096 4.62 64.036 4.68 64.036C4.98 63.856 5.28 63.616 5.7 63.616C5.76 63.616 5.88 63.676 5.88 63.796C5.88 63.856 5.82 64.036 5.82 64.036C5.46 64.096 5.1 64.156 4.74 64.276Z" fill="#B76F38" fill-opacity="0.2"/>
<path d="M11.22 59.7758C11.16 59.7158 11.04 59.6558 11.04 59.5958C11.04 59.5358 11.1 59.3558 11.16 59.3558C11.52 59.2358 11.88 59.1158 12.18 58.9958C12.24 58.9958 12.3 58.9958 12.3 58.9958C12.42 59.0558 12.42 59.1158 12.3 59.1758C12.06 59.3558 11.88 59.5358 11.64 59.6558C11.46 59.7758 11.34 59.7758 11.22 59.7758Z" fill="#B76F38" fill-opacity="0.2"/>
<path d="M18 57.7357C17.88 57.7357 17.82 57.7957 17.7 57.7957C17.64 57.7957 17.64 57.7957 17.58 57.7357C17.64 57.6757 17.7 57.6157 17.76 57.5557C17.94 57.4957 18.12 57.3757 18.3 57.3757C18.36 57.3757 18.48 57.4357 18.54 57.4957C18.6 57.6157 18.54 57.6757 18.42 57.6757C18.24 57.7357 18.12 57.7357 18 57.7357Z" fill="#B76F38" fill-opacity="0.2"/>
<path d="M6.11999 65.0559C6.05999 65.0559 5.99999 64.9959 5.99999 64.9959C5.99999 64.9359 5.93999 64.8159 5.99999 64.7559C6.11999 64.6359 6.29999 64.5759 6.47999 64.5159C6.53999 64.5159 6.65999 64.5159 6.71999 64.5759C6.77999 64.6359 6.71999 64.7559 6.71999 64.8159C6.53999 64.9959 6.35999 65.1159 6.11999 65.0559Z" fill="#B76F38" fill-opacity="0.2"/>
<path d="M35.52 22.9959C35.46 22.9359 35.4 22.8759 35.34 22.8159C35.34 22.8159 35.28 22.7559 35.28 22.6959C35.34 22.6359 35.4 22.6359 35.4 22.7559C35.46 22.8159 35.46 22.9359 35.52 22.9959C35.46 22.9959 35.52 22.9959 35.52 22.9959Z" fill="#B76F38" fill-opacity="0.2"/>
<path d="M20.34 55.8159L20.4 55.7559C20.34 55.8159 20.34 55.8159 20.34 55.8159Z" fill="#B76F38" fill-opacity="0.2"/>
<path d="M13.8 58.8758C13.74 58.8758 13.62 58.8758 13.56 58.8758C13.62 58.8758 13.68 58.8758 13.8 58.8758C13.74 58.8158 13.8 58.8758 13.8 58.8758Z" fill="#B76F38" fill-opacity="0.2"/>
<path d="M19.5 57.0759C19.62 57.3159 19.5 57.1359 19.5 57.0759V57.0759Z" fill="#B76F38" fill-opacity="0.2"/>
<path d="M33.24 22.3958C33.3 22.3358 33.36 22.2758 33.36 22.2158C33.36 22.2758 33.36 22.2758 33.3 22.3358C33.3 22.3358 33.24 22.3358 33.24 22.3958C33.18 22.3358 33.24 22.3958 33.24 22.3958Z" fill="#B76F38" fill-opacity="0.2"/>
<path d="M5.40002 60.8559C5.46002 60.8559 5.58002 60.8559 5.64002 60.7959C5.58002 60.8559 5.52002 60.8559 5.40002 60.8559Z" fill="#B76F38" fill-opacity="0.2"/>
<path d="M6.60001 60.2557C6.54001 60.2557 6.54001 60.3157 6.48001 60.3157C6.36001 60.2557 6.36001 60.1957 6.48001 60.1357C6.48001 60.1357 6.54001 60.1357 6.60001 60.1357C6.60001 60.1957 6.60001 60.2557 6.60001 60.2557Z" fill="#B76F38" fill-opacity="0.2"/>
<path d="M19.5 57.0759C19.62 57.1359 19.68 57.1959 19.8 57.2559H19.86C19.74 57.1959 19.62 57.1359 19.5 57.0759Z" fill="#B76F38" fill-opacity="0.2"/>
<path d="M5.46002 60.856V60.916C5.46002 60.916 5.46002 60.916 5.46002 60.856C5.40002 60.856 5.46002 60.856 5.46002 60.856Z" fill="#B76F38" fill-opacity="0.2"/>
<path d="M17.94 60.1359C17.7 59.9559 17.7 59.9559 17.94 59.8359C17.94 59.8959 17.94 60.0159 17.94 60.1359Z" fill="#B76F38" fill-opacity="0.2"/>
<path d="M18.42 62.2959L18.48 62.3559H18.36L18.42 62.2959Z" fill="#B76F38" fill-opacity="0.2"/>
<path d="M36.12 19.8759L36.06 19.8159H36.12V19.8759Z" fill="#B76F38" fill-opacity="0.2"/>
<path d="M32.88 22.6958C33 22.5758 33.12 22.5158 33.24 22.3958C33.12 22.4558 33 22.5758 32.88 22.6958Z" fill="#B76F38" fill-opacity="0.2"/>
<path d="M24.18 39.9158C25.02 39.4958 25.86 39.1358 26.76 38.8958C26.94 38.8358 27.06 38.7158 27.24 38.6558C27.24 38.7758 27.3 39.0158 27.24 39.0758C26.58 39.4358 25.92 39.7958 25.14 39.9158C24.84 39.9758 24.48 39.9758 24.18 39.9158C24.18 39.8558 24.18 39.9158 24.18 39.9158Z" fill="#B76F38" fill-opacity="0.2"/>
<path d="M27.24 38.6559C27.84 38.4759 28.5 38.2959 29.1 38.0559C29.1 38.0559 29.16 38.1159 29.22 38.1759C29.22 38.2359 29.22 38.2959 29.22 38.2959C29.16 38.3559 29.1 38.4759 29.04 38.4759C28.44 38.7159 27.9 38.8359 27.24 38.6559Z" fill="#B76F38" fill-opacity="0.2"/>
<path d="M24.84 43.0959C24.9 43.0359 24.96 42.9159 25.02 42.9159C25.62 42.6759 26.28 42.3759 26.88 42.1959C27.48 42.0159 28.02 41.7759 28.62 41.5359C28.68 41.4759 28.8 41.5359 28.92 41.5359C28.98 41.5359 29.04 41.5359 29.04 41.5959V41.7159C28.74 41.8959 28.5 42.1359 28.2 42.1959C27.24 42.3759 26.4 42.8559 25.5 43.1559C25.2 43.2159 25.02 43.2159 24.84 43.0959C24.78 43.0359 24.84 43.0959 24.84 43.0959Z" fill="#B76F38" fill-opacity="0.2"/>
<path d="M30.18 41.3558C30.12 41.2958 30.06 41.2958 30.06 41.2358C30.06 41.2358 30.06 41.1158 30.12 41.1158C31.26 40.6958 32.28 40.1558 33.48 39.9758C33.6 39.9758 33.66 39.9758 33.78 39.9758C33.9 39.9758 33.84 40.0358 33.72 40.0958C32.76 40.4558 31.74 40.8158 30.78 41.1758C30.54 41.2958 30.36 41.3558 30.18 41.3558Z" fill="#B76F38" fill-opacity="0.2"/>
<path d="M11.52 41.8359L11.58 41.9559C11.58 41.9559 11.52 41.8959 11.52 41.8359C11.52 41.8959 11.52 41.8359 11.52 41.8359Z" fill="#B76F38" fill-opacity="0.2"/>
<defs>
<clipPath id="clip0_416_6873">
<rect width="33" height="33" fill="white" transform="translate(93)"/>
</clipPath>
</defs>
</svg>
