<svg width="194" height="66" viewBox="0 0 194 66" fill="none" xmlns="http://www.w3.org/2000/svg">
<path d="M31.0027 4.89754C16.7992 5.82811 5.38743 17.5827 4.84867 31.8352C4.3589 45.5979 13.8605 57.3035 26.6437 60.1932L26.5947 40.0144L20.0807 47.8508C19.8358 48.1447 19.395 48.1937 19.1501 47.9488L16.2604 45.5489C15.9666 45.304 15.9176 44.8632 16.1625 44.5693L26.5457 32.129L26.4967 24.5865L20.0807 32.3249C19.8358 32.6188 19.395 32.6678 19.1501 32.4229L16.3094 30.072C16.0155 29.8271 15.9666 29.3863 16.2115 29.0924L30.8068 11.6075C31.1006 11.2646 31.6394 11.4605 31.6394 11.9013L31.7863 60.8788C32.1781 60.8788 32.521 60.9278 32.9128 60.9278C33.3046 60.9278 33.6475 60.9278 34.0393 60.8788L34.1372 11.9013C34.1372 11.4605 34.676 11.2646 34.9209 11.6075L49.5162 29.0924C49.7611 29.3863 49.7121 29.8271 49.4182 30.072L46.5775 32.4229C46.2837 32.6678 45.8918 32.6188 45.6469 32.3249L39.1819 24.5865V32.129L49.5162 44.5693C49.7611 44.8632 49.7121 45.304 49.4182 45.5489L46.5775 47.9488C46.2837 48.1937 45.8918 48.1447 45.6469 47.8508L39.1329 40.0144L39.084 60.1932C51.5732 57.3525 60.9279 46.1856 60.9279 32.8637C60.879 16.7991 47.2632 3.82003 31.0027 4.89754Z" fill="#ACD5D3"/>
<path d="M163.536 51.9164H160.205C160.107 51.9164 160.058 51.8674 160.058 51.7694V37.0762C160.058 36.8803 159.961 36.8313 159.814 36.8313H157.218C157.071 36.8313 156.973 36.9293 156.973 37.0762V54.5122C156.973 54.6591 157.071 54.7571 157.218 54.7571H163.536C163.732 54.7571 163.83 54.6591 163.83 54.5122V52.1613C163.83 52.0143 163.732 51.9164 163.536 51.9164Z" fill="#323D22"/>
<path d="M81.8415 28.9945H84.4863C84.6332 28.9945 84.7311 28.8966 84.7311 28.7496V21.6969C84.7311 21.5989 84.7801 21.5499 84.8781 21.5499H89.0412C89.2371 21.5499 89.335 21.452 89.335 21.2561V19.15C89.335 18.9541 89.2371 18.8562 89.0412 18.8562H84.8781C84.7801 18.8562 84.7311 18.8072 84.7311 18.7092V13.9094C84.7311 13.8115 84.7801 13.7625 84.8781 13.7625H89.384C89.5309 13.7625 89.6289 13.6646 89.6289 13.5176V11.2647C89.6289 11.1177 89.5309 11.0198 89.384 11.0198H81.8904C81.6945 11.0198 81.5966 11.1177 81.5966 11.2647V28.7007C81.5476 28.8966 81.6456 28.9945 81.8415 28.9945Z" fill="#323D22"/>
<path d="M98.7877 18.8562C98.3959 19.4439 97.8081 19.6888 97.0735 19.6888H95.898C95.7511 19.6888 95.6531 19.6398 95.6531 19.4929V13.6646C95.6531 13.5176 95.7511 13.4687 95.898 13.4687H97.2694C98.004 13.4687 98.5428 13.6646 98.8856 14.1054C99.2285 14.5462 99.3754 15.2808 99.3754 16.4073C99.3754 17.4848 99.1795 18.3174 98.7877 18.8562ZM100.355 21.501C100.208 21.1091 100.257 20.8153 100.502 20.6194C101.188 20.0316 101.726 19.3949 102.02 18.6603C102.363 17.9256 102.51 16.995 102.51 15.9665C102.51 14.3013 102.118 13.0279 101.383 12.2442C100.6 11.4116 99.3754 11.0198 97.6612 11.0198H92.7634C92.6165 11.0198 92.5186 11.1177 92.5186 11.2647V28.7007C92.5186 28.8966 92.6165 28.9455 92.7634 28.9455H95.3103C95.5062 28.9455 95.6041 28.8476 95.6041 28.7007V22.1866C95.6041 22.0397 95.6531 21.9907 95.8001 21.9907H97.1714C97.3184 21.9907 97.3673 22.0397 97.4653 22.1866L100.159 28.7496C100.208 28.8966 100.355 28.9945 100.502 28.9945H103.392C103.587 28.9945 103.636 28.8966 103.587 28.7496L100.355 21.501Z" fill="#323D22"/>
<path d="M109.563 28.7007V11.2647C109.563 11.1177 109.465 11.0198 109.318 11.0198H106.82C106.624 11.0198 106.526 11.1177 106.526 11.2647V28.7007C106.526 28.8966 106.624 28.9945 106.82 28.9945H109.318C109.465 28.9945 109.563 28.8966 109.563 28.7007Z" fill="#323D22"/>
<path d="M121.66 26.1048H116.762C116.664 26.1048 116.615 26.0559 116.615 25.9579V21.2561C116.615 21.1581 116.664 21.1091 116.762 21.1091H121.023C121.17 21.1091 121.268 21.0112 121.268 20.8643V18.7582C121.268 18.5623 121.219 18.4644 121.023 18.4644H116.762C116.664 18.4644 116.615 18.4154 116.615 18.3174V14.0564C116.615 13.9584 116.664 13.9094 116.762 13.9094H121.366C121.513 13.9094 121.611 13.8115 121.611 13.6646V11.2647C121.611 11.1177 121.513 11.0198 121.366 11.0198H113.824C113.677 11.0198 113.579 11.1177 113.579 11.2647V28.7007C113.579 28.8966 113.677 28.9945 113.824 28.9945H121.66C121.807 28.9945 121.905 28.8966 121.905 28.7007V26.3497C121.905 26.2028 121.807 26.1048 121.66 26.1048Z" fill="#323D22"/>
<path d="M125.334 28.9945H127.635C127.782 28.9945 127.929 28.8966 127.929 28.7496L127.782 15.9665C127.782 15.7706 127.831 15.6726 127.978 15.6726C128.076 15.6726 128.125 15.6726 128.174 15.7216C128.223 15.7706 128.223 15.8196 128.272 15.9665L132.239 28.7007C132.288 28.8966 132.386 28.9945 132.582 28.9945H136.011C136.158 28.9945 136.256 28.8966 136.256 28.7496V11.2647C136.256 11.1177 136.158 11.0198 136.011 11.0198H133.709C133.513 11.0198 133.415 11.1177 133.415 11.2647L133.562 23.656C133.562 23.8029 133.513 23.8519 133.415 23.8519C133.366 23.8519 133.268 23.8029 133.268 23.8029C133.219 23.7539 133.17 23.656 133.121 23.509L129.546 11.3626C129.497 11.1667 129.399 11.0688 129.203 11.0688H125.382C125.187 11.0688 125.089 11.1667 125.089 11.3136V28.7496C125.089 28.8966 125.187 28.9945 125.334 28.9945Z" fill="#323D22"/>
<path d="M148.01 22.7255C147.912 23.5091 147.765 24.1948 147.52 24.6846C147.275 25.1743 146.981 25.5662 146.59 25.811C146.198 26.0559 145.659 26.1539 145.071 26.1539H143.357C143.259 26.1539 143.21 26.1049 143.21 26.0069V13.8605C143.21 13.7626 143.259 13.7136 143.357 13.7136H145.022C145.659 13.7136 146.149 13.8115 146.59 14.0564C146.981 14.3013 147.324 14.6442 147.52 15.1339C147.765 15.6237 147.912 16.2604 148.01 17.0441C148.108 17.8277 148.157 18.7583 148.157 19.8358C148.157 20.9623 148.108 21.9418 148.01 22.7255ZM150.214 26.3498C150.655 25.5172 150.949 24.5866 151.145 23.4601C151.292 22.3336 151.389 21.1582 151.389 19.8848C151.389 18.6113 151.34 17.4359 151.145 16.3584C150.998 15.2809 150.655 14.3503 150.214 13.5177C149.773 12.6851 149.185 12.0973 148.402 11.6076C147.618 11.1668 146.639 10.9219 145.414 10.9219H140.37C140.223 10.9219 140.125 11.0198 140.125 11.1668V28.6028C140.125 28.7987 140.223 28.8966 140.37 28.8966H145.365C146.541 28.8966 147.52 28.6517 148.304 28.2109C149.136 27.8191 149.724 27.1824 150.214 26.3498Z" fill="#323D22"/>
<path d="M159.177 28.9458C159.814 28.7989 160.352 28.554 160.793 28.1622C161.283 27.8193 161.626 27.3295 161.871 26.6928C162.116 26.1051 162.263 25.3215 162.263 24.3909C162.263 23.7052 162.214 23.1665 162.116 22.6767C162.018 22.1869 161.822 21.7461 161.626 21.3543C161.43 20.9625 161.136 20.5706 160.793 20.2278C160.45 19.885 160.059 19.4931 159.618 19.1013C159.128 18.7095 158.785 18.3667 158.442 18.0728C158.149 17.7789 157.904 17.534 157.708 17.2892C157.512 17.0443 157.365 16.7504 157.316 16.4565C157.267 16.1627 157.218 15.8198 157.218 15.428C157.218 14.6444 157.365 14.1056 157.757 13.8607C158.1 13.6158 158.687 13.5179 159.422 13.5179C159.814 13.5179 160.206 13.5179 160.597 13.5669C160.989 13.6158 161.381 13.6648 161.724 13.7628C161.871 13.8118 161.92 13.7628 161.92 13.6158L162.116 11.4119C162.116 11.2649 162.067 11.2159 161.969 11.167C161.626 11.02 161.136 10.9221 160.597 10.8731C160.01 10.8241 159.422 10.7751 158.834 10.7751C158.148 10.7751 157.512 10.8241 156.924 10.9711C156.336 11.118 155.798 11.3629 155.357 11.7057C154.916 12.0486 154.573 12.5383 154.328 13.1261C154.083 13.7138 153.936 14.4974 153.936 15.428C153.936 16.1137 153.985 16.6524 154.083 17.1422C154.181 17.632 154.377 18.0728 154.573 18.4646C154.818 18.8564 155.112 19.2483 155.455 19.5911C155.798 19.9829 156.238 20.3258 156.679 20.7666C157.071 21.0604 157.414 21.3543 157.708 21.5992C158.002 21.8441 158.197 22.089 158.393 22.3828C158.54 22.6277 158.687 22.9216 158.785 23.2154C158.883 23.5093 158.932 23.8521 158.932 24.244C158.932 24.6848 158.883 25.0766 158.785 25.3215C158.687 25.6153 158.491 25.8112 158.295 25.9582C158.1 26.1051 157.855 26.2031 157.561 26.252C157.267 26.301 156.973 26.35 156.581 26.35C156.091 26.35 155.651 26.35 155.259 26.301C154.867 26.252 154.426 26.2031 153.985 26.1051C153.838 26.0561 153.79 26.1051 153.79 26.252L153.643 28.554C153.643 28.6519 153.643 28.7499 153.741 28.7989C154.279 28.8968 154.818 28.9948 155.357 29.0438C155.945 29.0927 156.483 29.0927 157.071 29.0927C157.855 29.1417 158.54 29.0927 159.177 28.9458Z" fill="#323D22"/>
<path d="M179.405 23.4113C179.258 24.4398 179.111 25.1744 178.817 25.5663C178.621 25.8601 178.376 26.056 178.131 26.203C177.837 26.3009 177.446 26.3499 176.858 26.3499C176.319 26.3499 175.878 26.3009 175.584 26.203C175.291 26.105 175.046 25.8601 174.85 25.5663C174.605 25.1744 174.409 24.4398 174.311 23.4113C174.213 22.3827 174.115 21.2562 174.115 20.0318C174.115 18.7584 174.164 17.5829 174.311 16.5544C174.458 15.5259 174.654 14.8402 174.899 14.3994C175.095 14.1055 175.34 13.9096 175.633 13.7627C175.927 13.6647 176.319 13.6157 176.907 13.6157C177.446 13.6157 177.886 13.6647 178.131 13.7627C178.425 13.8606 178.621 14.1055 178.817 14.3994C179.062 14.7912 179.258 15.5259 179.405 16.5544C179.552 17.5829 179.601 18.7584 179.601 20.0318C179.601 21.2562 179.552 22.3827 179.405 23.4113ZM181.266 12.3913C180.776 11.7056 180.188 11.2648 179.503 11.0689C178.817 10.873 177.935 10.7261 176.907 10.7261C175.878 10.7261 174.948 10.824 174.262 11.0689C173.527 11.3138 172.94 11.7546 172.45 12.3913C171.96 13.077 171.519 14.0565 171.274 15.4279C170.981 16.7993 170.834 18.2686 170.834 19.9828C170.834 20.8154 170.883 21.6481 170.932 22.4317C170.981 23.2153 171.079 23.95 171.225 24.5867C171.372 25.2724 171.519 25.8601 171.715 26.3499C171.911 26.8887 172.156 27.3295 172.401 27.6723C172.891 28.309 173.478 28.7498 174.164 28.9457C174.85 29.1416 175.731 29.2396 176.809 29.2396C177.837 29.2396 178.768 29.1416 179.454 28.9457C180.139 28.7498 180.776 28.309 181.217 27.6723C181.462 27.3295 181.707 26.8887 181.903 26.3499C182.098 25.8112 182.294 25.2234 182.441 24.5867C182.588 23.901 182.686 23.2153 182.735 22.4317C182.784 21.6481 182.833 20.8644 182.833 20.0318C182.833 18.3666 182.686 16.8483 182.392 15.4769C182.196 14.1055 181.805 13.077 181.266 12.3913Z" fill="#323D22"/>
<path d="M193.706 10.9709H186.213C186.017 10.9709 185.968 11.0689 185.968 11.2158V28.6518C185.968 28.8477 186.066 28.9457 186.213 28.9457H188.857C189.004 28.9457 189.102 28.8477 189.102 28.6518V21.697C189.102 21.5991 189.151 21.5501 189.249 21.5501H193.412C193.559 21.5501 193.657 21.4521 193.657 21.3052V19.1992C193.657 19.0033 193.559 18.9053 193.412 18.9053H189.249C189.151 18.9053 189.102 18.8563 189.102 18.7584V13.9586C189.102 13.8606 189.151 13.8116 189.249 13.8116H193.755C193.902 13.8116 194 13.7137 194 13.5668V11.2648C193.951 11.0689 193.853 10.9709 193.706 10.9709Z" fill="#323D22"/>
<path d="M89.5309 36.782H81.0578C80.8619 36.782 80.7639 36.8799 80.7639 37.0269V39.2798C80.7639 39.4268 80.8619 39.5737 81.0578 39.5737H83.6046C83.7026 39.5737 83.7515 39.6227 83.7515 39.7206V54.5118C83.7515 54.7078 83.8495 54.8057 83.9964 54.8057H86.5433C86.6902 54.8057 86.7882 54.7078 86.7882 54.5118V39.7206C86.7882 39.6227 86.8371 39.5737 86.9351 39.5737H89.4819C89.6288 39.5737 89.7268 39.4757 89.7268 39.2798V37.0269C89.7758 36.8799 89.6778 36.782 89.5309 36.782Z" fill="#323D22"/>
<path d="M103.098 36.782H100.551C100.355 36.782 100.257 36.8799 100.257 37.0269V44.0307C100.257 44.1286 100.208 44.1776 100.11 44.1776H95.849C95.751 44.1776 95.7021 44.1286 95.7021 44.0307V37.0758C95.7021 36.9289 95.6041 36.831 95.4082 36.831H92.8614C92.7144 36.831 92.5675 36.9289 92.5675 37.0758V54.5118C92.5675 54.7078 92.6655 54.8057 92.8614 54.8057H95.4082C95.5551 54.8057 95.7021 54.7078 95.7021 54.5118V47.0673C95.7021 46.9693 95.751 46.9203 95.849 46.9203H100.11C100.208 46.9203 100.257 46.9693 100.257 47.0673V54.5118C100.257 54.7078 100.355 54.8057 100.551 54.8057H103.098C103.245 54.8057 103.343 54.7078 103.343 54.5118V37.0758C103.343 36.8799 103.245 36.782 103.098 36.782Z" fill="#323D22"/>
<path d="M115.195 51.916H110.297C110.199 51.916 110.15 51.867 110.15 51.769V47.0182C110.15 46.9203 110.199 46.8713 110.297 46.8713H114.558C114.705 46.8713 114.803 46.7733 114.803 46.6264V44.5204C114.803 44.3245 114.754 44.2265 114.558 44.2265H110.297C110.199 44.2265 110.15 44.1775 110.15 44.0796V39.8185C110.15 39.7206 110.199 39.6716 110.297 39.6716H114.901C115.048 39.6716 115.146 39.5736 115.146 39.4267V37.1248C115.146 36.9778 115.048 36.8799 114.901 36.8799H107.359C107.212 36.8799 107.114 36.9778 107.114 37.1248V54.5608C107.114 54.7567 107.212 54.8546 107.359 54.8546H115.195C115.342 54.8546 115.44 54.7567 115.44 54.5608V52.2098C115.44 52.0139 115.342 51.916 115.195 51.916Z" fill="#323D22"/>
<path d="M132.435 36.782H124.942C124.795 36.782 124.697 36.8799 124.697 37.0758V54.5118C124.697 54.6588 124.795 54.7567 124.942 54.7567H127.586C127.733 54.7567 127.88 54.6588 127.88 54.5118V47.5081C127.88 47.4101 127.929 47.3611 128.027 47.3611H132.19C132.337 47.3611 132.435 47.2632 132.435 47.1162V45.0102C132.435 44.8633 132.337 44.7653 132.19 44.7653H128.027C127.929 44.7653 127.88 44.7163 127.88 44.6184V39.8186C127.88 39.7206 127.929 39.6717 128.027 39.6717H132.484C132.631 39.6717 132.729 39.5737 132.729 39.3778V37.1248C132.729 36.8799 132.631 36.782 132.435 36.782Z" fill="#323D22"/>
<path d="M143.749 51.9163H138.851C138.753 51.9163 138.704 51.8673 138.704 51.7694V47.0186C138.704 46.9206 138.753 46.8716 138.851 46.8716H143.112C143.259 46.8716 143.357 46.7737 143.357 46.6267V44.5207C143.357 44.3248 143.259 44.2269 143.112 44.2269H138.851C138.753 44.2269 138.704 44.1779 138.704 44.0799V39.8189C138.704 39.7209 138.753 39.6719 138.851 39.6719H143.455C143.651 39.6719 143.7 39.574 143.7 39.4271V37.1741C143.7 36.9782 143.602 36.9292 143.455 36.9292H135.913C135.717 36.9292 135.668 37.0272 135.668 37.1741V54.6101C135.668 54.757 135.766 54.855 135.913 54.855H143.749C143.896 54.855 143.994 54.757 143.994 54.6101V52.2592C143.994 52.0143 143.945 51.9163 143.749 51.9163Z" fill="#323D22"/>
<path d="M153.789 51.9164H150.459C150.361 51.9164 150.312 51.8674 150.312 51.7694V37.0762C150.312 36.8803 150.214 36.8313 150.067 36.8313H147.52C147.324 36.8313 147.226 36.9293 147.226 37.0762V54.5122C147.226 54.6591 147.324 54.7571 147.52 54.7571H153.789C153.985 54.7571 154.034 54.6591 154.034 54.5122V52.1613C154.034 52.0143 153.985 51.9164 153.789 51.9164Z" fill="#323D22"/>
<path d="M173.968 47.1164C173.772 46.7246 173.478 46.3328 173.136 45.9899C172.793 45.6471 172.401 45.2553 171.96 44.8634C171.47 44.4716 171.128 44.1288 170.785 43.8349C170.491 43.541 170.246 43.2962 170.05 43.0023C169.854 42.7574 169.707 42.4635 169.658 42.1697C169.609 41.8758 169.56 41.533 169.56 41.1411C169.56 40.3085 169.707 39.8188 170.099 39.5739C170.442 39.329 171.03 39.231 171.764 39.231C172.156 39.231 172.548 39.231 172.94 39.28C173.331 39.329 173.723 39.378 174.066 39.4759C174.213 39.5249 174.262 39.4759 174.262 39.329L174.458 37.125C174.458 36.9781 174.409 36.8801 174.311 36.8801C173.968 36.7332 173.478 36.6842 172.94 36.5862C172.352 36.5373 171.764 36.4883 171.176 36.4883C170.491 36.4883 169.854 36.5373 169.266 36.6842C168.679 36.8311 168.14 37.076 167.699 37.3699C167.258 37.7127 166.915 38.2025 166.671 38.7902C166.426 39.378 166.279 40.1616 166.279 41.0922C166.279 41.7779 166.328 42.3166 166.426 42.8064C166.524 43.2962 166.72 43.737 166.915 44.1778C167.16 44.5696 167.454 44.9614 167.797 45.3042C168.14 45.6471 168.581 46.0389 169.021 46.4307C169.413 46.7246 169.756 47.0184 170.05 47.2633C170.344 47.5082 170.54 47.8021 170.736 48.047C170.883 48.2919 171.03 48.5857 171.128 48.8796C171.225 49.1735 171.274 49.5163 171.274 49.9081C171.274 50.3979 171.225 50.7407 171.128 51.0346C171.03 51.2795 170.883 51.5244 170.638 51.6713C170.442 51.8182 170.197 51.9162 169.903 52.0142C169.609 52.0631 169.315 52.0631 168.924 52.0631C168.434 52.0631 167.993 52.0631 167.601 52.0142C167.209 51.9652 166.769 51.9162 166.328 51.8182C166.181 51.7693 166.132 51.8182 166.132 51.9652L165.985 54.2671C165.985 54.4141 165.985 54.463 166.083 54.512C166.622 54.6589 167.16 54.7079 167.748 54.7569C168.336 54.8059 168.875 54.8059 169.462 54.8059C170.246 54.8059 170.932 54.7569 171.568 54.561C172.205 54.4141 172.744 54.1692 173.185 53.7773C173.674 53.4345 174.017 52.9447 174.262 52.308C174.507 51.6713 174.654 50.9366 174.654 50.0061C174.654 49.3204 174.605 48.7816 174.507 48.2919C174.36 47.949 174.213 47.5082 173.968 47.1164Z" fill="#323D22"/>
<path d="M39.0841 60.1934L39.133 40.0146L45.647 47.851C45.8919 48.1449 46.3327 48.1939 46.5776 47.949L49.4673 45.5491C49.7612 45.3042 49.8101 44.8634 49.5652 44.5695L39.133 32.1292V24.5867L45.647 32.3252C45.8919 32.619 46.3327 32.668 46.5776 32.4231L49.4183 30.0722C49.7122 29.8273 49.7612 29.3865 49.5163 29.0926L34.921 11.6077C34.6271 11.2648 34.0884 11.4607 34.0884 11.9015L33.9904 60.8791C33.5986 60.8791 33.2068 60.928 32.8639 60.928C32.4721 60.928 32.0803 60.928 31.7374 60.8791L31.5905 11.9015C31.5905 11.4607 31.0517 11.2648 30.7579 11.6077L16.1626 29.0926C15.9177 29.3865 15.9667 29.8273 16.2605 30.0722L19.1012 32.4231C19.3951 32.668 19.7869 32.619 20.0318 32.3252L26.4968 24.5867L26.5458 32.1292L16.1626 44.5695C15.9177 44.8634 15.9667 45.3042 16.2605 45.5491L19.1012 47.949C19.3951 48.1939 19.7869 48.1449 20.0318 47.851L26.5458 40.0146L26.5948 60.1934C13.8606 57.3037 4.359 45.5981 4.84877 31.8354C5.33855 17.5829 16.7503 5.82832 31.0028 4.89775C47.3123 3.82025 60.928 16.7993 60.928 32.8639C60.8791 46.1858 51.5733 57.3527 39.0841 60.1934ZM32.8639 0C14.7422 0 0 14.7422 0 32.8639C0 50.9856 14.7422 65.7278 32.8639 65.7278C50.9856 65.7278 65.7278 50.9856 65.7278 32.8639C65.7278 14.7422 50.9856 0 32.8639 0Z" fill="#323D22"/>
</svg>
