<svg width="195" height="66" viewBox="0 0 195 66" fill="none" xmlns="http://www.w3.org/2000/svg">
<path d="M164.213 52.1309H160.869C160.77 52.1309 160.721 52.0818 160.721 51.9834V37.2293C160.721 37.0326 160.623 36.9834 160.475 36.9834H157.869C157.721 36.9834 157.623 37.0818 157.623 37.2293V54.7375C157.623 54.885 157.721 54.9834 157.869 54.9834H164.213C164.41 54.9834 164.508 54.885 164.508 54.7375V52.3768C164.508 52.2293 164.41 52.1309 164.213 52.1309Z" fill="white"/>
<path d="M82.1803 29.1146H84.836C84.9836 29.1146 85.0819 29.0163 85.0819 28.8687V21.7867C85.0819 21.6884 85.1311 21.6392 85.2295 21.6392H89.4098C89.6065 21.6392 89.7049 21.5408 89.7049 21.3441V19.2294C89.7049 19.0326 89.6065 18.9343 89.4098 18.9343H85.2295C85.1311 18.9343 85.0819 18.8851 85.0819 18.7867V13.9671C85.0819 13.8687 85.1311 13.8195 85.2295 13.8195H89.7541C89.9016 13.8195 90 13.7212 90 13.5736V11.3113C90 11.1638 89.9016 11.0654 89.7541 11.0654H82.2295C82.0328 11.0654 81.9344 11.1638 81.9344 11.3113V28.8195C81.8852 29.0162 81.9836 29.1146 82.1803 29.1146Z" fill="white"/>
<path d="M99.1968 18.9343C98.8033 19.5244 98.2131 19.7703 97.4754 19.7703H96.2951C96.1476 19.7703 96.0492 19.7212 96.0492 19.5736V13.7212C96.0492 13.5736 96.1476 13.5244 96.2951 13.5244H97.6722C98.4099 13.5244 98.9509 13.7212 99.2951 14.1638C99.6394 14.6064 99.7869 15.3441 99.7869 16.4753C99.7869 17.5572 99.5902 18.3933 99.1968 18.9343ZM100.771 21.59C100.623 21.1966 100.672 20.9015 100.918 20.7048C101.607 20.1146 102.148 19.4753 102.443 18.7376C102.787 17.9999 102.934 17.0654 102.934 16.0326C102.934 14.3605 102.541 13.0818 101.803 12.2949C101.016 11.4589 99.7869 11.0654 98.0656 11.0654H93.1476C93 11.0654 92.9017 11.1638 92.9017 11.3113V28.8195C92.9017 29.0162 93 29.0654 93.1476 29.0654H95.705C95.9017 29.0654 96 28.9671 96 28.8195V22.2785C96 22.131 96.0492 22.0818 96.1968 22.0818H97.5738C97.7213 22.0818 97.7705 22.131 97.8689 22.2785L100.574 28.8687C100.623 29.0163 100.771 29.1146 100.918 29.1146H103.82C104.016 29.1146 104.066 29.0163 104.016 28.8687L100.771 21.59Z" fill="white"/>
<path d="M110.016 28.8195V11.3113C110.016 11.1638 109.918 11.0654 109.771 11.0654H107.262C107.066 11.0654 106.967 11.1638 106.967 11.3113V28.8195C106.967 29.0162 107.066 29.1146 107.262 29.1146H109.771C109.918 29.1146 110.016 29.0162 110.016 28.8195Z" fill="white"/>
<path d="M122.164 26.213H117.246C117.148 26.213 117.098 26.1638 117.098 26.0654V21.3441C117.098 21.2458 117.148 21.1966 117.246 21.1966H121.525C121.672 21.1966 121.771 21.0982 121.771 20.9507V18.8359C121.771 18.6392 121.721 18.5408 121.525 18.5408H117.246C117.148 18.5408 117.098 18.4917 117.098 18.3933V14.1146C117.098 14.0162 117.148 13.9671 117.246 13.9671H121.869C122.016 13.9671 122.115 13.8687 122.115 13.7212V11.3113C122.115 11.1638 122.016 11.0654 121.869 11.0654H114.295C114.148 11.0654 114.049 11.1638 114.049 11.3113V28.8195C114.049 29.0162 114.148 29.1146 114.295 29.1146H122.164C122.311 29.1146 122.41 29.0162 122.41 28.8195V26.4589C122.41 26.3113 122.311 26.213 122.164 26.213Z" fill="white"/>
<path d="M125.852 29.1146H128.164C128.311 29.1146 128.459 29.0163 128.459 28.8687L128.311 16.0326C128.311 15.8359 128.361 15.7376 128.508 15.7376C128.607 15.7376 128.656 15.7376 128.705 15.7867C128.754 15.8359 128.754 15.8851 128.803 16.0326L132.787 28.8195C132.836 29.0162 132.934 29.1146 133.131 29.1146H136.574C136.721 29.1146 136.82 29.0163 136.82 28.8687V11.3113C136.82 11.1638 136.721 11.0654 136.574 11.0654H134.262C134.066 11.0654 133.967 11.1638 133.967 11.3113L134.115 23.754C134.115 23.9015 134.066 23.9507 133.967 23.9507C133.918 23.9507 133.82 23.9015 133.82 23.9015C133.771 23.8523 133.721 23.754 133.672 23.6064L130.082 11.4097C130.033 11.213 129.934 11.1146 129.738 11.1146H125.902C125.705 11.1146 125.607 11.213 125.607 11.3605V28.8687C125.607 29.0163 125.705 29.1146 125.852 29.1146Z" fill="white"/>
<path d="M148.623 22.8195C148.525 23.6064 148.377 24.2949 148.131 24.7867C147.885 25.2785 147.59 25.672 147.197 25.9179C146.803 26.1638 146.262 26.2621 145.672 26.2621H143.951C143.853 26.2621 143.803 26.2129 143.803 26.1146V13.9179C143.803 13.8195 143.853 13.7703 143.951 13.7703H145.623C146.262 13.7703 146.754 13.8687 147.197 14.1146C147.59 14.3605 147.934 14.7047 148.131 15.1965C148.377 15.6884 148.525 16.3277 148.623 17.1146C148.721 17.9015 148.771 18.8359 148.771 19.9179C148.771 21.049 148.721 22.0326 148.623 22.8195ZM150.836 26.4588C151.279 25.6228 151.574 24.6884 151.771 23.5572C151.918 22.4261 152.016 21.2457 152.016 19.967C152.016 18.6884 151.967 17.508 151.771 16.4261C151.623 15.3441 151.279 14.4097 150.836 13.5736C150.393 12.7375 149.803 12.1474 149.016 11.6556C148.23 11.2129 147.246 10.967 146.016 10.967H140.951C140.803 10.967 140.705 11.0654 140.705 11.2129V28.7211C140.705 28.9179 140.803 29.0162 140.951 29.0162H145.967C147.148 29.0162 148.131 28.7703 148.918 28.3277C149.754 27.9343 150.344 27.2949 150.836 26.4588Z" fill="white"/>
<path d="M159.836 29.0655C160.475 28.9179 161.016 28.672 161.459 28.2786C161.951 27.9343 162.295 27.4425 162.541 26.8032C162.787 26.213 162.934 25.4261 162.934 24.4917C162.934 23.8032 162.885 23.2622 162.787 22.7704C162.688 22.2786 162.492 21.836 162.295 21.4425C162.098 21.0491 161.803 20.6556 161.459 20.3114C161.115 19.9671 160.721 19.5737 160.279 19.1802C159.787 18.7868 159.443 18.4425 159.098 18.1475C158.803 17.8524 158.557 17.6065 158.361 17.3606C158.164 17.1147 158.016 16.8196 157.967 16.5245C157.918 16.2294 157.869 15.8852 157.869 15.4917C157.869 14.7048 158.016 14.1638 158.41 13.9179C158.754 13.672 159.344 13.5737 160.082 13.5737C160.475 13.5737 160.869 13.5737 161.262 13.6229C161.656 13.672 162.049 13.7212 162.393 13.8196C162.541 13.8688 162.59 13.8196 162.59 13.672L162.787 11.4589C162.787 11.3114 162.738 11.2622 162.639 11.213C162.295 11.0655 161.803 10.9671 161.262 10.9179C160.672 10.8688 160.082 10.8196 159.492 10.8196C158.803 10.8196 158.164 10.8688 157.574 11.0163C156.984 11.1638 156.443 11.4097 156 11.754C155.557 12.0983 155.213 12.5901 154.967 13.1802C154.721 13.7704 154.574 14.5573 154.574 15.4917C154.574 16.1802 154.623 16.7212 154.721 17.213C154.82 17.7048 155.016 18.1474 155.213 18.5409C155.459 18.9343 155.754 19.3278 156.098 19.672C156.443 20.0655 156.885 20.4097 157.328 20.8524C157.721 21.1475 158.066 21.4425 158.361 21.6884C158.656 21.9343 158.852 22.1802 159.049 22.4753C159.197 22.7212 159.344 23.0163 159.443 23.3114C159.541 23.6065 159.59 23.9507 159.59 24.3442C159.59 24.7868 159.541 25.1802 159.443 25.4261C159.344 25.7212 159.147 25.9179 158.951 26.0655C158.754 26.213 158.508 26.3114 158.213 26.3606C157.918 26.4097 157.623 26.4589 157.229 26.4589C156.738 26.4589 156.295 26.4589 155.902 26.4097C155.508 26.3606 155.066 26.3114 154.623 26.213C154.475 26.1638 154.426 26.213 154.426 26.3606L154.279 28.672C154.279 28.7704 154.279 28.8688 154.377 28.9179C154.918 29.0163 155.459 29.1147 156 29.1638C156.59 29.213 157.131 29.213 157.721 29.213C158.508 29.2622 159.197 29.213 159.836 29.0655Z" fill="white"/>
<path d="M180.148 23.5082C180 24.541 179.853 25.2787 179.557 25.6721C179.361 25.9672 179.115 26.164 178.869 26.3115C178.574 26.4099 178.18 26.459 177.59 26.459C177.049 26.459 176.607 26.4099 176.312 26.3115C176.016 26.2131 175.771 25.9672 175.574 25.6721C175.328 25.2787 175.131 24.541 175.033 23.5082C174.935 22.4754 174.836 21.3443 174.836 20.1148C174.836 18.8361 174.885 17.6558 175.033 16.623C175.18 15.5902 175.377 14.9017 175.623 14.459C175.82 14.164 176.066 13.9672 176.361 13.8197C176.656 13.7213 177.049 13.6721 177.639 13.6721C178.18 13.6721 178.623 13.7213 178.869 13.8197C179.164 13.918 179.361 14.164 179.557 14.459C179.803 14.8525 180 15.5902 180.148 16.623C180.295 17.6558 180.344 18.8361 180.344 20.1148C180.344 21.3443 180.295 22.4754 180.148 23.5082ZM182.016 12.4426C181.525 11.7541 180.935 11.3115 180.246 11.1148C179.557 10.918 178.672 10.7705 177.639 10.7705C176.607 10.7705 175.672 10.8689 174.984 11.1148C174.246 11.3607 173.656 11.8033 173.164 12.4426C172.672 13.1312 172.23 14.1148 171.984 15.4918C171.689 16.8689 171.541 18.3443 171.541 20.0656C171.541 20.9017 171.59 21.7377 171.639 22.5246C171.689 23.3115 171.787 24.0492 171.935 24.6885C172.082 25.3771 172.23 25.9672 172.426 26.459C172.623 27 172.869 27.4426 173.115 27.7869C173.607 28.4262 174.197 28.8689 174.885 29.0656C175.574 29.2623 176.459 29.3607 177.541 29.3607C178.574 29.3607 179.508 29.2623 180.197 29.0656C180.885 28.8689 181.525 28.4262 181.967 27.7869C182.213 27.4426 182.459 27 182.656 26.459C182.853 25.918 183.049 25.3279 183.197 24.6885C183.344 24 183.443 23.3115 183.492 22.5246C183.541 21.7377 183.59 20.9508 183.59 20.1148C183.59 18.4426 183.443 16.918 183.148 15.541C182.951 14.164 182.557 13.1312 182.016 12.4426Z" fill="white"/>
<path d="M194.508 11.0164H186.984C186.787 11.0164 186.738 11.1147 186.738 11.2623V28.7705C186.738 28.9672 186.836 29.0655 186.984 29.0655H189.639C189.787 29.0655 189.885 28.9672 189.885 28.7705V21.7868C189.885 21.6885 189.934 21.6393 190.033 21.6393H194.213C194.361 21.6393 194.459 21.5409 194.459 21.3934V19.2787C194.459 19.0819 194.361 18.9836 194.213 18.9836H190.033C189.934 18.9836 189.885 18.9344 189.885 18.836V14.0164C189.885 13.918 189.934 13.8688 190.033 13.8688H194.557C194.705 13.8688 194.803 13.7705 194.803 13.6229V11.3114C194.754 11.1147 194.656 11.0164 194.508 11.0164Z" fill="white"/>
<path d="M89.9016 36.9348H81.3934C81.1967 36.9348 81.0984 37.0332 81.0984 37.1807V39.443C81.0984 39.5906 81.1967 39.7381 81.3934 39.7381H83.9508C84.0492 39.7381 84.0984 39.7873 84.0984 39.8856V54.7381C84.0984 54.9348 84.1967 55.0332 84.3443 55.0332H86.9016C87.0492 55.0332 87.1475 54.9348 87.1475 54.7381V39.8856C87.1475 39.7873 87.1967 39.7381 87.2951 39.7381H89.8525C90 39.7381 90.0984 39.6397 90.0984 39.443V37.1807C90.1475 37.0332 90.0492 36.9348 89.9016 36.9348Z" fill="white"/>
<path d="M103.525 36.9348H100.967C100.77 36.9348 100.672 37.0332 100.672 37.1807V44.2135C100.672 44.3119 100.623 44.361 100.525 44.361H96.2459C96.1475 44.361 96.0983 44.3119 96.0983 44.2135V37.2299C96.0983 37.0824 96 36.984 95.8033 36.984H93.2459C93.0983 36.984 92.9508 37.0824 92.9508 37.2299V54.7381C92.9508 54.9348 93.0492 55.0332 93.2459 55.0332H95.8033C95.9508 55.0332 96.0983 54.9348 96.0983 54.7381V47.2627C96.0983 47.1643 96.1475 47.1151 96.2459 47.1151H100.525C100.623 47.1151 100.672 47.1643 100.672 47.2627V54.7381C100.672 54.9348 100.77 55.0332 100.967 55.0332H103.525C103.672 55.0332 103.77 54.9348 103.77 54.7381V37.2299C103.77 37.0332 103.672 36.9348 103.525 36.9348Z" fill="white"/>
<path d="M115.672 52.1308H110.754C110.656 52.1308 110.607 52.0816 110.607 51.9833V47.2128C110.607 47.1144 110.656 47.0653 110.754 47.0653H115.033C115.18 47.0653 115.279 46.9669 115.279 46.8194V44.7046C115.279 44.5079 115.23 44.4095 115.033 44.4095H110.754C110.656 44.4095 110.607 44.3603 110.607 44.262V39.9833C110.607 39.8849 110.656 39.8357 110.754 39.8357H115.377C115.525 39.8357 115.623 39.7374 115.623 39.5898V37.2784C115.623 37.1308 115.525 37.0325 115.377 37.0325H107.803C107.656 37.0325 107.557 37.1308 107.557 37.2784V54.7866C107.557 54.9833 107.656 55.0816 107.803 55.0816H115.672C115.82 55.0816 115.918 54.9833 115.918 54.7866V52.4259C115.918 52.2292 115.82 52.1308 115.672 52.1308Z" fill="white"/>
<path d="M132.984 36.9348H125.459C125.311 36.9348 125.213 37.0332 125.213 37.2299V54.7381C125.213 54.8856 125.311 54.984 125.459 54.984H128.115C128.262 54.984 128.41 54.8856 128.41 54.7381V47.7053C128.41 47.6069 128.459 47.5578 128.557 47.5578H132.738C132.885 47.5578 132.984 47.4594 132.984 47.3119V45.1971C132.984 45.0496 132.885 44.9512 132.738 44.9512H128.557C128.459 44.9512 128.41 44.902 128.41 44.8037V39.984C128.41 39.8856 128.459 39.8365 128.557 39.8365H133.033C133.18 39.8365 133.279 39.7381 133.279 39.5414V37.2791C133.279 37.0332 133.18 36.9348 132.984 36.9348Z" fill="white"/>
<path d="M144.344 52.1307H139.426C139.328 52.1307 139.279 52.0815 139.279 51.9832V47.2127C139.279 47.1143 139.328 47.0651 139.426 47.0651H143.705C143.852 47.0651 143.951 46.9668 143.951 46.8192V44.7045C143.951 44.5078 143.852 44.4094 143.705 44.4094H139.426C139.328 44.4094 139.279 44.3602 139.279 44.2619V39.9832C139.279 39.8848 139.328 39.8356 139.426 39.8356H144.049C144.246 39.8356 144.295 39.7373 144.295 39.5897V37.3274C144.295 37.1307 144.197 37.0815 144.049 37.0815H136.475C136.279 37.0815 136.229 37.1799 136.229 37.3274V54.8356C136.229 54.9832 136.328 55.0815 136.475 55.0815H144.344C144.492 55.0815 144.59 54.9832 144.59 54.8356V52.475C144.59 52.2291 144.541 52.1307 144.344 52.1307Z" fill="white"/>
<path d="M154.426 52.1309H151.082C150.984 52.1309 150.934 52.0818 150.934 51.9834V37.2293C150.934 37.0326 150.836 36.9834 150.689 36.9834H148.131C147.934 36.9834 147.836 37.0818 147.836 37.2293V54.7375C147.836 54.885 147.934 54.9834 148.131 54.9834H154.426C154.623 54.9834 154.672 54.885 154.672 54.7375V52.3768C154.672 52.2293 154.623 52.1309 154.426 52.1309Z" fill="white"/>
<path d="M174.689 47.3113C174.492 46.9178 174.197 46.5244 173.852 46.1801C173.508 45.8359 173.115 45.4424 172.672 45.049C172.18 44.6556 171.836 44.3113 171.492 44.0162C171.197 43.7211 170.951 43.4752 170.754 43.1801C170.557 42.9342 170.41 42.6392 170.361 42.3441C170.311 42.049 170.262 41.7047 170.262 41.3113C170.262 40.4752 170.41 39.9834 170.803 39.7375C171.148 39.4916 171.738 39.3933 172.475 39.3933C172.869 39.3933 173.262 39.3933 173.656 39.4424C174.049 39.4916 174.443 39.5408 174.787 39.6392C174.934 39.6883 174.984 39.6392 174.984 39.4916L175.18 37.2785C175.18 37.131 175.131 37.0326 175.033 37.0326C174.689 36.8851 174.197 36.8359 173.656 36.7375C173.066 36.6883 172.475 36.6392 171.885 36.6392C171.197 36.6392 170.557 36.6883 169.967 36.8359C169.377 36.9834 168.836 37.2293 168.393 37.5244C167.951 37.8687 167.607 38.3605 167.361 38.9506C167.115 39.5408 166.967 40.3277 166.967 41.2621C166.967 41.9506 167.016 42.4916 167.115 42.9834C167.213 43.4752 167.41 43.9178 167.607 44.3605C167.852 44.7539 168.148 45.1474 168.492 45.4916C168.836 45.8359 169.279 46.2293 169.721 46.6228C170.115 46.9179 170.459 47.2129 170.754 47.4588C171.049 47.7047 171.246 47.9998 171.443 48.2457C171.59 48.4916 171.738 48.7867 171.836 49.0818C171.934 49.3769 171.984 49.7211 171.984 50.1146C171.984 50.6064 171.934 50.9506 171.836 51.2457C171.738 51.4916 171.59 51.7375 171.344 51.8851C171.148 52.0326 170.902 52.131 170.607 52.2293C170.311 52.2785 170.016 52.2785 169.623 52.2785C169.131 52.2785 168.689 52.2785 168.295 52.2293C167.902 52.1801 167.459 52.131 167.016 52.0326C166.869 51.9834 166.82 52.0326 166.82 52.1801L166.672 54.4916C166.672 54.6392 166.672 54.6883 166.77 54.7375C167.311 54.8851 167.852 54.9342 168.443 54.9834C169.033 55.0326 169.574 55.0326 170.164 55.0326C170.951 55.0326 171.639 54.9834 172.279 54.7867C172.918 54.6392 173.459 54.3933 173.902 53.9998C174.393 53.6556 174.738 53.1638 174.984 52.5244C175.229 51.8851 175.377 51.1474 175.377 50.2129C175.377 49.5244 175.328 48.9834 175.229 48.4916C175.082 48.1474 174.934 47.7047 174.689 47.3113Z" fill="white"/>
<path d="M39.2459 60.4426L39.2951 40.1803L45.8361 48.0492C46.082 48.3443 46.5246 48.3934 46.7705 48.1475L49.6721 45.7377C49.9672 45.4918 50.0164 45.0492 49.7705 44.7541L39.2951 32.2623V24.6885L45.8361 32.459C46.082 32.7541 46.5246 32.8033 46.7705 32.5574L49.623 30.1967C49.918 29.9508 49.9672 29.5082 49.7213 29.2131L35.0656 11.6557C34.7705 11.3115 34.2295 11.5082 34.2295 11.9508L34.1311 61.1311C33.7377 61.1311 33.3443 61.1803 33 61.1803C32.6066 61.1803 32.2131 61.1803 31.8689 61.1311L31.7213 11.9508C31.7213 11.5082 31.1803 11.3115 30.8852 11.6557L16.2295 29.2131C15.9836 29.5082 16.0328 29.9508 16.3279 30.1967L19.1803 32.5574C19.4754 32.8033 19.8689 32.7541 20.1148 32.459L26.6066 24.6885L26.6557 32.2623L16.2295 44.7541C15.9836 45.0492 16.0328 45.4918 16.3279 45.7377L19.1803 48.1475C19.4754 48.3934 19.8689 48.3443 20.1148 48.0492L26.6557 40.1803L26.7049 60.4426C13.918 57.541 4.37705 45.7869 4.86885 31.9672C5.36066 17.6557 16.8197 5.85246 31.1311 4.91803C47.5082 3.83607 61.1803 16.8689 61.1803 33C61.1311 46.377 51.7869 57.5902 39.2459 60.4426ZM33 0C14.8033 0 0 14.8033 0 33C0 51.1967 14.8033 66 33 66C51.1967 66 66 51.1967 66 33C66 14.8033 51.1967 0 33 0Z" fill="white"/>
</svg>
